{
.appVersion = "3151";
.formatVersion = 3;
DisplayStrings = (
"",
"",
"",
"",
"",
"",
"",
"",
"

",
"",
"",
"",
"/.notdef"
);
date = "2024-02-24 02:02:13 +0000";
familyName = "Mooniak Sinhala Pro";
featurePrefixes = (
{
code = "languagesystem DFLT dflt;
languagesystem sinh dflt;
";
name = Languagesystems;
},
{
code = "#---- --akhn ------------

lookup akhands {
  sub ka-sinhala virama-sinhala zerowidthjoiner ssa-sinhala by k_ssa-sinhala;
  sub ka-sinhala virama-sinhala zerowidthjoiner va-sinhala by k_v-sinhala;
  sub ta-sinhala virama-sinhala zerowidthjoiner va-sinhala by t_va-sinhala;
  sub ta-sinhala virama-sinhala zerowidthjoiner tha-sinhala by t_tha-sinhala;
  sub na-sinhala virama-sinhala zerowidthjoiner va-sinhala by n_va-sinhala;
  sub na-sinhala virama-sinhala zerowidthjoiner dha-sinhala by n_dha-sinhala;
  sub na-sinhala virama-sinhala zerowidthjoiner tha-sinhala by n_tha-sinhala;
  sub da-sinhala virama-sinhala zerowidthjoiner va-sinhala by d_va-sinhala;
  sub da-sinhala virama-sinhala zerowidthjoiner dha-sinhala by d_dha-sinhala;
  sub tta-sinhala virama-sinhala zerowidthjoiner ttha-sinhala by tt_ttha-sinhala;
  sub ga-sinhala virama-sinhala zerowidthjoiner dha-sinhala by g_dha-sinhala;
  sub nna-sinhala virama-sinhala zerowidthjoiner dda-sinhala by n_ndda-sinhala;
  sub nya-sinhala virama-sinhala zerowidthjoiner ja-sinhala by n_yja-sinhala;
  sub ma-sinhala virama-sinhala zerowidthjoiner ba-sinhala by m_ba-sinhala;
  sub nga-sinhala virama-sinhala zerowidthjoiner ga-sinhala by nnga-sinhala;
  sub nya-sinhala virama-sinhala zerowidthjoiner ca-sinhala by nyca-sinhala;
  sub nya-sinhala virama-sinhala zerowidthjoiner cha-sinhala by nycha-sinhala;
  sub ca-sinhala virama-sinhala zerowidthjoiner ca-sinhala by cca-sinhala;
  sub ba-sinhala virama-sinhala zerowidthjoiner ba-sinhala by bba-sinhala;
} akhands;

#---- reph ----

lookup reph {
  sub ra-sinhala virama-sinhala zerowidthjoiner by reph-sinhala;
} reph;

#---- haln ----

lookup _virama {

glyphs = (
{
glyphname = d_dhI;
lastChange = "2024-02-27 10:33:15 +0000";
layers = (
{
layerId = "C18F3EFD-FA9C-4751-AD2F-5B966120D1A5";
shapes = (
{
closed = 1;
nodes = (
(26,207,cs),
(26,336,o),
(99,423,o),
(215,423,cs),
(240,423,o),
(283,417,o),
(306,389,c),
(293,387,o),
(273,385,o),
(269,385,c),
(261,393,o),
(239,397,o),
(221,397,cs),
(90,397,o),
(55,288,o),
(55,203,cs),
(55,128,o),
(81,73,o),
(132,29,c),
(132,0,l),
(68,32,o),
(26,108,o)
);
},
{
pos = (90,0);
ref = "dhi-sinhala";
}
);
width = 711;
}
);
},
{
glyphname = "a-sinhala";
lastChange = "2024-02-24 15:47:15 +0000";
layers = (
{
layerId = "C18F3EFD-FA9C-4751-AD2F-5B966120D1A5";
shapes = (
{
closed = 1;
nodes = (
(375,202,c),
(375,229,l),
(384,224,o),
(394,224,o),
(401,224,cs),
(429,224,o),
(453,243,o),
(453,280,cs),
(453,303,o),
(450,318,o),
(438,337,cs),
(427,354,o),
(411,363,o),
(411,389,cs),
(411,391,o),
(412,393,o),
(412,395,c),
(428,408,ls),
(446,412,l),
(439,408,o),
(435,405,o),
(435,394,cs),
(435,361,o),
(514,345,o),
(514,274,cs),
(514,223,o),
(468,195,o),
(418,195,cs),
(405,195,o),
(391,197,o)
);
},
{
closed = 1;
nodes = (
(351,-210,l),
(351,-38,o),
(351,134,o),
(351,306,cs),
(351,342,o),
(359,371,o),
(377,392,cs),
(392,409,o),
(409,420,o),
(429,425,c),
(451,414,l),
(383,384,o),
(379,344,o),
(379,308,cs),
(379,-210,l)
);
},
{
closed = 1;
nodes = (
(115,-4,o),
(32,60,o),
(32,156,cs),
(32,242,o),
(92,302,o),
(197,302,cs),
(309,302,l),
(308,345,o),
(280,384,o),
(235,384,cs),
(200,384,o),
(192,368,o),
(184,350,cs),
(179,339,o),
(168,323,o),
(144,323,cs),
(123,323,o),
(104,337,o),
(104,360,cs),
(104,400,o),
(150,423,o),
(206,423,cs),
(288,423,o),
(339,373,o),
(339,283,cs),
(339,282,o),
(339,281,o),
(339,280,c),
(246,280,ls),
(127,280,o),
(110,195,o),
(110,160,cs),
(110,86,o),
(157,22,o),
(290,22,cs),
(400,22,o),
(469,49,o),
(511,81,c),
(511,50,l),
(461,17,o),
(377,-4,o),
(275,-4,cs)
);
}
);
width = 559;
}
);
unicode = 3461;
},
{
glyphname = "ai-sinhala";
lastChange = "2024-02-24 15:47:16 +0000";
layers = (
{
layerId = "C18F3EFD-FA9C-4751-AD2F-5B966120D1A5";
shapes = (
{
closed = 1;
nodes = (
(230,239,cs),
(230,214,o),
(255,193,o),
(284,193,cs),
(313,193,o),
(338,214,o),
(338,239,cs),
(338,264,o),
(313,285,o),
(284,285,cs),
(255,285,o),
(230,264,o)
);
},
{
closed = 1;
nodes = (
(32,207,cs),
(32,339,o),
(157,422,o),
(294,422,cs),
(439,422,o),
(558,332,o),
(570,201,c),
(542,201,l),
(524,316,o),
(420,395,o),
(294,395,cs),
(183,395,o),
(74,332,o),
(74,232,cs),
(74,138,o),
(159,69,o),
(263,69,c),
(350,69,o),
(444,103,o),
(444,185,cs),
(444,239,o),
(400,271,o),
(352,280,c),
(365,266,o),
(370,250,o),
(370,234,cs),
(370,187,o),
(327,162,o),
(285,162,cs),
(240,162,o),
(198,193,o),
(198,236,cs),
(198,283,o),
(242,314,o),
(297,314,cs),
(397,314,o),
(479,262,o),
(479,164,cs),
(479,66,o),
(403,0,o),
(263,0,cs),
(131,0,o),
(32,82,o)
);
},
{
pos = (618,0);
ref = "i-sinhala";
}
);
width = 1199;
}
);
unicode = 3475;
},
{
glyphname = "ba-sinhala";
lastChange = "2024-02-24 15:47:16 +0000";
layers = (
{
anchors = (
{
name = _cursive;
pos = (39,0);
}
);
layerId = "C18F3EFD-FA9C-4751-AD2F-5B966120D1A5";
shapes = (
{
closed = 1;
nodes = (
(101,74,cs),
(101,49,o),
(123,26,o),
(148,26,cs),
(184,26,o),
(196,49,o),
(196,74,cs),
(196,99,o),
(176,122,o),
(148,122,cs),
(123,122,o),
(101,99,o)
);
},
{
closed = 1;
nodes = (
(34,183,cs),
(34,307,o),
(119,387,o),
(243,387,cs),
(333,387,o),
(415,337,o),
(415,251,cs),
(415,123,o),
(299,163,o),
(299,99,cs),
(299,75,o),
(315,62,o),
(345,62,cs),
(453,62,o),
(520,198,o),
(520,306,cs),
(520,448,o),
(433,548,o),
(287,548,cs),
(195,548,o),
(132,518,o),
(94,459,c),
(64,459,l),
(98,529,o),
(177,571,o),
(287,571,cs),
(461,571,o),
(564,454,o),
(564,277,cs),
(564,137,o),
(508,-2,o),
(374,-2,cs),
(315,-2,o),
(269,34,o),
(269,92,cs),
(269,182,o),
(381,152,o),
(381,231,cs),
(381,289,o),
(303,312,o),
(233,312,cs),
(144,312,o),
(64,261,o),
(64,158,cs),
(64,133,o),
(69,104,o),
(77,89,c),
(81,123,o),
(111,149,o),
(148,149,cs),
(195,149,o),
(226,116,o),
(226,75,cs),
(226,28,o),
(191,-1,o),
(148,-1,cs),
(68,-1,o),
(34,89,o)
);
}
);
width = 604;
}
);
unicode = 3510;
},
{
glyphname = "bha-sinhala";
lastChange = "2024-02-24 15:47:16 +0000";
layers = (
{
anchors = (
{
name = _cursive;
pos = (24,0);
}
);
layerId = "C18F3EFD-FA9C-4751-AD2F-5B966120D1A5";
shapes = (
{
closed = 1;
nodes = (
(6,265,c),
(6,296,l),
(207,296,l),
(167,271,l),
(137,271,ls),
(68,270,o),
(22,268,o)
);
},
{
closed = 1;
nodes = (
(48,151,cs),
(48,247,o),
(145,296,o),
(213,296,cs),
(217,296,o),
(213,296,o),
(217,296,c),
(217,337,o),
(193,374,o),
(156,374,cs),
(135,374,o),
(125,363,o),
(119,348,cs),
(113,332,o),
(101,319,o),
(80,319,cs),
(60,319,o),
(48,333,o),
(48,355,cs),
(48,384,o),
(75,422,o),
(131,422,cs),
(208,422,o),
(248,351,o),
(249,271,c),
(237,273,o),
(228,273,o),
(224,273,cs),
(160,273,o),
(84,239,o),
(84,171,cs),
(84,103,o),
(147,70,o),
(219,70,cs),
(283,70,o),
(338,98,o),
(338,160,cs),
(338,190,o),
(324,207,o),
(304,207,cs),
(291,207,o),
(278,199,o),
(271,178,c),
(249,188,l),
(258,310,o),
(337,422,o),
(436,422,cs),
(545,422,o),
(606,321,o),
(606,206,cs),
(606,90,o),
(519,-1,o),
(399,-1,cs),
(386,-1,o),
(373,0,o),
(359,2,c),
(359,28,l),
(371,26,o),
(383,25,o),
(395,25,cs),
(492,25,o),
(560,91,o),
(560,188,cs),
(560,281,o),
(509,354,o),
(420,354,cs),
(349,354,o),
(301,311,o),
(280,224,c),
(290,230,o),
(300,231,o),
(309,231,cs),
(346,231,o),
(373,195,o),
(373,142,cs),
(373,52,o),
(304,-1,o),
(212,-1,cs),
(116,-1,o),
(48,59,o)
);
}
);
width = 654;
}
);
unicode = 3511;
},
{
glyphname = "ca-sinhala";
lastChange = "2024-02-24 15:47:16 +0000";
layers = (
{
layerId = "C18F3EFD-FA9C-4751-AD2F-5B966120D1A5";
shapes = (
{
closed = 1;
nodes = (
(170,0,o),
(62,45,o),
(62,161,cs),
(62,191,o),
(73,222,o),
(95,242,cs),
(111,256,o),
(129,266,o),
(154,271,c),
(187,283,o),
(228,295,o),
(264,295,cs),
(280,295,l),
(280,297,o),
(280,299,o),
(280,301,cs),
(280,354,o),
(247,386,o),
(211,386,cs),
(167,386,o),
(160,363,o),
(154,347,cs),
(147,328,o),
(137,315,o),
(116,315,cs),
(100,315,o),
(81,326,o),
(81,351,cs),
(81,397,o),
(130,422,o),
(184,422,cs),
(270,422,o),
(312,367,o),
(312,283,cs),
(312,280,o),
(312,274,o),
(312,271,c),
(244,271,ls),
(201,271,o),
(162,259,o),
(138,243,cs),
(112,226,o),
(99,201,o),
(99,176,cs),
(99,92,o),
(203,69,o),
(291,69,cs),
(440,69,o),
(528,154,o),
(528,293,cs),
(528,432,o),
(427,540,o),
(296,540,cs),
(219,540,o),
(157,513,o),
(113,459,c),
(82,459,l),
(130,527,o),
(200,563,o),
(296,563,cs),
(452,563,o),
(562,433,o),
(562,268,cs),
(562,112,o),
(467,0,o),
(288,0,cs)
);
},
{
closed = 1;
nodes = (
(76,270,o),
(30,267,o),
(14,264,c),
(14,295,l),
(278,295,l),
(308,271,l),
(145,271,ls)
);
}
);
width = 607;
}
);
unicode = 3488;
},
{
glyphname = "cha-sinhala";
lastChange = "2024-02-24 15:47:16 +0000";
layers = (
{
layerId = "C18F3EFD-FA9C-4751-AD2F-5B966120D1A5";
shapes = (
{
closed = 1;
nodes = (
(156,0,o),
(32,43,o),
(32,166,cs),
(32,243,o),
(94,305,o),
(203,305,cs),
(208,305,o),
(217,305,o),
(222,304,c),
(223,311,o),
(224,316,o),
(224,323,cs),
(224,353,o),
(209,382,o),
(173,382,cs),
(152,382,o),
(141,369,o),
(134,354,cs),
(123,331,o),
(115,314,o),
(89,314,cs),
(70,314,o),
(52,328,o),
(52,352,cs),
(52,400,o),
(99,422,o),
(145,422,cs),
(210,422,o),
(252,383,o),
(252,318,cs),
(252,306,o),
(251,294,o),
(248,281,c),
(241,282,o),
(233,283,o),
(224,283,cs),
(108,283,o),
(68,228,o),
(68,182,cs),
(68,95,o),
(184,69,o),
(285,69,cs),
(389,69,o),
(502,95,o),
(502,182,cs),
(502,234,o),
(459,282,o),
(347,282,cs),
(326,282,o),
(291,279,o),
(277,278,c),
(275,285,o),
(272,301,o),
(272,312,cs),
(272,392,o),
(328,425,o),
(396,425,cs),
(466,425,o),
(520,383,o),
(520,290,cs),
(520,234,o),
(494,156,o),
(423,156,cs),
(364,156,o),
(341,218,o),
(341,286,cs),
(341,388,o),
(381,484,o),
(420,533,cs),
(452,573,o),
(493,603,o),
(529,603,cs),
(545,603,o),
(555,592,o),
(555,582,cs),
(555,543,o),
(507,575,o),
(441,504,cs),
(402,462,o),
(368,382,o),
(368,285,cs),
(368,239,o),
(379,183,o),
(425,183,cs),
(467,183,o),
(492,238,o),
(492,288,cs),
(492,369,o),
(454,400,o),
(393,400,cs),
(350,400,o),
(299,379,o),
(299,316,cs),
(299,311,o),
(299,307,o),
(300,303,c),
(307,304,o),
(326,305,o),
(342,305,cs),
(379,305,o),
(424,302,o),
(462,284,cs),
(505,264,o),
(536,223,o),
(536,164,cs),
(536,44,o),
(414,0,o),
(291,0,cs)
);
}
);
width = 583;
}
);
unicode = 3489;
},
{
glyphname = "da-sinhala";
lastChange = "2024-02-24 15:47:16 +0000";
layers = (
{
anchors = (
{
name = _cursive;
pos = (50,0);
}
);
layerId = "C18F3EFD-FA9C-4751-AD2F-5B966120D1A5";
shapes = (
{
closed = 1;
nodes = (
(30,165,cs),
(30,268,o),
(102,310,o),
(218,310,cs),
(335,310,l),
(325,355,o),
(297,387,o),
(254,387,cs),
(235,387,o),
(220,375,o),
(211,357,cs),
(201,336,o),
(186,328,o),
(171,328,cs),
(147,328,o),
(134,342,o),
(134,363,cs),
(134,398,o),
(173,423,o),
(227,423,cs),
(311,423,o),
(352,380,o),
(370,287,c),
(236,287,ls),
(150,287,o),
(105,251,o),
(105,169,cs),
(105,87,o),
(174,26,o),
(255,26,cs),
(300,26,o),
(336,45,o),
(375,90,c),
(397,73,l),
(367,38,o),
(299,-28,o),
(299,-102,cs),
(299,-166,o),
(337,-190,o),
(399,-205,c),
(399,-232,l),
(385,-235,o),
(368,-236,o),
(347,-236,cs),
(278,-234,o),
(243,-195,o),
(243,-139,cs),
(243,-101,o),
(266,-52,o),
(312,10,c),
(278,0,o),
(255,-1,o),
(229,-1,cs),
(101,-1,o),
(30,67,o)
);
}
);
width = 445;
}
);
unicode = 3503;
},
{
glyphname = "dda-sinhala";
lastChange = "2024-02-24 15:47:16 +0000";
layers = (
{
anchors = (
{
name = _cursive;
pos = (42,0);
}
);
layerId = "C18F3EFD-FA9C-4751-AD2F-5B966120D1A5";
shapes = (
{
closed = 1;
nodes = (
(15,281,l),
(15,308,l),
(255,308,l),
(252,350,o),
(222,382,o),
(193,382,cs),
(175,382,o),
(161,377,o),
(147,354,cs),
(136,335,o),
(124,331,o),
(110,331,cs),
(90,331,o),
(74,344,o),
(74,365,cs),
(74,404,o),
(120,422,o),
(161,422,cs),
(243,422,o),
(287,365,o),
(288,281,c),
(215,281,ls),
(124,281,o),
(81,225,o),
(81,170,cs),
(81,119,o),
(120,69,o),
(193,69,cs),
(241,69,o),
(292,93,o),
(292,140,cs),
(292,174,l),
(318,174,l),
(318,140,ls),
(318,95,o),
(365,69,o),
(414,69,cs),
(508,69,o),
(549,163,o),
(549,267,cs),
(549,418,o),
(445,543,o),
(291,543,cs),
(213,543,o),
(150,513,o),
(104,457,c),
(71,457,l),
(124,533,o),
(205,568,o),
(297,568,cs),
(468,568,o),
(584,434,o),
(584,252,cs),
(584,123,o),
(534,0,o),
(418,0,cs),
(355,0,o),
(327,29,o),
(306,58,c),
(277,22,o),
(244,0,o),
(194,0,cs),
(95,0,o),
(45,79,o),
(45,158,cs),
(45,207,o),
(69,258,o),
(122,281,c)
);
}
);
width = 631;
}
);
unicode = 3497;
},
{
glyphname = "ddha-sinhala";
lastChange = "2024-02-24 15:47:17 +0000";
layers = (
{
layerId = "C18F3EFD-FA9C-4751-AD2F-5B966120D1A5";
shapes = (
{
closed = 1;
nodes = (
(26,207,cs),
(26,336,o),
(99,423,o),
(215,423,cs),
(240,423,o),
(283,417,o),
(306,389,c),
(269,385,l),
(261,393,o),
(239,397,o),
(221,397,cs),
(90,397,o),
(55,288,o),
(55,203,cs),
(55,128,o),
(81,73,o),
(132,29,c),
(132,0,l),
(68,32,o),
(26,108,o)
);
},
{
pos = (90,0);
ref = "dha-sinhala";
}
);
width = 711;
}
);
unicode = 3498;
},
{
glyphname = "dha-sinhala";
lastChange = "2024-02-24 15:47:16 +0000";
layers = (
{
anchors = (
{
name = _cursive;
pos = (45,0);
}
);
layerId = "C18F3EFD-FA9C-4751-AD2F-5B966120D1A5";
shapes = (
{
closed = 1;
nodes = (
(32,190,cs),
(32,281,o),
(84,356,o),
(148,378,cs),
(169,385,o),
(192,389,o),
(216,389,c),
(216,364,l),
(213,364,o),
(209,364,o),
(206,364,cs),
(129,364,o),
(65,294,o),
(65,207,cs),
(65,133,o),
(113,69,o),
(184,69,cs),
(234,69,o),
(283,90,o),
(283,152,cs),
(283,191,l),
(311,191,l),
(311,152,ls),
(311,90,o),
(359,69,o),
(407,69,cs),
(501,69,o),
(542,176,o),
(542,277,cs),
(542,431,o),
(431,543,o),
(287,543,cs),
(208,543,o),
(147,515,o),
(95,457,c),
(63,457,l),
(119,530,o),
(195,566,o),
(292,566,cs),
(451,566,o),
(575,436,o),
(575,255,cs),
(575,136,o),
(535,0,o),
(412,0,cs),
(364,0,o),
(325,20,o),
(296,58,c),
(266,20,o),
(230,0,o),
(186,0,cs),
(86,0,o),
(32,93,o)
);
}
);
width = 623;
}
);
unicode = 3504;
},
{
glyphname = "e-sinhala";
lastChange = "2024-02-24 15:47:15 +0000";
layers = (
{
layerId = "C18F3EFD-FA9C-4751-AD2F-5B966120D1A5";
shapes = (
{
closed = 1;
nodes = (
(31,97,cs),
(31,205,o),
(118,289,o),
(258,289,cs),
(495,289,l),
(492,338,o),
(450,381,o),
(398,381,cs),
(371,381,o),
(353,368,o),
(339,346,cs),
(331,334,o),
(322,320,o),
(298,320,cs),
(277,320,o),
(261,336,o),
(261,356,cs),
(261,400,o),
(305,422,o),
(367,422,cs),
(458,422,o),
(526,362,o),
(526,270,cs),
(526,268,o),
(526,267,o),
(526,265,c),
(291,265,ls),
(170,265,o),
(106,199,o),
(106,107,cs),
(106,-30,o),
(211,-125,o),
(333,-125,cs),
(457,-125,o),
(561,-39,o),
(561,67,c),
(589,67,l),
(589,-63,o),
(468,-157,o),
(320,-157,cs),
(173,-157,o),
(31,-60,o)
);
}
);
width = 635;
}
);
unicode = 3473;
},
{
glyphname = "ee-sinhala";
lastChange = "2024-02-24 15:47:16 +0000";
layers = (
{
layerId = "C18F3EFD-FA9C-4751-AD2F-5B966120D1A5";
shapes = (
{
closed = 1;
nodes = (
(430,434,l),
(430,678,l),
(484,633,o),
(582,636,o),
(582,542,cs),
(582,501,o),
(550,473,o),
(502,473,cs),
(487,473,o),
(473,475,o),
(458,480,c),
(458,417,l)
);
},
{
closed = 1;
nodes = (
(458,503,l),
(466,499,o),
(476,497,o),
(489,497,cs),
(532,497,o),
(542,521,o),
(542,544,cs),
(542,584,o),
(514,604,o),
(458,633,c)
);
},
{
closed = 1;
nodes = (
(44,161,cs),
(44,191,o),
(54,222,o),
(76,242,cs),
(92,256,o),
(111,266,o),
(136,271,c),
(169,283,o),
(203,295,o),
(239,295,cs),
(251,295,l),
(251,297,o),
(251,299,o),
(251,301,cs),
(251,339,o),
(225,380,o),
(189,380,cs),
(151,380,o),
(141,357,o),
(135,341,cs),
(128,322,o),
(119,310,o),
(98,310,cs),
(82,310,o),
(62,320,o),
(62,345,cs),
(62,391,o),
(111,416,o),
(165,416,cs),
(251,416,o),
(282,344,o),
(282,283,cs),
(282,280,o),
(282,274,o),
(282,271,c),
(226,271,ls),
(183,271,o),
(143,259,o),
(119,243,cs),
(93,226,o),
(80,201,o),
(80,176,cs),
(80,92,o),
(184,69,o),
(272,69,cs),
(421,69,o),
(501,149,o),
(501,255,cs),
(501,311,o),
(484,350,o),
(460,385,c),
(445,353,o),
(416,333,o),
(374,333,cs),
(312,333,o),
(276,387,o),
(276,451,cs),
(276,500,o),
(291,535,o),
(317,565,c),
(377,533,o),
(443,461,o),
(481,402,cs),
(516,347,o),
(532,301,o),
(532,233,cs),
(532,116,o),
(449,0,o),
(270,0,cs),
(152,0,o),
(44,45,o)
);
},
{
closed = 1;
nodes = (
(16,264,c),
(16,295,l),
(249,295,l),
(278,271,l),
(126,271,ls),
(57,270,o),
(32,267,o)
);
},
{
closed = 1;
nodes = (
(306,455,cs),
(306,407,o),
(325,368,o),
(381,368,cs),
(404,368,o),
(431,379,o),
(441,412,c),
(412,457,o),
(363,502,o),
(326,529,c),
(314,511,o),
(306,489,o)
);
}
);
width = 581;
}
);
unicode = 3474;
},
{
glyphname = "fa-sinhala";
lastChange = "2024-02-24 15:47:16 +0000";
layers = (
{
anchors = (
{
name = _cursive;
pos = (43,0);
}
);
layerId = "C18F3EFD-FA9C-4751-AD2F-5B966120D1A5";
shapes = (
{
closed = 1;
nodes = (
(32,207,cs),
(32,309,o),
(77,421,o),
(182,421,cs),
(241,421,o),
(273,389,o),
(289,351,c),
(305,389,o),
(337,421,o),
(396,421,cs),
(501,421,o),
(546,309,o),
(546,207,cs),
(546,107,o),
(499,-1,o),
(400,-1,cs),
(388,-1,o),
(376,1,o),
(363,6,c),
(363,31,l),
(374,27,o),
(385,25,o),
(396,25,cs),
(465,25,o),
(512,96,o),
(512,191,cs),
(512,275,o),
(482,352,o),
(398,352,cs),
(347,352,o),
(305,326,o),
(305,257,cs),
(305,217,l),
(273,217,l),
(273,257,ls),
(273,326,o),
(231,352,o),
(180,352,cs),
(96,352,o),
(66,275,o),
(66,191,cs),
(66,96,o),
(114,25,o),
(183,25,cs),
(194,25,o),
(204,27,o),
(215,31,c),
(215,6,l),
(202,1,o),
(190,-1,o),
(178,-1,cs),
(79,-1,o),
(32,107,o)
);
}
);
width = 592;
}
);
unicode = 3526;
},
{
glyphname = "ga-sinhala";
lastChange = "2024-02-24 15:47:16 +0000";
layers = (
{
anchors = (
{
name = _cursive;
pos = (56,1);
}
);
layerId = "C18F3EFD-FA9C-4751-AD2F-5B966120D1A5";
shapes = (
{
closed = 1;
nodes = (
(33,202,cs),
(33,322,o),
(107,422,o),
(215,422,cs),
(219,422,o),
(224,421,o),
(228,421,c),
(228,398,l),
(225,398,o),
(220,398,o),
(217,398,cs),
(133,398,o),
(67,325,o),
(67,225,cs),
(67,144,o),
(114,69,o),
(201,69,cs),
(259,69,o),
(311,96,o),
(311,154,cs),
(311,191,o),
(291,212,o),
(261,212,cs),
(254,212,o),
(244,210,o),
(237,205,c),
(236,199,o),
(235,191,o),
(235,188,c),
(211,188,l),
(221,310,o),
(281,422,o),
(400,422,cs),
(509,422,o),
(572,324,o),
(572,212,cs),
(572,93,o),
(488,-1,o),
(360,-1,cs),
(350,-1,o),
(341,0,o),
(330,1,c),
(330,25,l),
(338,24,o),
(346,23,o),
(354,23,cs),
(458,23,o),
(530,97,o),
(530,195,cs),
(530,294,o),
(473,362,o),
(384,362,cs),
(309,362,o),
(257,305,o),
(241,230,c),
(249,234,o),
(257,235,o),
(264,235,cs),
(311,235,o),
(344,197,o),
(344,133,cs),
(344,55,o),
(288,-2,o),
(203,-2,cs),
(95,-2,o),
(33,94,o)
);
}
);
width = 621;
}
);
unicode = 3484;
},
{
glyphname = "gha-sinhala";
lastChange = "2024-02-24 15:47:16 +0000";
layers = (
{
anchors = (
{
name = _cursive;
pos = (54,0);
}
);
layerId = "C18F3EFD-FA9C-4751-AD2F-5B966120D1A5";
shapes = (
{
closed = 1;
nodes = (
(50,150,cs),
(50,220,o),
(90,262,o),
(141,278,c),
(174,290,o),
(227,301,o),
(263,301,cs),
(274,301,l),
(274,303,o),
(274,303,o),
(274,305,cs),
(274,352,o),
(243,386,o),
(207,386,cs),
(169,386,o),
(158,363,o),
(152,347,cs),
(145,328,o),
(136,315,o),
(115,315,cs),
(99,315,o),
(80,326,o),
(80,351,cs),
(80,397,o),
(129,422,o),
(183,422,cs),
(269,422,o),
(306,360,o),
(306,289,cs),
(306,286,o),
(306,279,o),
(306,276,c),
(211,276,ls),
(159,276,o),
(87,242,o),
(87,171,cs),
(87,113,o),
(139,69,o),
(207,69,cs),
(223,69,o),
(236,71,o),
(239,74,c),
(237,84,o),
(236,96,o),
(236,104,cs),
(236,176,o),
(288,195,o),
(324,195,cs),
(360,195,o),
(412,176,o),
(412,104,cs),
(412,96,o),
(411,84,o),
(409,74,c),
(412,71,o),
(425,69,o),
(441,69,cs),
(508,69,o),
(579,106,o),
(579,174,cs),
(579,242,o),
(529,284,o),
(438,284,cs),
(403,284,o),
(377,282,o),
(345,275,c),
(345,279,o),
(345,280,o),
(345,284,cs),
(345,366,o),
(392,422,o),
(465,422,cs),
(518,422,o),
(565,399,o),
(565,342,cs),
(565,321,o),
(552,299,o),
(537,290,c),
(583,268,o),
(613,216,o),
(613,162,cs),
(613,57,o),
(544,-1,o),
(454,-1,cs),
(435,-1,o),
(408,2,o),
(378,11,c),
(375,17,o),
(374,27,o),
(374,34,cs),
(374,67,o),
(383,70,o),
(383,104,cs),
(383,150,o),
(349,167,o),
(324,167,cs),
(299,167,o),
(266,150,o),
(266,104,cs),
(266,70,o),
(274,67,o),
(274,34,cs),
(274,27,o),
(274,17,o),
(271,11,c),
(241,2,o),
(213,-1,o),
(194,-1,cs),
(105,-1,o),
(50,74,o)
);
},
{
closed = 1;
nodes = (
(5,270,c),
(5,301,l),
(272,301,l),
(302,276,l),
(144,276,ls),
(75,275,o),
(21,273,o)
);
},
{
closed = 1;
nodes = (
(373,303,c),
(386,307,o),
(410,309,o),
(435,309,cs),
(468,309,o),
(500,304,o),
(513,299,c),
(525,312,o),
(527,326,o),
(527,338,cs),
(527,370,o),
(494,384,o),
(459,384,cs),
(408,384,o),
(378,357,o)
);
}
);
width = 661;
}
);
unicode = 3485;
},
{
glyphname = "ha-sinhala";
lastChange = "2024-02-24 15:47:16 +0000";
layers = (
{
anchors = (
{
name = _cursive;
pos = (42,0);
}
);
layerId = "C18F3EFD-FA9C-4751-AD2F-5B966120D1A5";
shapes = (
{
closed = 1;
nodes = (
(32,151,cs),
(32,240,o),
(97,296,o),
(189,296,cs),
(193,296,o),
(197,296,o),
(201,296,c),
(201,337,o),
(178,374,o),
(141,374,cs),
(120,374,o),
(110,363,o),
(104,348,cs),
(98,332,o),
(85,319,o),
(64,319,cs),
(44,319,o),
(32,333,o),
(32,355,cs),
(32,384,o),
(59,422,o),
(115,422,cs),
(192,422,o),
(232,351,o),
(233,271,c),
(221,272,o),
(211,273,o),
(200,273,cs),
(122,273,o),
(68,239,o),
(68,171,cs),
(68,103,o),
(131,70,o),
(203,70,cs),
(267,70,o),
(322,98,o),
(322,160,cs),
(322,190,o),
(308,207,o),
(288,207,cs),
(275,207,o),
(262,199,o),
(255,178,c),
(233,188,l),
(242,310,o),
(321,422,o),
(420,422,cs),
(529,422,o),
(591,321,o),
(591,206,cs),
(591,90,o),
(504,-1,o),
(384,-1,cs),
(371,-1,o),
(358,0,o),
(344,2,c),
(344,28,l),
(356,26,o),
(367,25,o),
(379,25,cs),
(476,25,o),
(544,91,o),
(544,188,cs),
(544,281,o),
(493,354,o),
(404,354,cs),
(333,354,o),
(286,311,o),
(265,224,c),
(275,230,o),
(284,231,o),
(293,231,cs),
(330,231,o),
(357,195,o),
(357,142,cs),
(357,52,o),
(288,-1,o),
(196,-1,cs),
(100,-1,o),
(32,59,o)
);
}
);
width = 637;
}
);
unicode = 3524;
},
{
glyphname = "i-sinhala";
lastChange = "2024-02-24 15:47:15 +0000";
layers = (
{
layerId = "C18F3EFD-FA9C-4751-AD2F-5B966120D1A5";
shapes = (
{
closed = 1;
nodes = (
(44,161,cs),
(44,191,o),
(54,222,o),
(76,242,cs),
(92,256,o),
(111,266,o),
(136,271,c),
(169,283,o),
(209,295,o),
(245,295,cs),
(257,295,l),
(257,297,o),
(257,299,o),
(257,301,cs),
(257,348,o),
(223,386,o),
(187,386,cs),
(149,386,o),
(139,366,o),
(135,348,cs),
(130,328,o),
(120,315,o),
(99,315,cs),
(83,315,o),
(62,326,o),
(62,352,cs),
(62,394,o),
(104,422,o),
(161,422,cs),
(247,422,o),
(288,354,o),
(288,283,cs),
(288,280,o),
(288,274,o),
(288,271,c),
(226,271,ls),
(183,271,o),
(143,259,o),
(119,243,cs),
(93,226,o),
(80,201,o),
(80,176,cs),
(80,92,o),
(184,69,o),
(272,69,cs),
(421,69,o),
(501,145,o),
(501,261,cs),
(501,317,o),
(484,367,o),
(460,402,c),
(445,370,o),
(416,351,o),
(374,351,cs),
(312,351,o),
(276,405,o),
(276,469,cs),
(276,518,o),
(291,553,o),
(317,583,c),
(377,551,o),
(446,481,o),
(481,420,cs),
(519,355,o),
(532,307,o),
(532,239,cs),
(532,114,o),
(449,0,o),
(270,0,cs),
(152,0,o),
(44,45,o)
);
},
{
closed = 1;
nodes = (
(16,264,c),
(16,295,l),
(255,295,l),
(284,271,l),
(126,271,ls),
(57,270,o),
(32,267,o)
);
},
{
closed = 1;
nodes = (
(306,473,cs),
(306,425,o),
(325,386,o),
(381,386,cs),
(404,386,o),
(431,397,o),
(441,430,c),
(412,475,o),
(363,520,o),
(326,547,c),
(314,529,o),
(306,507,o)
);
}
);
width = 581;
}
);
unicode = 3465;
},
{
glyphname = "ii-sinhala";
lastChange = "2024-02-24 15:47:16 +0000";
layers = (
{
layerId = "C18F3EFD-FA9C-4751-AD2F-5B966120D1A5";
shapes = (
{
closed = 1;
nodes = (
(400,457,cs),
(400,436,o),
(417,420,o),
(438,420,cs),
(459,420,o),
(475,436,o),
(475,457,cs),
(475,478,o),
(459,494,o),
(438,494,cs),
(417,494,o),
(400,478,o)
);
},
{
closed = 1;
nodes = (
(374,457,cs),
(374,492,o),
(403,520,o),
(438,520,cs),
(473,520,o),
(500,492,o),
(500,457,cs),
(500,422,o),
(473,395,o),
(438,395,cs),
(403,395,o),
(374,422,o)
);
},
{
closed = 1;
nodes = (
(142,525,cs),
(142,504,o),
(158,488,o),
(179,488,cs),
(200,488,o),
(216,504,o),
(216,525,cs),
(216,546,o),
(200,562,o),
(179,562,cs),
(158,562,o),
(142,546,o)
);
},
{
closed = 1;
nodes = (
(115,525,cs),
(115,560,o),
(144,588,o),
(179,588,cs),
(214,588,o),
(241,560,o),
(241,525,cs),
(241,490,o),
(214,463,o),
(179,463,cs),
(144,463,o),
(115,490,o)
);
},
{
closed = 1;
nodes = (
(30,208,cs),
(30,315,o),
(93,371,o),
(166,412,cs),
(218,439,o),
(244,454,o),
(301,505,cs),
(347,546,o),
(365,608,o),
(399,608,cs),
(415,608,o),
(422,602,o),
(422,591,cs),
(422,571,o),
(400,543,o),
(352,503,cs),
(320,477,o),
(283,450,o),
(241,426,c),
(246,427,o),
(247,427,o),
(256,427,cs),
(325,427,o),
(379,402,o),
(420,357,cs),
(455,318,o),
(471,275,o),
(471,220,cs),
(471,100,o),
(375,0,o),
(242,0,cs),
(121,0,o),
(30,87,o)
);
},
{
closed = 1;
nodes = (
(64,231,cs),
(64,140,o),
(129,71,o),
(234,71,cs),
(337,71,o),
(420,145,o),
(420,248,cs),
(420,348,o),
(348,404,o),
(258,404,cs),
(163,404,o),
(64,331,o)
);
}
);
width = 515;
}
);
unicode = 3466;
},
{
glyphname = "ja-sinhala";
lastChange = "2024-02-24 15:47:16 +0000";
layers = (
{
anchors = (
{
name = _cursive;
pos = (47,0);
}
);
layerId = "C18F3EFD-FA9C-4751-AD2F-5B966120D1A5";
shapes = (
{
closed = 1;
nodes = (
(32,166,cs),
(32,243,o),
(94,305,o),
(203,305,cs),
(221,305,o),
(221,305,o),
(229,304,c),
(230,311,o),
(231,316,o),
(231,323,cs),
(231,353,o),
(215,382,o),
(179,382,cs),
(158,382,o),
(142,369,o),
(135,354,cs),
(124,331,o),
(115,314,o),
(89,314,cs),
(70,314,o),
(54,329,o),
(54,353,cs),
(54,401,o),
(104,422,o),
(150,422,cs),
(215,422,o),
(260,383,o),
(260,318,cs),
(260,306,o),
(259,294,o),
(256,281,c),
(244,282,o),
(233,283,o),
(224,283,cs),
(108,283,o),
(68,228,o),
(68,182,cs),
(68,95,o),
(184,69,o),
(285,69,cs),
(389,69,o),
(502,95,o),
(502,182,cs),
(502,232,o),
(459,282,o),
(347,282,cs),
(326,282,o),
(307,279,o),
(293,278,c),
(288,294,o),
(286,308,o),
(286,323,cs),
(286,399,o),
(342,424,o),
(409,424,cs),
(449,424,o),
(508,403,o),
(508,345,cs),
(508,317,o),
(491,278,o),
(428,278,cs),
(375,278,o),
(354,324,o),
(354,366,cs),
(354,451,o),
(402,519,o),
(445,558,cs),
(481,591,o),
(511,603,o),
(531,603,cs),
(547,603,o),
(555,592,o),
(555,582,cs),
(555,556,o),
(486,548,o),
(438,499,cs),
(416,477,o),
(382,433,o),
(382,365,cs),
(382,331,o),
(398,304,o),
(430,304,cs),
(458,304,o),
(478,322,o),
(478,347,cs),
(478,379,o),
(448,397,o),
(405,397,cs),
(336,397,o),
(315,365,o),
(315,326,cs),
(315,319,o),
(316,311,o),
(318,302,c),
(326,303,o),
(335,304,o),
(348,304,cs),
(437,304,o),
(536,276,o),
(536,164,cs),
(536,44,o),
(414,0,o),
(291,0,cs),
(156,0,o),
(32,43,o)
);
}
);
width = 583;
}
);
unicode = 3490;
},
{
glyphname = "jha-sinhala";
lastChange = "2024-02-24 15:47:16 +0000";
layers = (
{
anchors = (
{
name = _cursive;
pos = (69,0);
}
);
layerId = "C18F3EFD-FA9C-4751-AD2F-5B966120D1A5";
shapes = (
{
closed = 1;
nodes = (
(68,93,c),
(74,96,o),
(80,98,o),
(87,98,cs),
(115,98,o),
(138,69,o),
(194,69,cs),
(244,69,o),
(274,99,o),
(274,158,cs),
(274,160,o),
(274,157,o),
(274,159,c),
(300,159,l),
(300,158,o),
(300,159,o),
(300,158,cs),
(300,95,o),
(326,69,o),
(383,69,cs),
(444,69,o),
(463,120,o),
(463,155,cs),
(463,236,o),
(392,284,o),
(291,284,cs),
(235,284,o),
(199,276,o),
(178,267,c),
(161,252,o),
(142,229,o),
(126,207,cs),
(98,167,o),
(79,129,o)
);
},
{
closed = 1;
nodes = (
(21,21,l),
(29,88,o),
(72,180,o),
(106,227,cs),
(131,262,o),
(146,275,o),
(164,294,c),
(176,307,o),
(188,323,o),
(188,344,cs),
(188,365,o),
(178,383,o),
(154,383,cs),
(140,383,o),
(119,375,o),
(113,354,cs),
(106,332,o),
(111,332,o),
(104,315,cs),
(97,297,o),
(82,290,o),
(67,290,cs),
(34,290,o),
(28,320,o),
(28,332,cs),
(28,385,o),
(77,423,o),
(133,423,cs),
(182,423,o),
(215,393,o),
(215,348,cs),
(215,343,o),
(215,338,o),
(214,333,c),
(274,388,o),
(362,424,o),
(464,424,cs),
(562,424,o),
(627,405,o),
(655,389,c),
(600,381,l),
(557,393,o),
(506,396,o),
(463,396,cs),
(334,396,o),
(261,342,o),
(214,301,c),
(237,307,o),
(269,309,o),
(295,309,cs),
(412,309,o),
(503,245,o),
(503,123,cs),
(503,66,o),
(471,-1,o),
(388,-1,cs),
(343,-1,o),
(310,20,o),
(289,62,c),
(272,22,o),
(240,-1,o),
(199,-1,cs),
(114,-1,o),
(117,71,o),
(85,71,cs),
(64,71,o),
(49,50,o),
(46,11,c)
);
},
{
closed = 1;
nodes = (
(472,190,cs),
(472,281,o),
(524,356,o),
(588,378,cs),
(609,385,o),
(631,389,o),
(655,389,c),
(655,364,l),
(652,364,o),
(649,364,o),
(646,364,cs),
(569,364,o),
(505,294,o),
(505,207,cs),
(505,133,o),
(552,69,o),
(623,69,cs),
(673,69,o),
(723,90,o),
(723,152,cs),
(723,191,l),
(750,191,l),
(750,152,ls),
(750,90,o),
(799,69,o),
(847,69,cs),
(941,69,o),
(981,176,o),
(981,277,cs),
(981,431,o),
(871,543,o),
(727,543,cs),
(648,543,o),
(586,515,o),
(534,457,c),
(503,457,l),
(559,530,o),
(634,566,o),
(731,566,cs),
(890,566,o),
(1015,436,o),
(1015,255,cs),
(1015,136,o),
(975,0,o),
(852,0,cs),
(804,0,o),
(764,20,o),
(735,58,c),
(705,20,o),
(669,0,o),
(625,0,cs),
(525,0,o),
(472,93,o)
);
}
);
width = 1061;
}
);
unicode = 3491;
},
{
glyphname = "jnya-sinhala";
lastChange = "2024-02-24 15:47:16 +0000";
layers = (
{
anchors = (
{
name = _cursive;
pos = (51,0);
}
);
layerId = "C18F3EFD-FA9C-4751-AD2F-5B966120D1A5";
shapes = (
{
closed = 1;
nodes = (
(411,165,cs),
(411,268,o),
(483,310,o),
(599,310,cs),
(716,310,l),
(706,355,o),
(678,387,o),
(635,387,cs),
(616,387,o),
(601,375,o),
(592,357,cs),
(582,336,o),
(567,328,o),
(552,328,cs),
(528,328,o),
(515,342,o),
(515,363,cs),
(515,398,o),
(553,423,o),
(607,423,cs),
(691,423,o),
(733,380,o),
(751,287,c),
(617,287,ls),
(531,287,o),
(486,251,o),
(486,169,cs),
(486,87,o),
(555,26,o),
(636,26,cs),
(681,26,o),
(717,45,o),
(756,90,c),
(778,73,l),
(748,38,o),
(680,-28,o),
(680,-102,cs),
(680,-166,o),
(718,-190,o),
(780,-205,c),
(780,-232,l),
(766,-235,o),
(749,-236,o),
(728,-236,cs),
(659,-234,o),
(624,-195,o),
(624,-139,cs),
(624,-101,o),
(646,-52,o),
(692,10,c),
(658,0,o),
(635,-1,o),
(609,-1,cs),
(481,-1,o),
(411,67,o)
);
},
{
closed = 1;
nodes = (
(131,202,cs),
(131,322,o),
(204,422,o),
(312,422,cs),
(316,422,o),
(321,421,o),
(325,421,c),
(325,398,l),
(322,398,o),
(317,398,o),
(314,398,cs),
(230,398,o),
(165,325,o),
(165,225,cs),
(165,144,o),
(212,69,o),
(299,69,cs),
(357,69,o),
(408,96,o),
(408,154,cs),
(408,191,o),
(388,212,o),
(358,212,cs),
(351,212,o),
(341,209,o),
(336,205,c),
(335,199,o),
(334,191,o),
(334,188,c),
(308,188,l),
(322,344,o),
(397,428,o),
(547,428,cs),
(577,428,o),
(626,426,o),
(658,416,c),
(540,399,l),
(534,399,o),
(531,400,o),
(525,400,cs),
(421,400,o),
(360,332,o),
(339,230,c),
(347,234,o),
(354,235,o),
(361,235,cs),
(408,235,o),
(441,197,o),
(441,133,cs),
(441,55,o),
(386,-2,o),
(301,-2,cs),
(193,-2,o),
(131,94,o)
);
},
{
closed = 1;
nodes = (
(26,216,cs),
(26,345,o),
(97,423,o),
(233,423,cs),
(242,423,o),
(294,424,o),
(316,422,c),
(312,422,o),
(226,396,o),
(226,396,c),
(95,396,o),
(55,305,o),
(55,213,cs),
(55,134,o),
(81,73,o),
(132,29,c),
(132,0,l),
(68,32,o),
(26,117,o)
);
}
);
width = 822;
}
);
unicode = 3493;
},
{
glyphname = "ka-sinhala";
lastChange = "2024-02-24 15:47:16 +0000";
layers = (
{
anchors = (
{
name = _cursive;
pos = (67,-1);
}
);
layerId = "C18F3EFD-FA9C-4751-AD2F-5B966120D1A5";
shapes = (
{
closed = 1;
nodes = (
(21,21,l),
(29,88,o),
(72,180,o),
(106,227,cs),
(131,262,o),
(146,275,o),
(164,294,c),
(176,307,o),
(188,323,o),
(188,344,cs),
(188,365,o),
(178,383,o),
(154,383,cs),
(140,383,o),
(119,375,o),
(113,354,cs),
(106,332,o),
(111,332,o),
(104,315,cs),
(97,297,o),
(82,290,o),
(67,290,cs),
(34,290,o),
(28,320,o),
(28,332,cs),
(28,385,o),
(77,423,o),
(133,423,cs),
(182,423,o),
(215,393,o),
(215,348,cs),
(215,343,o),
(215,338,o),
(214,333,c),
(275,392,o),
(357,424,o),
(442,424,cs),
(588,424,o),
(685,321,o),
(685,188,cs),
(685,108,o),
(644,-1,o),
(543,-1,cs),
(527,-1,o),
(506,2,o),
(494,11,c),
(494,37,l),
(504,30,o),
(521,25,o),
(544,25,cs),
(593,25,o),
(634,78,o),
(634,149,cs),
(634,278,o),
(522,359,o),
(391,359,cs),
(320,359,o),
(260,340,o),
(214,301,c),
(237,307,o),
(269,309,o),
(295,309,cs),
(412,309,o),
(503,245,o),
(503,123,cs),
(503,66,o),
(471,-1,o),
(388,-1,cs),
(343,-1,o),
(310,20,o),
(289,62,c),
(272,22,o),
(240,-1,o),
(199,-1,cs),
(114,-1,o),
(117,71,o),
(85,71,cs),
(64,71,o),
(49,50,o),
(46,11,c)
);
},
{
closed = 1;
nodes = (
(98,167,o),
(79,129,o),
(68,93,c),
(74,96,o),
(80,98,o),
(87,98,cs),
(115,98,o),
(138,69,o),
(194,69,cs),
(244,69,o),
(274,99,o),
(274,158,cs),
(274,160,o),
(274,157,o),
(274,159,c),
(300,159,l),
(300,158,o),
(300,159,o),
(300,158,cs),
(300,95,o),
(326,69,o),
(383,69,cs),
(444,69,o),
(463,120,o),
(463,155,cs),
(463,236,o),
(392,284,o),
(291,284,cs),
(235,284,o),
(199,276,o),
(178,267,c),
(161,252,o),
(142,229,o),
(126,207,cs)
);
}
);
width = 728;
}
);
unicode = 3482;
},
{
glyphname = "kha-sinhala";
lastChange = "2024-02-24 15:47:16 +0000";
layers = (
{
anchors = (
{
name = _cursive;
pos = (38,0);
}
);
layerId = "C18F3EFD-FA9C-4751-AD2F-5B966120D1A5";
shapes = (
{
closed = 1;
nodes = (
(91,70,cs),
(91,47,o),
(110,28,o),
(133,28,cs),
(156,28,o),
(175,47,o),
(175,70,cs),
(175,93,o),
(156,112,o),
(133,112,cs),
(110,112,o),
(91,93,o)
);
},
{
closed = 1;
nodes = (
(31,179,cs),
(31,315,o),
(121,387,o),
(234,387,cs),
(325,387,o),
(403,335,o),
(403,252,cs),
(403,196,o),
(376,149,o),
(338,112,c),
(341,113,o),
(344,113,o),
(347,113,cs),
(375,113,o),
(381,65,o),
(424,65,cs),
(488,65,o),
(533,193,o),
(533,294,cs),
(533,456,o),
(434,562,o),
(287,562,cs),
(200,562,o),
(136,530,o),
(95,459,c),
(62,459,l),
(106,540,o),
(182,587,o),
(291,587,cs),
(453,587,o),
(570,462,o),
(570,279,cs),
(570,146,o),
(511,0,o),
(406,0,cs),
(344,0,o),
(339,53,o),
(313,53,cs),
(300,53,o),
(275,33,o),
(234,-21,c),
(199,-18,l),
(212,-5,o),
(240,33,o),
(281,82,cs),
(332,143,o),
(358,190,o),
(358,227,cs),
(358,280,o),
(320,312,o),
(230,312,cs),
(152,312,o),
(62,265,o),
(62,152,cs),
(62,140,o),
(64,116,o),
(70,99,c),
(78,126,o),
(106,142,o),
(132,142,cs),
(177,142,o),
(205,113,o),
(205,70,cs),
(205,36,o),
(176,-1,o),
(138,-1,cs),
(55,-1,o),
(31,106,o)
);
}
);
width = 615;
}
);
unicode = 3483;
},
{
glyphname = "la-sinhala";
lastChange = "2024-02-24 15:47:16 +0000";
layers = (
{
anchors = (
{
name = _cursive;
pos = (43,0);
}
);
layerId = "C18F3EFD-FA9C-4751-AD2F-5B966120D1A5";
shapes = (
{
closed = 1;
nodes = (
(30,132,cs),
(30,316,o),
(165,422,o),
(355,422,cs),
(476,422,o),
(597,383,o),
(597,273,cs),
(597,205,o),
(540,167,o),
(474,167,cs),
(408,167,o),
(359,207,o),
(359,275,c),
(259,275,l),
(259,301,l),
(506,301,l),
(506,275,l),
(387,275,l),
(387,274,o),
(387,272,o),
(387,271,cs),
(387,236,o),
(428,211,o),
(475,211,cs),
(529,211,o),
(562,239,o),
(562,287,cs),
(562,364,o),
(477,395,o),
(361,395,cs),
(215,395,o),
(104,292,o),
(104,157,cs),
(104,-6,o),
(215,-108,o),
(372,-108,cs),
(476,-108,o),
(580,-49,o),
(580,64,cs),
(580,70,o),
(578,78,o),
(576,82,c),
(609,82,l),
(609,77,o),
(609,73,o),
(609,68,cs),
(609,-71,o),
(489,-150,o),
(353,-150,cs),
(176,-150,o),
(30,-56,o)
);
}
);
width = 654;
}
);
unicode = 3517;
},
{
glyphname = "lla-sinhala";
lastChange = "2024-02-24 15:47:16 +0000";
layers = (
{
anchors = (
{
name = _cursive;
pos = (49,0);
}
);
layerId = "C18F3EFD-FA9C-4751-AD2F-5B966120D1A5";
shapes = (
{
closed = 1;
nodes = (
(30,111,cs),
(30,187,o),
(78,290,o),
(175,290,cs),
(529,290,l),
(529,344,o),
(498,394,o),
(434,394,cs),
(389,394,o),
(355,357,o),
(355,322,c),
(325,322,l),
(325,357,o),
(295,395,o),
(253,395,cs),
(198,395,o),
(153,354,o),
(153,270,cs),
(153,161,o),
(237,102,o),
(326,102,cs),
(406,102,o),
(460,126,o),
(485,166,c),
(514,166,l),
(491,89,o),
(427,42,o),
(326,42,cs),
(213,42,o),
(123,135,o),
(123,268,cs),
(123,365,o),
(183,422,o),
(254,422,cs),
(289,422,o),
(325,405,o),
(341,368,c),
(359,405,o),
(400,422,o),
(435,422,cs),
(520,422,o),
(562,354,o),
(562,265,c),
(188,265,ls),
(147,265,o),
(94,229,o),
(94,139,cs),
(94,-11,o),
(218,-105,o),
(364,-105,cs),
(474,-105,o),
(574,-30,o),
(577,72,c),
(604,72,l),
(604,-67,o),
(461,-149,o),
(335,-149,cs),
(164,-149,o),
(30,-56,o)
);
}
);
width = 621;
}
);
unicode = 3525;
},
{
glyphname = "ma-sinhala";
lastChange = "2024-02-24 15:47:16 +0000";
layers = (
{
anchors = (
{
name = _cursive;
pos = (47,0);
}
);
layerId = "C18F3EFD-FA9C-4751-AD2F-5B966120D1A5";
shapes = (
{
closed = 1;
nodes = (
(258,344,cs),
(258,318,o),
(280,296,o),
(306,296,cs),
(332,296,o),
(354,318,o),
(354,344,cs),
(354,370,o),
(332,392,o),
(306,392,cs),
(280,392,o),
(258,370,o)
);
},
{
closed = 1;
nodes = (
(32,244,cs),
(32,331,o),
(77,422,o),
(152,422,cs),
(200,422,o),
(204,388,o),
(204,364,cs),
(204,338,o),
(199,330,o),
(199,295,cs),
(199,241,o),
(239,213,o),
(293,213,cs),
(352,213,o),
(392,249,o),
(392,307,cs),
(392,334,o),
(383,350,o),
(378,357,c),
(380,347,o),
(380,343,o),
(380,335,cs),
(380,299,o),
(353,265,o),
(306,265,cs),
(256,265,o),
(228,308,o),
(228,343,cs),
(228,388,o),
(264,422,o),
(311,422,cs),
(378,422,o),
(421,373,o),
(421,299,cs),
(421,232,o),
(366,182,o),
(295,182,cs),
(236,182,o),
(169,211,o),
(169,288,cs),
(169,326,o),
(176,340,o),
(176,370,cs),
(176,382,o),
(171,396,o),
(150,396,cs),
(103,396,o),
(66,338,o),
(66,261,cs),
(66,131,o),
(169,69,o),
(301,69,cs),
(440,69,o),
(537,162,o),
(537,300,cs),
(537,434,o),
(434,547,o),
(296,547,cs),
(217,547,o),
(154,519,o),
(107,458,c),
(76,458,l),
(124,531,o),
(204,572,o),
(295,572,cs),
(451,572,o),
(571,443,o),
(571,285,cs),
(571,107,o),
(464,0,o),
(303,0,cs),
(140,0,o),
(32,92,o)
);
}
);
width = 616;
}
);
unicode = 3512;
},
{
glyphname = "mba-sinhala";
lastChange = "2024-02-24 15:47:16 +0000";
layers = (
{
anchors = (
{
name = _cursive;
pos = (35,2);
}
);
layerId = "C18F3EFD-FA9C-4751-AD2F-5B966120D1A5";
shapes = (
{
closed = 1;
nodes = (
(29,222,cs),
(29,325,o),
(73,422,o),
(145,422,cs),
(164,422,o),
(169,418,o),
(176,413,cs),
(187,405,o),
(194,391,o),
(194,362,cs),
(194,348,o),
(194,332,o),
(194,329,cs),
(194,277,o),
(234,247,o),
(288,247,cs),
(340,247,o),
(380,274,o),
(380,318,cs),
(380,319,o),
(380,321,o),
(379,323,c),
(373,310,o),
(351,282,o),
(311,282,cs),
(265,282,o),
(239,317,o),
(239,352,cs),
(239,393,o),
(270,424,o),
(314,424,cs),
(372,424,o),
(408,380,o),
(408,322,cs),
(408,261,o),
(358,219,o),
(289,219,cs),
(220,219,o),
(168,261,o),
(168,331,cs),
(168,336,o),
(168,354,o),
(168,363,cs),
(168,383,o),
(164,396,o),
(142,396,cs),
(92,396,o),
(60,319,o),
(60,248,cs),
(60,155,o),
(106,70,o),
(187,70,cs),
(208,70,o),
(216,74,o),
(220,77,c),
(218,85,o),
(217,98,o),
(217,105,cs),
(217,175,o),
(271,195,o),
(303,195,cs),
(335,195,o),
(389,175,o),
(389,105,cs),
(389,98,o),
(388,85,o),
(386,77,c),
(390,74,o),
(398,70,o),
(419,70,cs),
(486,70,o),
(541,177,o),
(541,279,cs),
(541,423,o),
(447,543,o),
(291,543,cs),
(194,543,o),
(137,513,o),
(91,455,c),
(61,455,l),
(105,518,o),
(169,565,o),
(293,565,cs),
(477,565,o),
(576,421,o),
(576,248,cs),
(576,124,o),
(517,0,o),
(404,0,cs),
(381,0,o),
(363,4,o),
(342,17,c),
(342,29,o),
(345,38,o),
(348,49,cs),
(354,66,o),
(360,83,o),
(360,105,cs),
(360,138,o),
(337,167,o),
(303,167,cs),
(269,167,o),
(245,138,o),
(245,105,cs),
(245,83,o),
(252,68,o),
(257,51,cs),
(261,40,o),
(264,30,o),
(264,17,c),
(243,4,o),
(224,0,o),
(201,0,cs),
(86,0,o),
(29,115,o)
);
},
{
closed = 1;
nodes = (
(268,354,cs),
(268,329,o),
(288,309,o),
(313,309,cs),
(338,309,o),
(359,329,o),
(359,354,cs),
(359,379,o),
(338,400,o),
(313,400,cs),
(288,400,o),
(268,379,o)
);
}
);
width = 621;
}
);
unicode = 3513;
},
{
glyphname = "na-sinhala";
lastChange = "2024-02-24 15:47:16 +0000";
layers = (
{
anchors = (
{
name = _cursive;
pos = (76,1);
}
);
layerId = "C18F3EFD-FA9C-4751-AD2F-5B966120D1A5";
shapes = (
{
closed = 1;
nodes = (
(26,121,c),
(40,115,o),
(52,112,o),
(62,112,cs),
(122,112,o),
(127,196,o),
(202,271,c),
(217,286,o),
(221,306,o),
(221,319,cs),
(221,356,o),
(205,380,o),
(172,380,cs),
(144,380,o),
(132,358,o),
(131,337,cs),
(130,318,o),
(122,290,o),
(91,290,cs),
(68,290,o),
(54,308,o),
(54,333,cs),
(54,374,o),
(87,421,o),
(150,421,cs),
(218,421,o),
(247,371,o),
(247,325,cs),
(247,324,o),
(247,315,o),
(245,308,c),
(295,367,o),
(391,423,o),
(494,423,cs),
(631,423,o),
(742,327,o),
(742,179,cs),
(742,62,o),
(671,-1,o),
(599,-1,cs),
(568,-1,o),
(542,10,o),
(529,21,c),
(529,51,l),
(552,30,o),
(578,25,o),
(596,25,cs),
(646,25,o),
(688,69,o),
(688,146,cs),
(688,287,o),
(557,361,o),
(438,361,cs),
(367,361,o),
(303,337,o),
(260,288,c),
(285,297,o),
(310,301,o),
(337,301,cs),
(419,301,o),
(486,243,o),
(486,165,cs),
(486,52,o),
(389,-1,o),
(270,-1,cs),
(147,-1,o),
(65,40,o)
);
},
{
closed = 1;
nodes = (
(104,100,c),
(149,80,o),
(201,70,o),
(258,70,cs),
(365,70,o),
(443,108,o),
(443,186,cs),
(443,241,o),
(390,277,o),
(330,277,cs),
(156,277,o),
(175,141,o)
);
}
);
width = 787;
}
);
unicode = 3505;
},
{
glyphname = "nda-sinhala";
lastChange = "2024-02-24 15:47:19 +0000";
layers = (
{
layerId = "C18F3EFD-FA9C-4751-AD2F-5B966120D1A5";
shapes = (
{
closed = 1;
nodes = (
(26,121,c),
(40,115,o),
(52,112,o),
(62,112,cs),
(122,112,o),
(127,196,o),
(202,271,c),
(217,286,o),
(221,306,o),
(221,319,cs),
(221,356,o),
(205,380,o),
(172,380,cs),
(144,380,o),
(132,358,o),
(131,337,cs),
(130,318,o),
(122,290,o),
(91,290,cs),
(68,290,o),
(54,308,o),
(54,333,cs),
(54,374,o),
(87,421,o),
(150,421,cs),
(218,421,o),
(247,371,o),
(247,325,cs),
(247,324,o),
(247,315,o),
(245,308,c),
(301,361,o),
(391,426,o),
(577,426,cs),
(601,426,o),
(659,426,o),
(693,419,c),
(592,398,l),
(583,398,o),
(581,399,o),
(571,399,cs),
(418,399,o),
(331,352,o),
(260,288,c),
(285,297,o),
(310,301,o),
(337,301,cs),
(419,301,o),
(486,243,o),
(486,165,cs),
(486,52,o),
(389,-1,o),
(270,-1,cs),
(147,-1,o),
(65,40,o)
);
},
{
closed = 1;
nodes = (
(104,100,c),
(149,80,o),
(201,70,o),
(258,70,cs),
(365,70,o),
(443,108,o),
(443,186,cs),
(443,241,o),
(390,277,o),
(330,277,cs),
(156,277,o),
(175,141,o)
);
},
{
pos = (429,0);
ref = "da-sinhala";
}
);
width = 873;
}
);
unicode = 3507;
},
{
glyphname = "nga-sinhala";
lastChange = "2024-02-24 15:47:16 +0000";
layers = (
{
anchors = (
{
name = _cursive;
pos = (42,0);
}
);
layerId = "C18F3EFD-FA9C-4751-AD2F-5B966120D1A5";
shapes = (
{
closed = 1;
nodes = (
(86,339,cs),
(86,313,o),
(110,291,o),
(139,291,cs),
(168,291,o),
(190,313,o),
(190,339,cs),
(190,365,o),
(168,387,o),
(139,387,cs),
(110,387,o),
(86,365,o)
);
},
{
closed = 1;
nodes = (
(45,457,l),
(103,531,o),
(179,568,o),
(274,568,cs),
(430,568,o),
(557,435,o),
(557,254,cs),
(557,111,o),
(504,0,o),
(406,0,cs),
(345,0,o),
(321,21,o),
(291,58,c),
(261,20,o),
(228,0,o),
(184,0,cs),
(105,0,o),
(50,59,o),
(50,137,cs),
(50,207,o),
(107,252,o),
(175,252,cs),
(210,252,o),
(239,245,o),
(273,245,cs),
(318,245,o),
(335,268,o),
(335,303,cs),
(335,373,o),
(261,401,o),
(209,401,cs),
(195,401,o),
(186,400,o),
(178,399,c),
(197,389,o),
(217,371,o),
(217,337,cs),
(217,302,o),
(185,266,o),
(138,266,cs),
(98,266,o),
(59,296,o),
(59,338,cs),
(59,393,o),
(117,424,o),
(203,424,cs),
(304,424,o),
(363,369,o),
(363,299,cs),
(363,259,o),
(338,219,o),
(273,219,cs),
(233,219,o),
(219,225,o),
(177,225,cs),
(129,225,o),
(87,199,o),
(87,152,cs),
(87,101,o),
(127,69,o),
(182,69,cs),
(230,69,o),
(277,94,o),
(277,141,cs),
(277,173,l),
(304,173,l),
(304,141,ls),
(304,96,o),
(353,68,o),
(402,68,cs),
(480,68,o),
(522,156,o),
(522,275,cs),
(522,428,o),
(415,545,o),
(271,545,cs),
(194,545,o),
(129,516,o),
(76,457,c)
);
}
);
width = 602;
}
);
unicode = 3486;
},
{
glyphname = "nna-sinhala";
lastChange = "2024-02-24 15:47:16 +0000";
layers = (
{
anchors = (
{
name = _cursive;
pos = (51,0);
}
);
layerId = "C18F3EFD-FA9C-4751-AD2F-5B966120D1A5";
shapes = (
{
closed = 1;
nodes = (
(21,174,l),
(208,299,o),
(416,393,o),
(638,472,cs),
(709,497,o),
(778,515,o),
(809,515,cs),
(831,515,o),
(843,506,o),
(843,488,cs),
(843,473,o),
(831,464,o),
(809,459,cs),
(781,454,o),
(733,445,o),
(667,433,cs),
(480,399,o),
(271,294,o),
(112,203,c),
(172,203,o),
(190,71,o),
(342,71,cs),
(446,71,o),
(536,129,o),
(536,231,cs),
(536,322,o),
(471,398,o),
(349,398,cs),
(263,398,o),
(194,351,o),
(194,281,cs),
(194,208,o),
(257,178,o),
(314,178,c),
(396,174,l),
(375,160,o),
(353,152,o),
(313,152,cs),
(226,152,o),
(166,203,o),
(166,276,cs),
(166,373,o),
(252,423,o),
(351,423,cs),
(430,423,o),
(570,381,o),
(570,208,cs),
(570,111,o),
(507,0,o),
(356,0,cs),
(163,0,o),
(176,177,o),
(97,177,cs),
(70,177,o),
(53,164,o),
(32,150,c)
);
},
{
closed = 1;
nodes = (
(301,159,o),
(261,199,o),
(261,247,cs),
(261,295,o),
(301,335,o),
(349,335,cs),
(397,335,o),
(437,295,o),
(437,247,cs),
(437,199,o),
(397,159,o),
(349,159,cs)
);
},
{
closed = 1;
nodes = (
(316,308,o),
(289,281,o),
(289,248,cs),
(289,215,o),
(316,188,o),
(349,188,cs),
(382,188,o),
(408,215,o),
(408,248,cs),
(408,281,o),
(382,308,o),
(349,308,cs)
);
},
{
closed = 1;
nodes = (
(577,35,o),
(536,90,o),
(536,157,cs),
(536,224,o),
(577,279,o),
(630,279,cs),
(662,279,o),
(686,266,o),
(702,245,c),
(706,293,o),
(736,340,o),
(796,340,cs),
(860,340,o),
(894,259,o),
(894,164,cs),
(894,71,o),
(862,-1,o),
(781,-1,cs),
(730,-1,o),
(702,32,o),
(697,66,c),
(681,46,o),
(658,35,o),
(630,35,cs)
);
},
{
closed = 1;
nodes = (
(593,250,o),
(563,209,o),
(563,158,cs),
(563,107,o),
(593,66,o),
(629,66,cs),
(670,66,o),
(694,102,o),
(694,158,cs),
(694,217,o),
(673,250,o),
(629,250,cs)
);
},
{
closed = 1;
nodes = (
(717,103,o),
(717,104,o),
(717,103,cs),
(717,43,o),
(751,33,o),
(773,33,cs),
(823,33,o),
(832,93,o),
(832,165,cs),
(832,239,o),
(816,302,o),
(780,302,cs),
(738,302,o),
(724,257,o),
(721,197,cs),
(723,185,o),
(724,172,o),
(724,157,cs),
(724,137,o),
(722,120,o),
(717,104,cs)
);
}
);
width = 940;
}
);
unicode = 3499;
},
{
glyphname = "nndda-sinhala";
lastChange = "2024-02-24 15:47:16 +0000";
layers = (
{
anchors = (
{
name = _cursive;
pos = (36,0);
}
);
layerId = "C18F3EFD-FA9C-4751-AD2F-5B966120D1A5";
shapes = (
{
closed = 1;
nodes = (
(100,281,l),
(100,308,l),
(340,308,l),
(337,350,o),
(307,382,o),
(278,382,cs),
(260,382,o),
(246,377,o),
(232,354,cs),
(221,335,o),
(209,331,o),
(195,331,cs),
(175,331,o),
(159,344,o),
(159,365,cs),
(159,404,o),
(205,422,o),
(246,422,cs),
(328,422,o),
(372,365,o),
(373,281,c),
(300,281,ls),
(209,281,o),
(166,225,o),
(166,170,cs),
(166,119,o),
(205,69,o),
(278,69,cs),
(326,69,o),
(377,93,o),
(377,140,cs),
(377,174,l),
(403,174,l),
(403,140,ls),
(403,95,o),
(450,69,o),
(499,69,cs),
(593,69,o),
(634,163,o),
(634,267,cs),
(634,418,o),
(530,543,o),
(376,543,cs),
(298,543,o),
(234,513,o),
(188,457,c),
(156,457,l),
(209,533,o),
(290,568,o),
(382,568,cs),
(553,568,o),
(669,434,o),
(669,252,cs),
(669,123,o),
(619,0,o),
(503,0,cs),
(440,0,o),
(412,29,o),
(391,58,c),
(362,22,o),
(329,0,o),
(279,0,cs),
(180,0,o),
(130,79,o),
(130,158,cs),
(130,207,o),
(154,258,o),
(207,281,c)
);
},
{
closed = 1;
nodes = (
(26,216,cs),
(26,345,o),
(97,423,o),
(233,423,cs),
(242,423,o),
(265,423,o),
(286,417,c),
(265,406,o),
(190,397,o),
(173,391,c),
(100,373,o),
(55,312,o),
(55,213,cs),
(55,134,o),
(81,73,o),
(132,29,c),
(132,0,l),
(68,32,o),
(26,117,o)
);
}
);
width = 713;
}
);
unicode = 3500;
},
{
glyphname = "nnga-sinhala";
lastChange = "2024-02-24 15:47:16 +0000";
layers = (
{
anchors = (
{
name = _cursive;
pos = (42,0);
}
);
layerId = "C18F3EFD-FA9C-4751-AD2F-5B966120D1A5";
shapes = (
{
closed = 1;
nodes = (
(147,202,cs),
(147,322,o),
(221,422,o),
(329,422,cs),
(333,422,o),
(338,421,o),
(342,421,c),
(342,398,l),
(339,398,o),
(334,398,o),
(331,398,cs),
(247,398,o),
(182,325,o),
(182,225,cs),
(182,144,o),
(228,69,o),
(315,69,cs),
(373,69,o),
(425,96,o),
(425,154,cs),
(425,191,o),
(405,212,o),
(375,212,cs),
(368,212,o),
(359,210,o),
(352,205,c),
(351,199,o),
(350,191,o),
(350,188,c),
(325,188,l),
(335,310,o),
(396,422,o),
(515,422,cs),
(624,422,o),
(687,324,o),
(687,212,cs),
(687,93,o),
(603,-1,o),
(475,-1,cs),
(465,-1,o),
(455,0,o),
(444,1,c),
(444,25,l),
(452,24,o),
(460,23,o),
(468,23,cs),
(572,23,o),
(645,97,o),
(645,195,cs),
(645,294,o),
(587,362,o),
(498,362,cs),
(423,362,o),
(371,305,o),
(355,230,c),
(363,234,o),
(371,235,o),
(378,235,cs),
(425,235,o),
(458,197,o),
(458,133,cs),
(458,55,o),
(402,-2,o),
(317,-2,cs),
(209,-2,o),
(147,94,o)
);
},
{
closed = 1;
nodes = (
(26,216,cs),
(26,345,o),
(97,423,o),
(233,423,cs),
(242,423,o),
(304,424,o),
(329,422,c),
(308,411,o),
(267,405,o),
(250,399,c),
(117,399,o),
(55,334,o),
(55,213,cs),
(55,134,o),
(81,73,o),
(132,29,c),
(132,0,l),
(68,32,o),
(26,117,o)
);
}
);
width = 731;
}
);
unicode = 3487;
},
{
glyphname = "nya-sinhala";
lastChange = "2024-02-24 15:47:16 +0000";
layers = (
{
anchors = (
{
name = _cursive;
pos = (42,0);
}
);
layerId = "C18F3EFD-FA9C-4751-AD2F-5B966120D1A5";
shapes = (
{
closed = 1;
nodes = (
(589,164,cs),
(589,267,o),
(660,309,o),
(776,309,cs),
(894,309,l),
(884,354,o),
(833,387,o),
(790,387,cs),
(771,387,o),
(757,375,o),
(748,357,cs),
(738,336,o),
(722,328,o),
(707,328,cs),
(683,328,o),
(670,342,o),
(670,363,cs),
(670,398,o),
(709,422,o),
(763,422,cs),
(847,422,o),
(911,380,o),
(929,287,c),
(795,287,ls),
(709,287,o),
(664,250,o),
(664,168,cs),
(664,86,o),
(732,25,o),
(813,25,cs),
(858,25,o),
(895,45,o),
(934,90,c),
(956,72,l),
(926,37,o),
(857,-28,o),
(857,-102,cs),
(857,-166,o),
(896,-190,o),
(958,-205,c),
(958,-232,l),
(944,-235,o),
(926,-236,o),
(905,-236,cs),
(836,-234,o),
(802,-195,o),
(802,-139,cs),
(802,-101,o),
(824,-52,o),
(870,10,c),
(836,0,o),
(813,-2,o),
(787,-2,cs),
(659,-2,o),
(589,66,o)
);
},
{
closed = 1;
nodes = (
(190,93,c),
(196,96,o),
(202,98,o),
(209,98,cs),
(237,98,o),
(260,69,o),
(316,69,cs),
(366,69,o),
(396,99,o),
(396,158,cs),
(396,160,o),
(396,157,o),
(396,159,c),
(422,159,l),
(422,158,o),
(422,159,o),
(422,158,cs),
(422,95,o),
(448,69,o),
(505,69,cs),
(566,69,o),
(585,120,o),
(585,155,cs),
(585,236,o),
(514,284,o),
(413,284,cs),
(357,284,o),
(321,276,o),
(300,267,c),
(283,252,o),
(264,229,o),
(248,207,cs),
(220,167,o),
(201,129,o)
);
},
{
closed = 1;
nodes = (
(143,21,l),
(151,88,o),
(195,180,o),
(229,227,cs),
(254,262,o),
(268,275,o),
(286,294,c),
(298,307,o),
(311,323,o),
(311,344,cs),
(311,365,o),
(300,383,o),
(276,383,cs),
(262,383,o),
(241,375,o),
(235,354,cs),
(228,332,o),
(233,332,o),
(226,315,cs),
(219,297,o),
(204,290,o),
(189,290,cs),
(156,290,o),
(150,320,o),
(150,332,cs),
(150,385,o),
(199,423,o),
(255,423,cs),
(304,423,o),
(337,393,o),
(337,348,cs),
(337,343,o),
(337,338,o),
(336,333,c),
(363,354,o),
(400,379,o),
(469,402,cs),
(538,425,o),
(594,432,o),
(673,432,cs),
(699,432,o),
(766,429,o),
(809,417,c),
(708,404,l),
(697,405,o),
(677,405,o),
(667,405,cs),
(619,405,o),
(582,402,o),
(551,396,cs),
(470,381,o),
(409,357,o),
(336,301,c),
(359,307,o),
(391,309,o),
(417,309,cs),
(534,309,o),
(625,245,o),
(625,123,cs),
(625,66,o),
(593,-1,o),
(510,-1,cs),
(465,-1,o),
(432,20,o),
(411,62,c),
(394,22,o),
(362,-1,o),
(321,-1,cs),
(236,-1,o),
(239,71,o),
(207,71,cs),
(186,71,o),
(171,50,o),
(168,11,c)
);
},
{
closed = 1;
nodes = (
(26,216,cs),
(26,345,o),
(97,424,o),
(233,424,cs),
(242,424,o),
(265,424,o),
(286,418,c),
(265,407,o),
(190,397,o),
(173,391,c),
(100,373,o),
(55,312,o),
(55,213,cs),
(55,134,o),
(81,73,o),
(132,29,c),
(132,0,l),
(68,32,o),
(26,117,o)
);
}
);
width = 1000;
}
);
unicode = 3492;
},
{
glyphname = "nyja-sinhala";
lastChange = "2024-02-24 15:47:16 +0000";
layers = (
{
anchors = (
{
name = _cursive;
pos = (42,0);
}
);
layerId = "C18F3EFD-FA9C-4751-AD2F-5B966120D1A5";
shapes = (
{
closed = 1;
nodes = (
(131,166,cs),
(131,243,o),
(193,305,o),
(302,305,cs),
(320,305,o),
(320,305,o),
(328,304,c),
(329,311,o),
(330,316,o),
(330,323,cs),
(330,353,o),
(313,382,o),
(277,382,cs),
(256,382,o),
(240,369,o),
(233,354,cs),
(222,331,o),
(214,314,o),
(188,314,cs),
(169,314,o),
(152,329,o),
(152,353,cs),
(152,401,o),
(203,422,o),
(249,422,cs),
(314,422,o),
(358,383,o),
(358,318,cs),
(358,306,o),
(357,294,o),
(354,281,c),
(342,282,o),
(331,283,o),
(322,283,cs),
(206,283,o),
(167,228,o),
(167,182,cs),
(167,95,o),
(283,69,o),
(384,69,cs),
(488,69,o),
(601,95,o),
(601,182,cs),
(601,232,o),
(557,282,o),
(445,282,cs),
(424,282,o),
(406,279,o),
(392,278,c),
(387,294,o),
(385,308,o),
(385,323,cs),
(385,399,o),
(441,424,o),
(508,424,cs),
(548,424,o),
(606,403,o),
(606,345,cs),
(606,317,o),
(589,278,o),
(526,278,cs),
(473,278,o),
(453,324,o),
(453,366,cs),
(453,451,o),
(501,519,o),
(544,558,cs),
(580,591,o),
(610,603,o),
(630,603,cs),
(646,603,o),
(653,592,o),
(653,582,cs),
(653,556,o),
(585,548,o),
(537,499,cs),
(515,477,o),
(480,433,o),
(480,365,cs),
(480,331,o),
(496,304,o),
(528,304,cs),
(556,304,o),
(576,322,o),
(576,347,cs),
(576,379,o),
(547,397,o),
(504,397,cs),
(435,397,o),
(414,365,o),
(414,326,cs),
(414,319,o),
(415,311,o),
(417,302,c),
(425,303,o),
(433,304,o),
(446,304,cs),
(535,304,o),
(635,276,o),
(635,164,cs),
(635,44,o),
(513,0,o),
(390,0,cs),
(255,0,o),
(131,43,o)
);
},
{
closed = 1;
nodes = (
(26,216,cs),
(26,345,o),
(97,423,o),
(233,423,cs),
(242,423,o),
(265,423,o),
(286,417,c),
(265,406,o),
(190,397,o),
(173,391,c),
(100,373,o),
(55,312,o),
(55,213,cs),
(55,134,o),
(81,73,o),
(132,29,c),
(132,0,l),
(68,32,o),
(26,117,o)
);
}
);
width = 682;
}
);
unicode = 3494;
},
{
glyphname = "o-sinhala";
lastChange = "2024-02-24 15:47:15 +0000";
layers = (
{
layerId = "C18F3EFD-FA9C-4751-AD2F-5B966120D1A5";
shapes = (
{
closed = 1;
nodes = (
(268,354,cs),
(268,329,o),
(288,309,o),
(313,309,cs),
(338,309,o),
(359,329,o),
(359,354,cs),
(359,379,o),
(338,400,o),
(313,400,cs),
(288,400,o),
(268,379,o)
);
},
{
closed = 1;
nodes = (
(29,219,cs),
(29,324,o),
(73,422,o),
(145,422,cs),
(164,422,o),
(169,418,o),
(176,413,cs),
(187,405,o),
(194,391,o),
(194,362,cs),
(194,348,o),
(194,332,o),
(194,329,cs),
(194,277,o),
(234,247,o),
(288,247,cs),
(340,247,o),
(380,274,o),
(380,318,cs),
(380,319,o),
(380,321,o),
(379,323,c),
(373,310,o),
(351,282,o),
(311,282,cs),
(265,282,o),
(239,317,o),
(239,352,cs),
(239,393,o),
(270,424,o),
(314,424,cs),
(372,424,o),
(408,380,o),
(408,322,cs),
(408,261,o),
(358,219,o),
(289,219,cs),
(220,219,o),
(168,261,o),
(168,331,cs),
(168,336,o),
(168,354,o),
(168,363,cs),
(168,383,o),
(164,396,o),
(142,396,cs),
(92,396,o),
(60,319,o),
(60,248,cs),
(60,146,o),
(113,68,o),
(194,68,cs),
(266,68,o),
(286,106,o),
(286,138,cs),
(286,163,l),
(310,163,l),
(310,137,ls),
(310,94,o),
(347,69,o),
(400,69,cs),
(494,69,o),
(541,177,o),
(541,279,cs),
(541,423,o),
(447,542,o),
(291,542,cs),
(194,542,o),
(136,513,o),
(90,455,c),
(61,455,l),
(105,518,o),
(171,564,o),
(295,564,cs),
(475,564,o),
(576,421,o),
(576,248,cs),
(576,124,o),
(530,0,o),
(396,0,cs),
(356,0,o),
(314,16,o),
(298,54,c),
(277,15,o),
(240,0,o),
(191,0,cs),
(76,0,o),
(29,124,o)
);
}
);
width = 621;
}
);
unicode = 3476;
},
{
glyphname = "oo-sinhala";
lastChange = "2024-02-24 15:47:16 +0000";
layers = (
{
layerId = "C18F3EFD-FA9C-4751-AD2F-5B966120D1A5";
shapes = (
{
closed = 1;
nodes = (
(136,530,cs),
(136,518,o),
(159,514,o),
(159,503,cs),
(159,501,o),
(158,498,o),
(156,496,c),
(188,502,o),
(227,507,o),
(272,507,cs),
(377,507,o),
(461,478,o),
(518,412,c),
(486,524,o),
(390,576,o),
(277,576,cs),
(207,576,o),
(136,553,o)
);
},
{
closed = 1;
nodes = (
(41,432,c),
(41,462,l),
(72,474,o),
(123,487,o),
(123,496,cs),
(123,508,o),
(96,512,o),
(96,533,cs),
(96,569,o),
(159,614,o),
(271,614,cs),
(474,614,o),
(547,479,o),
(559,348,c),
(570,322,o),
(576,285,o),
(576,239,c),
(539,244,l),
(540,251,o),
(540,259,o),
(540,266,cs),
(540,401,o),
(432,482,o),
(275,482,cs),
(201,482,o),
(120,469,o)
);
},
{
closed = 1;
nodes = (
(268,354,cs),
(268,329,o),
(288,309,o),
(313,309,cs),
(338,309,o),
(359,329,o),
(359,354,cs),
(359,379,o),
(338,400,o),
(313,400,cs),
(288,400,o),
(268,379,o)
);
},
{
closed = 1;
nodes = (
(29,219,cs),
(29,324,o),
(73,422,o),
(145,422,cs),
(164,422,o),
(169,418,o),
(176,413,cs),
(187,405,o),
(194,391,o),
(194,362,cs),
(194,348,o),
(194,332,o),
(194,329,cs),
(194,277,o),
(234,247,o),
(288,247,cs),
(340,247,o),
(380,274,o),
(380,318,cs),
(380,319,o),
(380,321,o),
(379,323,c),
(373,310,o),
(351,282,o),
(311,282,cs),
(265,282,o),
(239,317,o),
(239,352,cs),
(239,393,o),
(270,424,o),
(314,424,cs),
(372,424,o),
(408,380,o),
(408,322,cs),
(408,261,o),
(358,219,o),
(289,219,cs),
(220,219,o),
(168,261,o),
(168,331,cs),
(168,336,o),
(168,354,o),
(168,363,cs),
(168,383,o),
(164,396,o),
(142,396,cs),
(92,396,o),
(60,319,o),
(60,248,cs),
(60,146,o),
(113,68,o),
(194,68,cs),
(266,68,o),
(286,106,o),
(286,138,cs),
(286,163,l),
(310,163,l),
(310,137,ls),
(310,94,o),
(347,69,o),
(400,69,cs),
(494,69,o),
(541,177,o),
(541,279,c),
(557,267,o),
(562,258,o),
(576,248,c),
(576,124,o),
(530,0,o),
(396,0,cs),
(356,0,o),
(314,16,o),
(298,54,c),
(277,15,o),
(240,0,o),
(191,0,cs),
(76,0,o),
(29,124,o)
);
}
);
width = 621;
}
);
unicode = 3477;
},
{
glyphname = "pa-sinhala";
lastChange = "2024-02-24 15:47:16 +0000";
layers = (
{
anchors = (
{
name = _cursive;
pos = (52,0);
}
);
layerId = "C18F3EFD-FA9C-4751-AD2F-5B966120D1A5";
shapes = (
{
closed = 1;
nodes = (
(30,180,cs),
(30,269,o),
(97,319,o),
(202,319,cs),
(215,319,o),
(225,318,o),
(238,317,c),
(238,321,o),
(239,324,o),
(239,328,cs),
(239,366,o),
(214,386,o),
(184,386,cs),
(153,386,o),
(141,371,o),
(136,352,cs),
(132,338,o),
(119,320,o),
(92,320,cs),
(73,320,o),
(54,332,o),
(54,356,cs),
(54,399,o),
(100,424,o),
(154,424,cs),
(224,424,o),
(269,391,o),
(269,326,cs),
(269,315,o),
(268,304,o),
(265,291,c),
(247,293,o),
(213,295,o),
(212,295,cs),
(137,295,o),
(67,269,o),
(67,196,cs),
(67,104,o),
(189,69,o),
(300,69,cs),
(404,69,o),
(527,107,o),
(527,200,cs),
(527,271,o),
(461,297,o),
(385,297,cs),
(363,297,o),
(338,294,o),
(316,290,c),
(314,301,o),
(313,310,o),
(313,320,cs),
(313,387,o),
(358,423,o),
(429,423,cs),
(493,423,o),
(528,384,o),
(528,346,cs),
(528,326,o),
(521,310,o),
(502,296,c),
(541,273,o),
(561,235,o),
(561,182,cs),
(561,54,o),
(438,0,o),
(300,0,cs),
(155,0,o),
(30,45,o)
);
},
{
closed = 1;
nodes = (
(345,328,cs),
(345,324,o),
(345,321,o),
(346,317,c),
(363,319,o),
(378,320,o),
(394,320,cs),
(426,320,o),
(454,317,o),
(478,308,c),
(489,319,o),
(493,330,o),
(493,343,cs),
(493,371,o),
(468,396,o),
(422,396,cs),
(380,396,o),
(345,372,o)
);
}
);
width = 601;
}
);
unicode = 3508;
},
{
glyphname = "pha-sinhala";
lastChange = "2024-02-24 15:47:16 +0000";
layers = (
{
anchors = (
{
name = _cursive;
pos = (44,0);
}
);
layerId = "C18F3EFD-FA9C-4751-AD2F-5B966120D1A5";
shapes = (
{
closed = 1;
nodes = (
(32,161,cs),
(32,263,o),
(114,302,o),
(224,302,cs),
(243,302,l),
(243,304,o),
(243,306,o),
(243,308,cs),
(243,350,o),
(214,386,o),
(178,386,cs),
(140,386,o),
(129,363,o),
(123,347,cs),
(116,328,o),
(107,315,o),
(86,315,cs),
(70,315,o),
(51,326,o),
(51,351,cs),
(51,397,o),
(99,422,o),
(153,422,cs),
(239,422,o),
(274,355,o),
(274,290,cs),
(274,287,o),
(274,280,o),
(274,277,c),
(216,277,ls),
(125,277,o),
(68,240,o),
(68,176,cs),
(68,92,o),
(173,69,o),
(261,69,cs),
(410,69,o),
(489,145,o),
(489,261,cs),
(489,317,o),
(472,367,o),
(448,402,c),
(433,370,o),
(404,351,o),
(362,351,cs),
(300,351,o),
(265,405,o),
(265,469,cs),
(265,518,o),
(280,553,o),
(306,583,c),
(366,551,o),
(435,481,o),
(470,420,cs),
(508,355,o),
(521,307,o),
(521,239,cs),
(521,114,o),
(437,0,o),
(258,0,cs),
(140,0,o),
(32,45,o)
);
},
{
closed = 1;
nodes = (
(294,473,cs),
(294,425,o),
(313,386,o),
(369,386,cs),
(392,386,o),
(420,397,o),
(430,430,c),
(401,475,o),
(351,520,o),
(314,547,c),
(302,529,o),
(294,507,o)
);
}
);
width = 565;
}
);
unicode = 3509;
},
{
glyphname = "ra-sinhala";
lastChange = "2024-02-24 15:47:16 +0000";
layers = (
{
layerId = "C18F3EFD-FA9C-4751-AD2F-5B966120D1A5";
shapes = (
{
closed = 1;
nodes = (
(30,208,cs),
(30,315,o),
(92,373,o),
(165,405,cs),
(221,429,o),
(316,452,o),
(401,514,cs),
(451,550,o),
(463,593,o),
(491,593,cs),
(504,593,o),
(514,586,o),
(514,575,cs),
(514,551,o),
(492,522,o),
(432,488,cs),
(396,467,o),
(327,436,o),
(284,424,c),
(332,422,o),
(382,399,o),
(420,357,cs),
(455,318,o),
(471,275,o),
(471,220,cs),
(471,100,o),
(375,0,o),
(242,0,cs),
(121,0,o),
(30,87,o)
);
},
{
closed = 1;
nodes = (
(64,231,cs),
(64,140,o),
(129,71,o),
(234,71,cs),
(337,71,o),
(420,145,o),
(420,248,cs),
(420,348,o),
(348,401,o),
(258,401,cs),
(163,401,o),
(64,331,o)
);
}
);
width = 515;
}
);
unicode = 3515;
},
{
glyphname = "sa-sinhala";
lastChange = "2024-02-24 15:47:16 +0000";
layers = (
{
anchors = (
{
name = _cursive;
pos = (70,0);
}
);
layerId = "C18F3EFD-FA9C-4751-AD2F-5B966120D1A5";
shapes = (
{
closed = 1;
nodes = (
(50,150,cs),
(50,220,o),
(90,262,o),
(141,278,c),
(174,290,o),
(227,301,o),
(263,301,cs),
(276,301,l),
(276,303,o),
(276,302,o),
(276,304,cs),
(276,349,o),
(245,386,o),
(209,386,cs),
(169,386,o),
(158,363,o),
(152,347,cs),
(145,328,o),
(136,315,o),
(115,315,cs),
(99,315,o),
(80,326,o),
(80,351,cs),
(80,397,o),
(129,422,o),
(183,422,cs),
(269,422,o),
(306,360,o),
(306,289,cs),
(306,286,o),
(306,279,o),
(306,276,c),
(211,276,ls),
(159,276,o),
(87,242,o),
(87,171,cs),
(87,113,o),
(139,69,o),
(207,69,cs),
(262,69,o),
(313,99,o),
(313,148,cs),
(313,178,l),
(340,178,l),
(340,148,ls),
(340,93,o),
(399,69,o),
(460,69,cs),
(527,69,o),
(577,112,o),
(577,178,cs),
(577,255,o),
(523,284,o),
(439,284,cs),
(408,284,o),
(382,282,o),
(345,275,c),
(345,279,o),
(345,280,o),
(345,284,cs),
(345,366,o),
(392,422,o),
(465,422,cs),
(518,422,o),
(565,399,o),
(565,342,cs),
(565,321,o),
(552,299,o),
(537,290,c),
(583,268,o),
(613,216,o),
(613,162,cs),
(613,57,o),
(545,0,o),
(449,0,cs),
(386,0,o),
(344,30,o),
(325,80,c),
(304,29,o),
(264,-1,o),
(198,-1,cs),
(105,-1,o),
(50,74,o)
);
},
{
closed = 1;
nodes = (
(5,270,c),
(5,301,l),
(274,301,l),
(302,276,l),
(144,276,ls),
(75,275,o),
(21,273,o)
);
},
{
closed = 1;
nodes = (
(373,303,c),
(384,306,o),
(412,309,o),
(435,309,cs),
(468,309,o),
(492,306,o),
(513,299,c),
(525,312,o),
(527,326,o),
(527,338,cs),
(527,370,o),
(494,384,o),
(459,384,cs),
(408,384,o),
(378,357,o)
);
}
);
width = 661;
}
);
unicode = 3523;
},
{
glyphname = "sha-sinhala";
lastChange = "2024-02-24 15:47:16 +0000";
layers = (
{
anchors = (
{
name = _cursive;
pos = (43,0);
}
);
layerId = "C18F3EFD-FA9C-4751-AD2F-5B966120D1A5";
shapes = (
{
closed = 1;
nodes = (
(33,201,cs),
(33,326,o),
(105,422,o),
(229,422,cs),
(233,422,o),
(242,421,o),
(245,421,c),
(245,398,l),
(241,398,o),
(236,398,o),
(232,398,cs),
(136,398,o),
(65,332,o),
(65,225,cs),
(65,143,o),
(109,68,o),
(197,68,cs),
(248,68,o),
(302,97,o),
(302,153,cs),
(302,192,o),
(283,213,o),
(253,213,cs),
(247,213,o),
(239,212,o),
(231,206,c),
(229,201,o),
(229,193,o),
(228,188,c),
(203,188,l),
(217,321,o),
(270,422,o),
(390,422,cs),
(511,422,o),
(568,304,o),
(568,191,cs),
(568,125,o),
(545,36,o),
(517,1,c),
(490,1,l),
(493,6,o),
(495,10,o),
(495,14,cs),
(495,21,o),
(491,23,o),
(484,23,cs),
(463,23,o),
(454,-3,o),
(417,-3,cs),
(381,-3,o),
(358,35,o),
(358,73,cs),
(358,135,o),
(404,180,o),
(473,180,cs),
(490,180,o),
(510,176,o),
(521,172,c),
(521,266,o),
(465,361,o),
(374,361,cs),
(300,361,o),
(246,306,o),
(234,232,c),
(241,235,o),
(249,236,o),
(256,236,cs),
(303,236,o),
(335,203,o),
(335,135,cs),
(335,61,o),
(282,-1,o),
(193,-1,cs),
(89,-1,o),
(33,90,o)
);
},
{
closed = 1;
nodes = (
(389,77,cs),
(389,50,o),
(399,26,o),
(423,26,cs),
(447,26,o),
(468,52,o),
(488,52,cs),
(496,52,o),
(504,48,o),
(507,41,c),
(516,63,o),
(519,94,o),
(521,119,cs),
(522,128,o),
(521,137,o),
(521,144,c),
(507,152,o),
(492,154,o),
(471,154,cs),
(422,154,o),
(389,122,o)
);
}
);
width = 616;
}
);
unicode = 3521;
},
{
glyphname = "ssa-sinhala";
lastChange = "2024-02-24 15:47:16 +0000";
layers = (
{
anchors = (
{
name = _cursive;
pos = (45,0);
}
);
layerId = "C18F3EFD-FA9C-4751-AD2F-5B966120D1A5";
shapes = (
{
closed = 1;
nodes = (
(30,180,cs),
(30,269,o),
(97,319,o),
(202,319,cs),
(215,319,o),
(225,318,o),
(238,317,c),
(238,321,o),
(239,324,o),
(239,328,cs),
(239,366,o),
(214,386,o),
(184,386,cs),
(153,386,o),
(141,371,o),
(136,352,cs),
(132,338,o),
(119,320,o),
(92,320,cs),
(73,320,o),
(54,332,o),
(54,356,cs),
(54,399,o),
(100,424,o),
(154,424,cs),
(224,424,o),
(269,391,o),
(269,326,cs),
(269,315,o),
(268,304,o),
(265,291,c),
(247,293,o),
(213,295,o),
(212,295,cs),
(137,295,o),
(67,269,o),
(67,196,cs),
(67,104,o),
(189,69,o),
(300,69,cs),
(404,69,o),
(527,107,o),
(527,200,cs),
(527,271,o),
(461,297,o),
(385,297,cs),
(363,297,o),
(338,294,o),
(316,290,c),
(314,301,o),
(313,310,o),
(313,320,cs),
(313,387,o),
(358,423,o),
(429,423,cs),
(493,423,o),
(528,384,o),
(528,346,cs),
(528,326,o),
(521,310,o),
(502,296,c),
(541,273,o),
(561,235,o),
(561,182,cs),
(561,54,o),
(438,0,o),
(300,0,cs),
(155,0,o),
(30,45,o)
);
},
{
closed = 1;
nodes = (
(345,328,cs),
(345,324,o),
(345,321,o),
(346,317,c),
(363,319,o),
(378,320,o),
(394,320,cs),
(426,320,o),
(454,317,o),
(478,308,c),
(489,319,o),
(493,330,o),
(493,343,cs),
(493,371,o),
(468,396,o),
(422,396,cs),
(380,396,o),
(345,372,o)
);
},
{
closed = 1;
nodes = (
(168,193,cs),
(168,220,o),
(187,248,o),
(281,248,cs),
(303,248,o),
(350,249,o),
(380,255,cs),
(418,262,o),
(449,280,o),
(458,289,c),
(489,282,l),
(468,261,o),
(430,242,o),
(390,234,c),
(409,225,o),
(422,211,o),
(422,192,cs),
(422,148,o),
(366,132,o),
(289,132,cs),
(234,132,o),
(168,145,o)
);
},
{
closed = 1;
nodes = (
(197,193,cs),
(197,171,o),
(229,157,o),
(292,157,cs),
(358,157,o),
(393,171,o),
(393,192,cs),
(393,216,o),
(359,227,o),
(291,227,cs),
(228,227,o),
(197,214,o)
);
}
);
width = 583;
}
);
unicode = 3522;
},
{
glyphname = "ta-sinhala";
lastChange = "2024-02-24 15:47:16 +0000";
layers = (
{
anchors = (
{
name = _cursive;
pos = (66,0);
}
);
layerId = "C18F3EFD-FA9C-4751-AD2F-5B966120D1A5";
shapes = (
{
closed = 1;
nodes = (
(21,24,l),
(34,127,o),
(100,237,o),
(155,299,c),
(163,308,o),
(175,322,o),
(175,341,cs),
(175,362,o),
(166,379,o),
(147,379,cs),
(130,379,o),
(117,369,o),
(116,348,cs),
(115,319,o),
(108,288,o),
(74,288,cs),
(49,288,o),
(36,310,o),
(36,334,cs),
(36,383,o),
(76,423,o),
(124,423,cs),
(173,423,o),
(201,390,o),
(201,348,cs),
(201,343,o),
(201,344,o),
(200,339,c),
(264,410,o),
(351,425,o),
(413,425,cs),
(549,425,o),
(648,327,o),
(648,181,cs),
(648,83,o),
(599,-1,o),
(509,-1,cs),
(483,-1,o),
(461,5,o),
(444,14,c),
(444,43,l),
(457,35,o),
(478,26,o),
(499,26,cs),
(564,26,o),
(596,83,o),
(596,147,cs),
(596,265,o),
(496,370,o),
(358,370,cs),
(289,370,o),
(235,347,o),
(196,299,c),
(217,308,o),
(243,312,o),
(274,312,cs),
(373,312,o),
(448,262,o),
(448,158,cs),
(448,68,o),
(382,-2,o),
(275,-2,cs),
(130,-2,o),
(137,77,o),
(87,77,cs),
(64,77,o),
(52,52,o),
(43,9,c)
);
},
{
closed = 1;
nodes = (
(69,98,c),
(78,105,o),
(90,106,o),
(101,106,cs),
(137,106,o),
(172,71,o),
(248,71,cs),
(333,71,o),
(407,101,o),
(407,184,cs),
(407,254,o),
(341,289,o),
(276,289,cs),
(228,289,o),
(183,277,o),
(153,254,c),
(123,217,o),
(90,161,o)
);
}
);
width = 687;
}
);
unicode = 3501;
},
{
glyphname = "tha-sinhala";
lastChange = "2024-02-24 15:47:16 +0000";
layers = (
{
anchors = (
{
name = _cursive;
pos = (51,0);
}
);
layerId = "C18F3EFD-FA9C-4751-AD2F-5B966120D1A5";
shapes = (
{
closed = 1;
nodes = (
(32,229,cs),
(32,336,o),
(131,420,o),
(239,420,c),
(239,396,l),
(144,396,o),
(65,328,o),
(65,236,cs),
(65,119,o),
(169,69,o),
(298,69,cs),
(423,69,o),
(519,150,o),
(519,274,cs),
(519,330,o),
(502,379,o),
(481,410,c),
(466,378,o),
(438,358,o),
(396,358,cs),
(334,358,o),
(298,413,o),
(298,477,cs),
(298,526,o),
(313,561,o),
(339,591,c),
(399,559,o),
(468,489,o),
(503,428,cs),
(541,363,o),
(553,314,o),
(553,246,cs),
(553,100,o),
(439,-1,o),
(288,-1,cs),
(147,-1,o),
(32,89,o)
);
},
{
closed = 1;
nodes = (
(327,480,cs),
(327,432,o),
(346,394,o),
(402,394,cs),
(425,394,o),
(453,405,o),
(463,438,c),
(434,483,o),
(385,528,o),
(348,555,c),
(336,537,o),
(327,514,o)
);
}
);
width = 599;
}
);
unicode = 3502;
},
{
glyphname = "tta-sinhala";
lastChange = "2024-02-24 15:47:16 +0000";
layers = (
{
anchors = (
{
name = _cursive;
pos = (37,0);
}
);
layerId = "C18F3EFD-FA9C-4751-AD2F-5B966120D1A5";
shapes = (
{
closed = 1;
nodes = (
(31,203,cs),
(31,315,o),
(123,382,o),
(227,382,cs),
(253,382,o),
(285,377,o),
(313,366,c),
(313,338,l),
(287,351,o),
(260,356,o),
(229,356,cs),
(145,356,o),
(64,307,o),
(64,213,cs),
(64,113,o),
(172,69,o),
(270,69,cs),
(409,69,o),
(511,145,o),
(511,289,cs),
(511,422,o),
(406,540,o),
(269,540,cs),
(190,540,o),
(130,513,o),
(88,459,c),
(56,459,l),
(102,526,o),
(173,563,o),
(267,563,cs),
(436,563,o),
(544,423,o),
(544,265,cs),
(544,113,o),
(436,-1,o),
(278,-1,cs),
(130,-1,o),
(31,79,o)
);
}
);
width = 588;
}
);
unicode = 3495;
},
{
glyphname = "ttha-sinhala";
lastChange = "2024-02-24 15:47:20 +0000";
layers = (
{
layerId = "C18F3EFD-FA9C-4751-AD2F-5B966120D1A5";
shapes = (
{
closed = 1;
nodes = (
(21,24,l),
(34,127,o),
(100,237,o),
(155,299,c),
(163,308,o),
(175,322,o),
(175,341,cs),
(175,362,o),
(166,379,o),
(147,379,cs),
(130,379,o),
(117,369,o),
(116,348,cs),
(115,319,o),
(108,288,o),
(74,288,cs),
(49,288,o),
(36,310,o),
(36,334,cs),
(36,383,o),
(76,423,o),
(124,423,cs),
(173,423,o),
(201,390,o),
(201,348,cs),
(201,343,o),
(201,344,o),
(200,339,c),
(286,401,o),
(372,424,o),
(535,424,cs),
(558,424,o),
(596,424,o),
(628,420,c),
(607,408,o),
(571,406,o),
(554,398,c),
(389,398,o),
(280,376,o),
(196,299,c),
(217,308,o),
(243,312,o),
(274,312,cs),
(373,312,o),
(448,262,o),
(448,158,cs),
(448,68,o),
(382,-2,o),
(275,-2,cs),
(130,-2,o),
(137,77,o),
(87,77,cs),
(64,77,o),
(52,52,o),
(43,9,c)
);
},
{
closed = 1;
nodes = (
(69,98,c),
(78,105,o),
(90,106,o),
(101,106,cs),
(137,106,o),
(172,71,o),
(248,71,cs),
(333,71,o),
(407,101,o),
(407,184,cs),
(407,254,o),
(341,289,o),
(276,289,cs),
(228,289,o),
(183,277,o),
(153,254,c),
(123,217,o),
(90,161,o)
);
},
{
pos = (392,0);
ref = "tha-sinhala";
}
);
width = 992;
}
);
unicode = 3496;
},
{
glyphname = "u-sinhala";
lastChange = "2024-02-24 15:47:15 +0000";
layers = (
{
layerId = "C18F3EFD-FA9C-4751-AD2F-5B966120D1A5";
shapes = (
{
closed = 1;
nodes = (
(111,53,o),
(32,114,o),
(32,216,cs),
(32,349,o),
(144,422,o),
(277,422,cs),
(425,422,o),
(531,344,o),
(531,193,cs),
(531,89,o),
(462,10,o),
(375,-6,c),
(407,-12,o),
(429,-35,o),
(429,-73,cs),
(429,-132,o),
(355,-156,o),
(291,-156,cs),
(230,-156,o),
(169,-136,o),
(169,-74,cs),
(169,-50,o),
(185,-37,o),
(202,-37,cs),
(217,-37,o),
(229,-46,o),
(229,-63,cs),
(229,-69,o),
(226,-80,o),
(226,-92,cs),
(226,-112,o),
(236,-134,o),
(293,-134,cs),
(331,-134,o),
(366,-118,o),
(366,-81,cs),
(366,-39,o),
(326,-15,o),
(261,-15,cs),
(252,-15,o),
(253,-15,o),
(243,-16,c),
(243,12,l),
(255,13,o),
(256,13,o),
(267,13,cs),
(284,13,o),
(298,11,o),
(316,11,cs),
(413,11,o),
(494,71,o),
(494,175,cs),
(494,285,o),
(395,349,o),
(278,349,cs),
(171,349,o),
(71,302,o),
(71,199,cs),
(71,130,o),
(134,79,o),
(218,79,cs),
(270,79,o),
(309,94,o),
(325,117,c),
(310,105,o),
(292,103,o),
(278,103,cs),
(238,103,o),
(203,136,o),
(203,175,cs),
(203,220,o),
(236,254,o),
(279,254,cs),
(335,254,o),
(367,217,o),
(367,166,cs),
(367,88,o),
(303,53,o),
(215,53,cs)
);
},
{
closed = 1;
nodes = (
(254,227,o),
(231,204,o),
(231,178,cs),
(231,151,o),
(255,129,o),
(281,129,cs),
(308,129,o),
(331,152,o),
(331,178,cs),
(331,205,o),
(307,227,o),
(281,227,cs)
);
}
);
width = 579;
}
);
unicode = 3467;
},
{
glyphname = "va-sinhala";
lastChange = "2024-02-24 15:47:16 +0000";
layers = (
{
anchors = (
{
name = _cursive;
pos = (46,0);
}
);
layerId = "C18F3EFD-FA9C-4751-AD2F-5B966120D1A5";
shapes = (
{
closed = 1;
nodes = (
(143,0,o),
(32,45,o),
(32,161,cs),
(32,244,o),
(95,297,o),
(194,297,cs),
(254,297,l),
(254,299,o),
(254,299,o),
(254,301,cs),
(254,354,o),
(221,386,o),
(185,386,cs),
(141,386,o),
(133,363,o),
(127,347,cs),
(120,328,o),
(111,315,o),
(90,315,cs),
(74,315,o),
(55,326,o),
(55,351,cs),
(55,397,o),
(103,422,o),
(157,422,cs),
(243,422,o),
(285,367,o),
(285,283,cs),
(285,280,o),
(285,276,o),
(285,273,c),
(197,273,ls),
(125,273,o),
(66,239,o),
(66,176,cs),
(66,92,o),
(176,69,o),
(264,69,cs),
(413,69,o),
(502,154,o),
(502,293,cs),
(502,432,o),
(401,540,o),
(270,540,cs),
(193,540,o),
(131,513,o),
(87,459,c),
(56,459,l),
(104,527,o),
(174,563,o),
(270,563,cs),
(426,563,o),
(535,433,o),
(535,268,cs),
(535,112,o),
(440,0,o),
(261,0,cs)
);
}
);
width = 583;
}
);
unicode = 3520;
},
{
glyphname = "ya-sinhala";
lastChange = "2024-02-24 15:47:16 +0000";
layers = (
{
anchors = (
{
name = _cursive;
pos = (41,0);
}
);
layerId = "C18F3EFD-FA9C-4751-AD2F-5B966120D1A5";
shapes = (
{
closed = 1;
nodes = (
(29,181,cs),
(29,298,o),
(104,380,o),
(218,380,cs),
(228,380,o),
(236,379,o),
(245,378,c),
(245,351,l),
(234,353,o),
(225,354,o),
(214,354,cs),
(127,354,o),
(62,291,o),
(62,207,cs),
(62,123,o),
(115,69,o),
(188,69,cs),
(236,69,o),
(288,95,o),
(288,143,cs),
(288,172,l),
(314,172,l),
(314,144,ls),
(314,96,o),
(369,69,o),
(425,69,cs),
(505,69,o),
(542,118,o),
(542,182,cs),
(542,266,o),
(482,293,o),
(398,293,cs),
(369,293,o),
(340,289,o),
(314,282,c),
(313,289,o),
(313,296,o),
(313,303,cs),
(313,380,o),
(358,423,o),
(440,423,cs),
(499,423,o),
(545,400,o),
(545,349,cs),
(545,330,o),
(535,305,o),
(509,296,c),
(551,271,o),
(578,223,o),
(578,163,cs),
(578,69,o),
(516,-1,o),
(426,-1,cs),
(362,-1,o),
(320,24,o),
(300,69,c),
(278,22,o),
(239,-1,o),
(182,-1,cs),
(83,-1,o),
(29,80,o)
);
},
{
closed = 1;
nodes = (
(342,312,c),
(358,316,o),
(380,317,o),
(400,317,cs),
(435,317,o),
(464,314,o),
(485,307,c),
(498,313,o),
(507,326,o),
(507,342,cs),
(507,373,o),
(474,388,o),
(440,388,cs),
(382,388,o),
(345,365,o)
);
}
);
width = 621;
}
);
unicode = 3514;
},
{
glyphname = "b-sinhala";
lastChange = "2024-02-24 15:47:15 +0000";
layers = (
{
layerId = "C18F3EFD-FA9C-4751-AD2F-5B966120D1A5";
shapes = (
{
closed = 1;
nodes = (
(396,403,l),
(396,664,l),
(449,623,o),
(542,618,o),
(542,528,cs),
(542,485,o),
(508,456,o),
(466,456,cs),
(451,456,o),
(437,459,o),
(422,466,c),
(422,400,l)
);
},
{
closed = 1;
nodes = (
(422,490,l),
(431,485,o),
(441,483,o),
(454,483,cs),
(491,483,o),
(506,508,o),
(506,531,cs),
(506,572,o),
(468,592,o),
(422,622,c)
);
},
{
ref = "fa-sinhala";
}
);
width = 592;
}
);
},
{
glyphname = "bh-sinhala";
lastChange = "2024-02-24 15:47:17 +0000";
layers = (
{
layerId = "C18F3EFD-FA9C-4751-AD2F-5B966120D1A5";
shapes = (
{
closed = 1;
nodes = (
(457,378,l),
(457,665,l),
(510,624,o),
(604,619,o),
(604,529,cs),
(604,486,o),
(569,457,o),
(527,457,cs),
(512,457,o),
(498,460,o),
(483,467,c),
(483,361,l)
);
},
{
closed = 1;
nodes = (
(483,491,l),
(492,486,o),
(503,484,o),
(516,484,cs),
(553,484,o),
(567,509,o),
(567,532,cs),
(567,573,o),
(529,593,o),
(483,623,c)
);
},
{
ref = "bha-sinhala";
}
);
width = 654;
}
);
},
{
glyphname = "bha_reph-sinhala";
lastChange = "2024-02-24 15:49:05 +0000";
layers = (
{
anchors = (
{
name = _cursive;
pos = (24,0);
}
);
layerId = "C18F3EFD-FA9C-4751-AD2F-5B966120D1A5";
shapes = (
{
closed = 1;
nodes = (
(289,499,cs),
(289,478,o),
(308,463,o),
(329,463,cs),
(350,463,o),
(369,478,o),
(369,499,cs),
(369,520,o),
(350,535,o),
(329,535,cs),
(308,535,o),
(289,520,o)
);
},
{
closed = 1;
nodes = (
(189,518,cs),
(189,580,o),
(246,616,o),
(326,616,cs),
(401,616,o),
(464,574,o),
(464,505,cs),
(464,482,o),
(456,460,o),
(439,441,c),
(406,441,l),
(419,453,o),
(435,478,o),
(435,504,cs),
(435,560,o),
(385,590,o),
(325,590,cs),
(273,590,o),
(220,570,o),
(220,518,cs),
(220,480,o),
(261,461,o),
(283,459,c),
(275,465,o),
(263,479,o),
(263,500,cs),
(263,534,o),
(293,559,o),
(328,559,cs),
(368,559,o),
(396,532,o),
(396,498,cs),
(396,460,o),
(362,435,o),
(305,435,cs),
(247,435,o),
(189,463,o)
);
},
{
ref = "bha-sinhala";
}
);
width = 654;
}
);
},
{
glyphname = "bhi-sinhala";
lastChange = "2024-02-24 15:47:17 +0000";
layers = (
{
layerId = "C18F3EFD-FA9C-4751-AD2F-5B966120D1A5";
shapes = (
{
closed = 1;
nodes = (
(174,524,cs),
(174,613,o),
(270,651,o),
(370,651,cs),
(473,651,o),
(573,604,o),
(573,511,cs),
(573,450,o),
(535,405,o),
(456,399,c),
(438,421,l),
(441,421,o),
(443,421,o),
(446,421,cs),
(503,421,o),
(545,451,o),
(545,500,cs),
(545,563,o),
(448,584,o),
(370,584,cs),
(291,584,o),
(214,555,o),
(214,504,cs),
(214,445,o),
(345,421,o),
(429,421,cs),
(430,421,o),
(430,422,o),
(431,422,c),
(415,400,l),
(259,403,o),
(174,451,o)
);
},
{
ref = "bha-sinhala";
}
);
width = 654;
}
);
},
{
glyphname = "bhii-sinhala";
lastChange = "2024-02-24 15:47:17 +0000";
layers = (
{
layerId = "C18F3EFD-FA9C-4751-AD2F-5B966120D1A5";
shapes = (
{
closed = 1;
nodes = (
(409,508,cs),
(409,475,o),
(440,447,o),
(477,447,cs),
(514,447,o),
(545,475,o),
(545,508,cs),
(545,541,o),
(514,568,o),
(477,568,cs),
(440,568,o),
(409,541,o)
);
},
{
closed = 1;
nodes = (
(174,524,cs),
(174,613,o),
(270,651,o),
(370,651,cs),
(473,651,o),
(573,604,o),
(573,513,cs),
(573,446,o),
(517,421,o),
(475,421,cs),
(432,421,o),
(380,453,o),
(380,507,cs),
(380,552,o),
(413,577,o),
(429,580,c),
(408,583,o),
(393,584,o),
(370,584,cs),
(291,584,o),
(214,555,o),
(214,504,cs),
(214,445,o),
(345,421,o),
(429,421,cs),
(430,421,o),
(430,422,o),
(431,422,c),
(415,399,l),
(259,402,o),
(174,451,o)
);
},
{
ref = "bha-sinhala";
}
);
width = 654;
}
);
},
{
glyphname = "bhu-sinhala";
lastChange = "2024-02-24 15:47:17 +0000";
layers = (
{
layerId = "C18F3EFD-FA9C-4751-AD2F-5B966120D1A5";
shapes = (
{
closed = 1;
nodes = (
(6,265,c),
(6,296,l),
(207,296,l),
(167,271,l),
(137,271,ls),
(68,270,o),
(22,268,o)
);
},
{
closed = 1;
nodes = (
(48,355,cs),
(48,384,o),
(75,422,o),
(131,422,cs),
(208,422,o),
(248,351,o),
(249,271,c),
(237,273,o),
(228,273,o),
(224,273,cs),
(160,273,o),
(84,239,o),
(84,171,cs),
(84,103,o),
(147,70,o),
(219,70,cs),
(283,70,o),
(338,98,o),
(338,160,cs),
(338,190,o),
(324,207,o),
(304,207,cs),
(291,207,o),
(278,199,o),
(271,178,c),
(249,188,l),
(258,310,o),
(337,422,o),
(436,422,cs),
(545,422,o),
(606,321,o),
(606,206,cs),
(606,95,o),
(528,0,o),
(450,0,cs),
(440,0,o),
(419,-2,o),
(405,-8,c),
(396,18,l),
(415,26,o),
(431,26,o),
(439,26,cs),
(501,26,o),
(560,96,o),
(560,188,cs),
(560,281,o),
(509,354,o),
(420,354,cs),
(349,354,o),
(301,311,o),
(280,224,c),
(290,230,o),
(300,231,o),
(309,231,cs),
(346,231,o),
(373,195,o),
(373,142,cs),
(373,52,o),
(304,-1,o),
(212,-1,cs),
(116,-1,o),
(48,59,o),
(48,151,cs),
(48,247,o),
(145,296,o),
(213,296,cs),
(217,296,o),
(213,296,o),
(217,296,c),
(217,337,o),
(193,374,o),
(156,374,cs),
(135,374,o),
(125,363,o),
(119,348,cs),
(113,332,o),
(101,319,o),
(80,319,cs),
(60,319,o),
(48,333,o)
);
},
{
closed = 1;
nodes = (
(333,-78,cs),
(333,-29,o),
(362,9,o),
(404,21,c),
(410,-6,l),
(389,-14,o),
(370,-34,o),
(370,-62,cs),
(370,-107,o),
(419,-129,o),
(469,-129,cs),
(529,-129,o),
(574,-92,o),
(574,-44,cs),
(574,-41,o),
(574,-38,o),
(574,-35,c),
(604,-35,l),
(606,-44,o),
(605,-59,o),
(605,-68,cs),
(605,-120,o),
(564,-188,o),
(465,-188,cs),
(400,-188,o),
(333,-145,o)
);
}
);
width = 654;
}
);
},
{
glyphname = "bhuu-sinhala";
lastChange = "2024-02-24 15:47:17 +0000";
layers = (
{
layerId = "C18F3EFD-FA9C-4751-AD2F-5B966120D1A5";
shapes = (
{
closed = 1;
nodes = (
(364,-126,cs),
(364,-91,o),
(396,-70,o),
(427,-65,c),
(373,-38,l),
(458,-14,l),
(367,1,l),
(414,13,l),
(531,-7,l),
(429,-43,l),
(486,-74,l),
(459,-81,o),
(403,-83,o),
(403,-112,cs),
(403,-142,o),
(444,-151,o),
(485,-151,cs),
(538,-151,o),
(583,-128,o),
(583,-80,cs),
(583,-75,o),
(582,-68,o),
(577,-58,c),
(609,-58,l),
(613,-70,o),
(613,-81,o),
(613,-92,cs),
(613,-157,o),
(563,-200,o),
(483,-200,cs),
(426,-200,o),
(364,-183,o)
);
},
{
ref = "bha-sinhala";
}
);
width = 654;
}
);
},
{
glyphname = "bi-sinhala";
lastChange = "2024-02-24 15:47:16 +0000";
layers = (
{
layerId = "C18F3EFD-FA9C-4751-AD2F-5B966120D1A5";
shapes = (
{
closed = 1;
nodes = (
(65,549,cs),
(65,637,o),
(193,654,o),
(291,654,cs),
(424,654,o),
(531,624,o),
(531,541,cs),
(531,490,o),
(478,469,o),
(445,463,c),
(396,479,l),
(431,480,o),
(485,494,o),
(485,531,cs),
(485,586,o),
(396,597,o),
(291,597,cs),
(217,597,o),
(106,592,o),
(106,541,cs),
(106,496,o),
(170,496,o),
(270,492,cs),
(333,489,o),
(425,487,o),
(479,448,cs),
(527,413,o),
(562,348,o),
(562,268,c),
(523,290,l),
(523,330,o),
(512,375,o),
(485,404,cs),
(433,461,o),
(370,461,o),
(271,467,cs),
(184,472,o),
(65,465,o)
);
},
{
closed = 1;
nodes = (
(99,74,cs),
(99,49,o),
(121,26,o),
(146,26,cs),
(171,26,o),
(194,49,o),
(194,74,cs),
(194,99,o),
(171,122,o),
(146,122,cs),
(121,122,o),
(99,99,o)
);
},
{
closed = 1;
nodes = (
(32,183,cs),
(32,307,o),
(117,387,o),
(241,387,cs),
(331,387,o),
(413,337,o),
(413,251,cs),
(413,123,o),
(297,163,o),
(297,99,cs),
(297,75,o),
(313,62,o),
(343,62,cs),
(451,62,o),
(523,186,o),
(523,294,c),
(541,286,o),
(547,275,o),
(562,271,c),
(562,136,o),
(506,-2,o),
(372,-2,cs),
(313,-2,o),
(267,34,o),
(267,92,cs),
(267,182,o),
(379,152,o),
(379,231,cs),
(379,289,o),
(301,312,o),
(231,312,cs),
(142,312,o),
(62,261,o),
(62,158,cs),
(62,133,o),
(67,104,o),
(75,89,c),
(79,123,o),
(106,149,o),
(146,149,cs),
(188,149,o),
(224,116,o),
(224,75,cs),
(224,28,o),
(185,-1,o),
(146,-1,cs),
(66,-1,o),
(32,89,o)
);
}
);
width = 604;
}
);
},
{
glyphname = "bii-sinhala";
lastChange = "2024-02-24 15:47:17 +0000";
layers = (
{
layerId = "C18F3EFD-FA9C-4751-AD2F-5B966120D1A5";
shapes = (
{
closed = 1;
nodes = (
(382,542,cs),
(382,513,o),
(409,489,o),
(441,489,cs),
(473,489,o),
(500,513,o),
(500,542,cs),
(500,571,o),
(473,595,o),
(441,595,cs),
(409,595,o),
(382,571,o)
);
},
{
closed = 1;
nodes = (
(65,549,cs),
(65,637,o),
(193,654,o),
(291,654,cs),
(424,654,o),
(531,624,o),
(531,545,cs),
(531,493,o),
(484,463,o),
(441,463,cs),
(398,463,o),
(352,493,o),
(352,545,cs),
(352,569,o),
(364,586,o),
(370,594,c),
(363,595,o),
(332,597,o),
(291,597,cs),
(217,597,o),
(106,592,o),
(106,541,cs),
(106,496,o),
(170,496,o),
(270,492,cs),
(333,489,o),
(425,487,o),
(479,448,cs),
(527,413,o),
(562,351,o),
(562,268,c),
(523,289,l),
(523,330,o),
(512,375,o),
(485,404,cs),
(433,461,o),
(370,461,o),
(271,467,cs),
(184,472,o),
(65,465,o)
);
},
{
closed = 1;
nodes = (
(99,74,cs),
(99,49,o),
(121,26,o),
(146,26,cs),
(171,26,o),
(194,49,o),
(194,74,cs),
(194,99,o),
(171,122,o),
(146,122,cs),
(121,122,o),
(99,99,o)
);
},
{
closed = 1;
nodes = (
(32,183,cs),
(32,307,o),
(117,387,o),
(241,387,cs),
(331,387,o),
(413,337,o),
(413,251,cs),
(413,123,o),
(297,163,o),
(297,99,cs),
(297,75,o),
(313,62,o),
(343,62,cs),
(451,62,o),
(523,186,o),
(523,294,c),
(562,271,l),
(562,136,o),
(506,-2,o),
(372,-2,cs),
(313,-2,o),
(267,34,o),
(267,92,cs),
(267,182,o),
(379,152,o),
(379,231,cs),
(379,289,o),
(301,312,o),
(231,312,cs),
(142,312,o),
(62,261,o),
(62,158,cs),
(62,133,o),
(67,104,o),
(75,89,c),
(79,123,o),
(106,149,o),
(146,149,cs),
(188,149,o),
(224,116,o),
(224,75,cs),
(224,28,o),
(185,-1,o),
(146,-1,cs),
(66,-1,o),
(32,89,o)
);
}
);
width = 604;
}
);
},
{
glyphname = "bu-sinhala";
lastChange = "2024-02-24 15:47:17 +0000";
layers = (
{
layerId = "C18F3EFD-FA9C-4751-AD2F-5B966120D1A5";
shapes = (
{
closed = 1;
nodes = (
(48,-139,cs),
(48,-88,o),
(93,-49,o),
(147,-49,cs),
(188,-49,o),
(224,-72,o),
(239,-107,c),
(210,-119,l),
(203,-99,o),
(179,-78,o),
(147,-78,cs),
(111,-78,o),
(81,-104,o),
(81,-139,cs),
(81,-167,o),
(104,-194,o),
(168,-194,cs),
(520,-194,l),
(520,125,l),
(553,214,l),
(553,-229,l),
(151,-229,ls),
(84,-229,o),
(48,-182,o)
);
},
{
ref = "ba-sinhala";
}
);
width = 604;
}
);
},
{
glyphname = "buu-sinhala";
lastChange = "2024-02-24 15:47:17 +0000";
layers = (
{
layerId = "C18F3EFD-FA9C-4751-AD2F-5B966120D1A5";
shapes = (
{
closed = 1;
nodes = (
(48,-135,cs),
(48,-78,o),
(95,-39,o),
(147,-39,cs),
(188,-39,o),
(220,-54,o),
(242,-89,c),
(213,-100,l),
(201,-81,o),
(180,-66,o),
(152,-66,cs),
(114,-66,o),
(83,-90,o),
(83,-126,cs),
(83,-162,o),
(113,-187,o),
(155,-187,cs),
(237,-187,o),
(310,-114,o),
(403,-114,cs),
(445,-114,o),
(494,-133,o),
(520,-164,c),
(520,148,l),
(552,207,l),
(552,-226,l),
(529,-226,l),
(514,-191,o),
(472,-141,o),
(406,-141,cs),
(317,-141,o),
(252,-231,o),
(156,-231,cs),
(102,-231,o),
(48,-201,o)
);
},
{
ref = "ba-sinhala";
}
);
width = 604;
}
);
},
{
glyphname = "c-sinhala";
lastChange = "2024-02-24 15:47:15 +0000";
layers = (
{
layerId = "C18F3EFD-FA9C-4751-AD2F-5B966120D1A5";
shapes = (
{
closed = 1;
nodes = (
(426,378,l),
(426,665,l),
(479,624,o),
(572,619,o),
(572,529,cs),
(572,486,o),
(538,457,o),
(496,457,cs),
(481,457,o),
(467,460,o),
(452,467,c),
(452,361,l)
);
},
{
closed = 1;
nodes = (
(452,491,l),
(461,486,o),
(471,484,o),
(484,484,cs),
(521,484,o),
(536,509,o),
(536,532,cs),
(536,573,o),
(498,593,o),
(452,623,c)
);
},
{
ref = "ga-sinhala";
}
);
width = 621;
}
);
},
{
glyphname = "ca_reph-sinhala";
lastChange = "2024-02-24 15:49:05 +0000";
layers = (
{
anchors = (
{
name = _cursive;
pos = (71,0);
}
);
layerId = "C18F3EFD-FA9C-4751-AD2F-5B966120D1A5";
shapes = (
{
closed = 1;
nodes = (
(268,613,cs),
(268,592,o),
(286,576,o),
(307,576,cs),
(328,576,o),
(347,592,o),
(347,613,cs),
(347,634,o),
(328,649,o),
(307,649,cs),
(286,649,o),
(268,634,o)
);
},
{
closed = 1;
nodes = (
(168,631,cs),
(168,693,o),
(225,730,o),
(305,730,cs),
(380,730,o),
(441,688,o),
(441,619,cs),
(441,589,o),
(433,564,o),
(406,533,c),
(376,542,l),
(399,566,o),
(412,584,o),
(412,617,cs),
(412,673,o),
(363,703,o),
(303,703,cs),
(251,703,o),
(198,683,o),
(198,631,cs),
(198,593,o),
(239,575,o),
(261,573,c),
(253,579,o),
(240,592,o),
(240,613,cs),
(240,647,o),
(272,672,o),
(307,672,cs),
(347,672,o),
(373,645,o),
(373,611,cs),
(373,573,o),
(340,549,o),
(283,549,cs),
(225,549,o),
(168,576,o)
);
},
{
ref = "ca-sinhala";
}
);
width = 583;
}
);
},
{
glyphname = "ch-sinhala";
lastChange = "2024-02-24 15:47:17 +0000";
layers = (
{
layerId = "C18F3EFD-FA9C-4751-AD2F-5B966120D1A5";
shapes = (
{
closed = 1;
nodes = (
(282,348,l),
(282,738,l),
(338,692,o),
(426,687,o),
(426,611,cs),
(426,566,o),
(393,537,o),
(351,537,cs),
(337,537,o),
(323,538,o),
(308,543,c),
(308,391,l)
);
},
{
closed = 1;
nodes = (
(308,567,l),
(318,563,o),
(329,562,o),
(344,562,cs),
(376,562,o),
(390,585,o),
(390,607,cs),
(390,656,o),
(344,671,o),
(308,695,c)
);
},
{
ref = "cha-sinhala";
}
);
width = 583;
}
);
},
{
glyphname = "cha_reph-sinhala";
lastChange = "2024-02-24 15:49:05 +0000";
layers = (
{
layerId = "C18F3EFD-FA9C-4751-AD2F-5B966120D1A5";
shapes = (
{
closed = 1;
nodes = (
(263,535,o),
(244,519,o),
(244,499,cs),
(244,479,o),
(263,463,o),
(284,463,cs),
(305,463,o),
(323,479,o),
(323,499,cs),
(323,519,o),
(305,535,o),
(284,535,cs)
);
},
{
closed = 1;
nodes = (
(201,435,o),
(144,463,o),
(144,518,cs),
(144,580,o),
(201,616,o),
(281,616,cs),
(356,616,o),
(418,574,o),
(418,505,cs),
(418,482,o),
(410,460,o),
(394,441,c),
(369,441,l),
(376,453,o),
(387,477,o),
(387,504,cs),
(387,557,o),
(340,588,o),
(280,588,cs),
(228,588,o),
(176,567,o),
(176,518,cs),
(176,480,o),
(218,462,o),
(235,460,c),
(227,466,o),
(217,479,o),
(217,500,cs),
(217,534,o),
(248,559,o),
(283,559,cs),
(323,559,o),
(350,532,o),
(350,498,cs),
(350,460,o),
(316,435,o),
(259,435,cs)
);
},
{
ref = "cha-sinhala";
}
);
width = 583;
}
);
},
{
glyphname = "chi-sinhala";
lastChange = "2024-02-24 15:47:17 +0000";
layers = (
{
layerId = "C18F3EFD-FA9C-4751-AD2F-5B966120D1A5";
shapes = (
{
closed = 1;
nodes = (
(228,479,cs),
(228,564,o),
(296,642,o),
(373,642,cs),
(419,642,o),
(450,611,o),
(450,569,cs),
(450,565,o),
(449,563,o),
(449,559,c),
(420,531,l),
(424,537,o),
(426,551,o),
(426,562,cs),
(426,590,o),
(414,607,o),
(384,607,cs),
(328,607,o),
(270,537,o),
(270,475,cs),
(270,444,o),
(284,419,o),
(324,419,cs),
(338,419,o),
(348,421,o),
(365,426,c),
(361,415,l),
(348,407,o),
(321,398,o),
(319,397,c),
(318,397,o),
(316,397,o),
(315,397,cs),
(253,397,o),
(228,430,o)
);
},
{
ref = "cha-sinhala";
}
);
width = 583;
}
);
},
{
glyphname = "chii-sinhala";
lastChange = "2024-02-24 15:47:17 +0000";
layers = (
{
layerId = "C18F3EFD-FA9C-4751-AD2F-5B966120D1A5";
shapes = (
{
closed = 1;
nodes = (
(330,565,cs),
(330,539,o),
(351,518,o),
(377,518,cs),
(403,518,o),
(425,539,o),
(425,565,cs),
(425,591,o),
(403,613,o),
(377,613,cs),
(351,613,o),
(330,591,o)
);
},
{
closed = 1;
nodes = (
(228,479,cs),
(228,564,o),
(297,641,o),
(378,641,cs),
(422,641,o),
(453,604,o),
(453,565,cs),
(453,528,o),
(424,490,o),
(378,490,cs),
(331,490,o),
(305,528,o),
(305,561,cs),
(305,561,o),
(305,562,o),
(305,563,c),
(286,539,o),
(270,508,o),
(270,475,cs),
(270,444,o),
(284,419,o),
(324,419,cs),
(338,419,o),
(348,421,o),
(365,426,c),
(361,415,l),
(348,407,o),
(321,398,o),
(319,397,c),
(318,397,o),
(316,397,o),
(315,397,cs),
(253,397,o),
(228,430,o)
);
},
{
ref = "cha-sinhala";
}
);
width = 583;
}
);
},
{
glyphname = "chu-sinhala";
lastChange = "2024-02-24 15:47:17 +0000";
layers = (
{
layerId = "C18F3EFD-FA9C-4751-AD2F-5B966120D1A5";
shapes = (
{
closed = 1;
nodes = (
(38,-139,cs),
(38,-88,o),
(83,-49,o),
(137,-49,cs),
(178,-49,o),
(214,-72,o),
(229,-107,c),
(199,-119,l),
(192,-99,o),
(169,-78,o),
(137,-78,cs),
(101,-78,o),
(70,-104,o),
(70,-139,cs),
(70,-167,o),
(93,-194,o),
(157,-194,cs),
(496,-194,l),
(496,125,l),
(527,193,l),
(527,-229,l),
(141,-229,ls),
(74,-229,o),
(38,-182,o)
);
},
{
ref = "cha-sinhala";
}
);
width = 583;
}
);
},
{
glyphname = "chuu-sinhala";
lastChange = "2024-02-24 15:47:17 +0000";
layers = (
{
layerId = "C18F3EFD-FA9C-4751-AD2F-5B966120D1A5";
shapes = (
{
closed = 1;
nodes = (
(38,-135,cs),
(38,-78,o),
(86,-39,o),
(138,-39,cs),
(179,-39,o),
(210,-54,o),
(232,-89,c),
(203,-100,l),
(191,-81,o),
(171,-66,o),
(143,-66,cs),
(105,-66,o),
(73,-90,o),
(73,-126,cs),
(73,-162,o),
(104,-187,o),
(146,-187,cs),
(228,-187,o),
(293,-114,o),
(386,-114,cs),
(433,-114,o),
(472,-135,o),
(496,-164,c),
(496,138,l),
(528,196,l),
(528,-226,l),
(506,-226,l),
(491,-191,o),
(452,-141,o),
(389,-141,cs),
(300,-141,o),
(242,-231,o),
(146,-231,cs),
(92,-231,o),
(38,-201,o)
);
},
{
ref = "cha-sinhala";
}
);
width = 583;
}
);
},
{
glyphname = "ci-sinhala";
lastChange = "2024-02-24 15:47:17 +0000";
layers = (
{
layerId = "C18F3EFD-FA9C-4751-AD2F-5B966120D1A5";
shapes = (
{
closed = 1;
nodes = (
(67,549,cs),
(67,637,o),
(195,654,o),
(293,654,cs),
(426,654,o),
(533,624,o),
(533,541,cs),
(533,490,o),
(480,469,o),
(447,463,c),
(398,479,l),
(433,480,o),
(487,494,o),
(487,531,cs),
(487,586,o),
(398,597,o),
(293,597,cs),
(219,597,o),
(108,592,o),
(108,541,cs),
(108,496,o),
(171,496,o),
(271,492,cs),
(334,489,o),
(426,487,o),
(480,448,cs),
(528,413,o),
(563,348,o),
(563,268,c),
(525,290,l),
(525,330,o),
(514,375,o),
(487,404,cs),
(435,461,o),
(371,461,o),
(272,467,cs),
(185,472,o),
(67,465,o)
);
},
{
closed = 1;
nodes = (
(62,161,cs),
(62,191,o),
(73,222,o),
(95,242,cs),
(111,256,o),
(129,266,o),
(154,271,c),
(187,283,o),
(228,295,o),
(264,295,cs),
(280,295,l),
(280,297,o),
(280,299,o),
(280,301,cs),
(280,354,o),
(248,386,o),
(210,386,cs),
(165,386,o),
(159,363,o),
(154,347,cs),
(148,328,o),
(138,315,o),
(117,315,cs),
(101,315,o),
(81,327,o),
(81,352,cs),
(81,396,o),
(130,422,o),
(184,422,cs),
(270,422,o),
(312,367,o),
(312,283,cs),
(312,280,o),
(312,274,o),
(312,271,c),
(244,271,ls),
(201,271,o),
(162,259,o),
(138,243,cs),
(112,226,o),
(99,201,o),
(99,176,cs),
(99,92,o),
(203,69,o),
(291,69,cs),
(440,69,o),
(525,152,o),
(525,297,c),
(563,268,l),
(563,112,o),
(467,0,o),
(288,0,cs),
(170,0,o),
(62,45,o)
);
},
{
closed = 1;
nodes = (
(14,264,c),
(14,295,l),
(278,295,l),
(308,271,l),
(145,271,ls),
(76,270,o),
(30,267,o)
);
}
);
width = 606;
}
);
},
{
glyphname = "cii-sinhala";
lastChange = "2024-02-24 15:47:17 +0000";
layers = (
{
layerId = "C18F3EFD-FA9C-4751-AD2F-5B966120D1A5";
shapes = (
{
closed = 1;
nodes = (
(385,542,cs),
(385,513,o),
(411,489,o),
(443,489,cs),
(475,489,o),
(502,513,o),
(502,542,cs),
(502,571,o),
(475,595,o),
(443,595,cs),
(411,595,o),
(385,571,o)
);
},
{
closed = 1;
nodes = (
(67,549,cs),
(67,637,o),
(195,654,o),
(293,654,cs),
(426,654,o),
(533,624,o),
(533,545,cs),
(533,493,o),
(486,463,o),
(443,463,cs),
(400,463,o),
(354,493,o),
(354,545,cs),
(354,569,o),
(366,586,o),
(372,594,c),
(365,595,o),
(334,597,o),
(293,597,cs),
(219,597,o),
(108,592,o),
(108,541,cs),
(108,496,o),
(171,496,o),
(271,492,cs),
(334,489,o),
(426,487,o),
(480,448,cs),
(528,413,o),
(563,351,o),
(563,268,c),
(525,279,l),
(525,325,o),
(514,375,o),
(487,404,cs),
(435,461,o),
(371,461,o),
(272,467,cs),
(185,472,o),
(67,465,o)
);
},
{
closed = 1;
nodes = (
(62,161,cs),
(62,191,o),
(73,222,o),
(95,242,cs),
(111,256,o),
(129,266,o),
(154,271,c),
(187,283,o),
(228,295,o),
(264,295,cs),
(280,295,l),
(280,297,o),
(280,299,o),
(280,301,cs),
(280,354,o),
(248,386,o),
(210,386,cs),
(165,386,o),
(159,363,o),
(154,347,cs),
(148,328,o),
(138,315,o),
(117,315,cs),
(101,315,o),
(81,327,o),
(81,352,cs),
(81,396,o),
(130,422,o),
(184,422,cs),
(270,422,o),
(312,367,o),
(312,283,cs),
(312,280,o),
(312,274,o),
(312,271,c),
(244,271,ls),
(201,271,o),
(162,259,o),
(138,243,cs),
(112,226,o),
(99,201,o),
(99,176,cs),
(99,92,o),
(203,69,o),
(291,69,cs),
(440,69,o),
(525,152,o),
(525,297,c),
(563,268,l),
(563,112,o),
(467,0,o),
(288,0,cs),
(170,0,o),
(62,45,o)
);
},
{
closed = 1;
nodes = (
(14,264,c),
(14,295,l),
(278,295,l),
(308,271,l),
(145,271,ls),
(76,270,o),
(30,267,o)
);
}
);
width = 606;
}
);
},
{
glyphname = "cu-sinhala";
lastChange = "2024-02-24 15:47:17 +0000";
layers = (
{
layerId = "C18F3EFD-FA9C-4751-AD2F-5B966120D1A5";
shapes = (
{
closed = 1;
nodes = (
(68,-139,cs),
(68,-88,o),
(114,-49,o),
(168,-49,cs),
(209,-49,o),
(245,-72,o),
(260,-107,c),
(230,-119,l),
(223,-99,o),
(200,-78,o),
(168,-78,cs),
(132,-78,o),
(102,-104,o),
(102,-139,cs),
(102,-167,o),
(124,-194,o),
(188,-194,cs),
(504,-194,l),
(504,125,l),
(536,214,l),
(536,-229,l),
(172,-229,ls),
(105,-229,o),
(68,-182,o)
);
},
{
ref = "ca-sinhala";
}
);
width = 583;
}
);
},
{
glyphname = "cuu-sinhala";
lastChange = "2024-02-24 15:47:17 +0000";
layers = (
{
layerId = "C18F3EFD-FA9C-4751-AD2F-5B966120D1A5";
shapes = (
{
closed = 1;
nodes = (
(68,-135,cs),
(68,-78,o),
(116,-39,o),
(168,-39,cs),
(209,-39,o),
(242,-54,o),
(264,-89,c),
(234,-100,l),
(222,-81,o),
(202,-66,o),
(174,-66,cs),
(136,-66,o),
(104,-90,o),
(104,-126,cs),
(104,-162,o),
(134,-187,o),
(176,-187,cs),
(258,-187,o),
(320,-114,o),
(413,-114,cs),
(460,-114,o),
(495,-133,o),
(521,-164,c),
(521,148,l),
(553,207,l),
(553,-226,l),
(530,-226,l),
(515,-191,o),
(479,-141,o),
(416,-141,cs),
(327,-141,o),
(274,-231,o),
(178,-231,cs),
(124,-231,o),
(68,-201,o)
);
},
{
ref = "ca-sinhala";
}
);
width = 583;
}
);
},
{
glyphname = "d-sinhala";
lastChange = "2024-02-24 15:47:15 +0000";
layers = (
{
layerId = "C18F3EFD-FA9C-4751-AD2F-5B966120D1A5";
shapes = (
{
closed = 1;
nodes = (
(442,378,l),
(442,665,l),
(495,624,o),
(589,619,o),
(589,529,cs),
(589,486,o),
(555,457,o),
(513,457,cs),
(498,457,o),
(484,460,o),
(469,467,c),
(469,361,l)
);
},
{
closed = 1;
nodes = (
(469,491,l),
(478,486,o),
(488,484,o),
(501,484,cs),
(538,484,o),
(553,509,o),
(553,532,cs),
(553,573,o),
(515,593,o),
(469,623,c)
);
},
{
ref = "ha-sinhala";
}
);
width = 637;
}
);
},
{
glyphname = "da_reph-sinhala";
lastChange = "2024-02-24 15:49:05 +0000";
layers = (
{
anchors = (
{
name = _cursive;
pos = (50,0);
}
);
layerId = "C18F3EFD-FA9C-4751-AD2F-5B966120D1A5";
shapes = (
{
closed = 1;
nodes = (
(194,499,cs),
(194,478,o),
(213,463,o),
(234,463,cs),
(255,463,o),
(273,478,o),
(273,499,cs),
(273,520,o),
(255,535,o),
(234,535,cs),
(213,535,o),
(194,520,o)
);
},
{
closed = 1;
nodes = (
(94,518,cs),
(94,580,o),
(150,616,o),
(230,616,cs),
(305,616,o),
(369,574,o),
(369,505,cs),
(369,482,o),
(361,460,o),
(344,441,c),
(312,441,l),
(325,453,o),
(339,478,o),
(339,504,cs),
(339,560,o),
(290,590,o),
(230,590,cs),
(178,590,o),
(125,570,o),
(125,518,cs),
(125,480,o),
(166,461,o),
(188,459,c),
(180,465,o),
(168,479,o),
(168,500,cs),
(168,534,o),
(197,559,o),
(232,559,cs),
(272,559,o),
(301,532,o),
(301,498,cs),
(301,460,o),
(266,435,o),
(209,435,cs),
(151,435,o),
(94,463,o)
);
},
{
ref = "da-sinhala";
}
);
width = 445;
}
);
},
{
glyphname = "dd-sinhala";
lastChange = "2024-02-24 15:47:17 +0000";
layers = (
{
layerId = "C18F3EFD-FA9C-4751-AD2F-5B966120D1A5";
shapes = (
{
closed = 1;
nodes = (
(144,530,cs),
(144,518,o),
(167,514,o),
(167,503,cs),
(167,501,o),
(166,498,o),
(164,496,c),
(196,502,o),
(235,507,o),
(280,507,cs),
(385,507,o),
(468,478,o),
(525,412,c),
(493,524,o),
(398,576,o),
(285,576,cs),
(215,576,o),
(144,553,o)
);
},
{
closed = 1;
nodes = (
(49,432,c),
(49,462,l),
(80,474,o),
(131,487,o),
(131,496,cs),
(131,508,o),
(104,512,o),
(104,533,cs),
(104,569,o),
(167,614,o),
(279,614,cs),
(482,614,o),
(554,479,o),
(566,348,c),
(577,322,o),
(584,289,o),
(584,248,c),
(549,244,l),
(549,247,o),
(549,261,o),
(549,266,cs),
(549,400,o),
(440,481,o),
(283,481,cs),
(209,481,o),
(128,469,o)
);
},
{
closed = 1;
nodes = (
(15,281,l),
(15,308,l),
(255,308,l),
(252,350,o),
(222,382,o),
(193,382,cs),
(175,382,o),
(161,377,o),
(147,354,cs),
(136,335,o),
(124,331,o),
(110,331,cs),
(90,331,o),
(74,344,o),
(74,365,cs),
(74,404,o),
(120,422,o),
(161,422,cs),
(243,422,o),
(287,365,o),
(288,281,c),
(215,281,ls),
(124,281,o),
(81,225,o),
(81,170,cs),
(81,119,o),
(120,69,o),
(193,69,cs),
(241,69,o),
(292,93,o),
(292,140,cs),
(292,174,l),
(318,174,l),
(318,140,ls),
(318,95,o),
(365,69,o),
(414,69,cs),
(508,69,o),
(549,163,o),
(549,267,c),
(564,264,o),
(577,256,o),
(584,252,c),
(584,123,o),
(534,0,o),
(418,0,cs),
(355,0,o),
(327,29,o),
(306,58,c),
(277,22,o),
(244,0,o),
(194,0,cs),
(95,0,o),
(45,79,o),
(45,158,cs),
(45,207,o),
(69,258,o),
(122,281,c)
);
}
);
width = 631;
}
);
},
{
glyphname = "dda_reph-sinhala";
lastChange = "2024-02-24 15:49:05 +0000";
layers = (
{
anchors = (
{
name = _cursive;
pos = (42,0);
}
);
layerId = "C18F3EFD-FA9C-4751-AD2F-5B966120D1A5";
shapes = (
{
closed = 1;
nodes = (
(271,607,cs),
(271,586,o),
(290,571,o),
(311,571,cs),
(332,571,o),
(351,586,o),
(351,607,cs),
(351,628,o),
(332,644,o),
(311,644,cs),
(290,644,o),
(271,628,o)
);
},
{
closed = 1;
nodes = (
(171,626,cs),
(171,688,o),
(228,725,o),
(308,725,cs),
(383,725,o),
(445,682,o),
(445,613,cs),
(445,590,o),
(438,569,o),
(421,550,c),
(389,550,l),
(402,562,o),
(416,586,o),
(416,612,cs),
(416,668,o),
(367,698,o),
(307,698,cs),
(255,698,o),
(201,678,o),
(201,626,cs),
(201,588,o),
(243,569,o),
(265,567,c),
(257,573,o),
(244,587,o),
(244,608,cs),
(244,642,o),
(275,667,o),
(310,667,cs),
(350,667,o),
(377,640,o),
(377,606,cs),
(377,568,o),
(343,543,o),
(286,543,cs),
(228,543,o),
(171,571,o)
);
},
{
ref = "dda-sinhala";
}
);
width = 631;
}
);
},
{
glyphname = "ddh-sinhala";
lastChange = "2024-02-24 15:47:17 +0000";
layers = (
{
layerId = "C18F3EFD-FA9C-4751-AD2F-5B966120D1A5";
shapes = (
{
closed = 1;
nodes = (
(466,507,l),
(472,504,o),
(487,501,o),
(498,501,cs),
(527,501,o),
(550,514,o),
(550,549,cs),
(550,604,o),
(487,620,o),
(466,637,c)
);
},
{
closed = 1;
nodes = (
(438,472,l),
(438,681,l),
(493,635,o),
(590,639,o),
(590,548,cs),
(590,509,o),
(561,477,o),
(515,477,cs),
(492,477,o),
(475,481,o),
(466,484,c),
(466,442,l)
);
},
{
closed = 1;
nodes = (
(322,469,cs),
(322,421,o),
(342,382,o),
(398,382,cs),
(421,382,o),
(451,392,o),
(466,426,c),
(438,465,o),
(381,516,o),
(344,543,c),
(334,528,o),
(322,503,o)
);
},
{
closed = 1;
nodes = (
(15,281,l),
(15,308,l),
(252,308,l),
(249,350,o),
(219,382,o),
(190,382,cs),
(172,382,o),
(159,377,o),
(145,354,cs),
(134,335,o),
(121,331,o),
(107,331,cs),
(87,331,o),
(71,344,o),
(71,365,cs),
(71,404,o),
(117,422,o),
(158,422,cs),
(240,422,o),
(284,365,o),
(285,281,c),
(215,281,ls),
(124,281,o),
(81,225,o),
(81,170,cs),
(81,119,o),
(120,69,o),
(193,69,cs),
(241,69,o),
(292,93,o),
(292,140,cs),
(292,174,l),
(318,174,l),
(318,140,ls),
(318,95,o),
(365,69,o),
(414,69,cs),
(508,69,o),
(546,163,o),
(546,227,cs),
(546,311,o),
(505,367,o),
(484,398,c),
(463,364,o),
(433,347,o),
(391,347,cs),
(329,347,o),
(293,401,o),
(293,465,cs),
(293,514,o),
(310,548,o),
(334,579,c),
(394,547,o),
(465,475,o),
(506,418,cs),
(548,359,o),
(583,285,o),
(583,212,cs),
(583,125,o),
(540,0,o),
(416,0,cs),
(355,0,o),
(327,29,o),
(306,58,c),
(277,22,o),
(244,0,o),
(194,0,cs),
(95,0,o),
(45,79,o),
(45,158,cs),
(45,207,o),
(69,258,o),
(122,281,c)
);
}
);
width = 631;
}
);
},
{
glyphname = "ddha_reph-sinhala";
lastChange = "2024-02-24 15:49:05 +0000";
layers = (
{
layerId = "C18F3EFD-FA9C-4751-AD2F-5B966120D1A5";
shapes = (
{
closed = 1;
nodes = (
(181,512,o),
(162,496,o),
(162,475,cs),
(162,454,o),
(181,439,o),
(202,439,cs),
(223,439,o),
(242,454,o),
(242,475,cs),
(242,496,o),
(223,512,o),
(202,512,cs)
);
},
{
closed = 1;
nodes = (
(120,411,o),
(62,439,o),
(62,494,cs),
(62,556,o),
(119,593,o),
(199,593,cs),
(274,593,o),
(337,550,o),
(337,481,cs),
(337,458,o),
(329,437,o),
(312,418,c),
(286,418,l),
(295,430,o),
(308,454,o),
(308,483,cs),
(308,536,o),
(258,566,o),
(198,566,cs),
(146,566,o),
(93,546,o),
(93,494,cs),
(93,456,o),
(134,437,o),
(156,435,c),
(148,441,o),
(136,455,o),
(136,476,cs),
(136,510,o),
(166,535,o),
(201,535,cs),
(241,535,o),
(269,509,o),
(269,475,cs),
(269,437,o),
(235,411,o),
(178,411,cs)
);
},
{
ref = DDha;
}
);
width = 631;
}
);
},
{
glyphname = "ddhi-sinhala";
lastChange = "2024-02-24 15:47:17 +0000";
layers = (
{
layerId = "C18F3EFD-FA9C-4751-AD2F-5B966120D1A5";
shapes = (
{
closed = 1;
nodes = (
(334,469,cs),
(334,421,o),
(352,382,o),
(408,382,cs),
(431,382,o),
(462,392,o),
(478,426,c),
(450,465,o),
(391,516,o),
(354,543,c),
(344,528,o),
(334,503,o)
);
},
{
closed = 1;
nodes = (
(15,281,l),
(15,308,l),
(252,308,l),
(249,350,o),
(219,382,o),
(190,382,cs),
(172,382,o),
(159,377,o),
(145,354,cs),
(134,335,o),
(121,331,o),
(107,331,cs),
(87,331,o),
(71,344,o),
(71,365,cs),
(71,404,o),
(117,422,o),
(158,422,cs),
(240,422,o),
(284,365,o),
(285,281,c),
(215,281,ls),
(124,281,o),
(81,225,o),
(81,170,cs),
(81,119,o),
(120,69,o),
(193,69,cs),
(241,69,o),
(292,93,o),
(292,140,cs),
(292,174,l),
(318,174,l),
(318,140,ls),
(318,95,o),
(365,69,o),
(414,69,cs),
(508,69,o),
(546,163,o),
(546,227,cs),
(546,311,o),
(518,369,o),
(497,398,c),
(476,364,o),
(445,347,o),
(402,347,cs),
(340,347,o),
(305,401,o),
(305,465,cs),
(305,514,o),
(322,548,o),
(346,579,c),
(406,548,o),
(474,482,o),
(517,424,cs),
(564,361,o),
(583,288,o),
(583,212,cs),
(583,125,o),
(540,0,o),
(416,0,cs),
(355,0,o),
(327,29,o),
(306,58,c),
(277,22,o),
(244,0,o),
(194,0,cs),
(95,0,o),
(45,79,o),
(45,158,cs),
(45,207,o),
(69,258,o),
(122,281,c)
);
},
{
closed = 1;
nodes = (
(109,561,cs),
(109,651,o),
(221,684,o),
(326,684,cs),
(426,684,o),
(543,649,o),
(543,560,cs),
(543,514,o),
(507,487,o),
(453,487,c),
(447,492,o),
(441,501,o),
(437,509,c),
(450,510,o),
(508,508,o),
(508,552,cs),
(508,608,o),
(401,620,o),
(329,620,cs),
(213,620,o),
(147,597,o),
(147,553,cs),
(147,515,o),
(190,502,o),
(223,502,cs),
(267,502,o),
(299,514,o),
(316,522,c),
(315,516,o),
(316,509,o),
(312,493,c),
(288,485,o),
(263,478,o),
(221,478,cs),
(162,478,o),
(109,504,o)
);
}
);
width = 631;
}
);
},
{
glyphname = "ddhii-sinhala";
lastChange = "2024-02-24 15:47:17 +0000";
layers = (
{
layerId = "C18F3EFD-FA9C-4751-AD2F-5B966120D1A5";
shapes = (
{
closed = 1;
nodes = (
(334,469,cs),
(334,421,o),
(352,382,o),
(408,382,cs),
(431,382,o),
(462,392,o),
(478,426,c),
(450,465,o),
(391,516,o),
(354,543,c),
(344,528,o),
(334,503,o)
);
},
{
closed = 1;
nodes = (
(15,281,l),
(15,308,l),
(252,308,l),
(249,350,o),
(219,382,o),
(190,382,cs),
(172,382,o),
(159,377,o),
(145,354,cs),
(134,335,o),
(121,331,o),
(107,331,cs),
(87,331,o),
(71,344,o),
(71,365,cs),
(71,404,o),
(117,422,o),
(158,422,cs),
(240,422,o),
(284,365,o),
(285,281,c),
(215,281,ls),
(124,281,o),
(81,225,o),
(81,170,cs),
(81,119,o),
(120,69,o),
(193,69,cs),
(241,69,o),
(292,93,o),
(292,140,cs),
(292,174,l),
(318,174,l),
(318,140,ls),
(318,95,o),
(365,69,o),
(414,69,cs),
(508,69,o),
(546,163,o),
(546,227,cs),
(546,311,o),
(518,369,o),
(497,398,c),
(476,364,o),
(445,347,o),
(402,347,cs),
(340,347,o),
(305,401,o),
(305,465,cs),
(305,514,o),
(322,548,o),
(346,579,c),
(406,548,o),
(474,482,o),
(517,424,cs),
(564,361,o),
(583,288,o),
(583,212,cs),
(583,125,o),
(540,0,o),
(416,0,cs),
(355,0,o),
(327,29,o),
(306,58,c),
(277,22,o),
(244,0,o),
(194,0,cs),
(95,0,o),
(45,79,o),
(45,158,cs),
(45,207,o),
(69,258,o),
(122,281,c)
);
},
{
closed = 1;
nodes = (
(438,562,cs),
(438,534,o),
(459,512,o),
(487,512,cs),
(515,512,o),
(537,534,o),
(537,562,cs),
(537,590,o),
(515,612,o),
(487,612,cs),
(459,612,o),
(438,590,o)
);
},
{
closed = 1;
nodes = (
(109,561,cs),
(109,651,o),
(221,684,o),
(327,684,cs),
(490,684,o),
(566,636,o),
(566,562,cs),
(566,523,o),
(536,483,o),
(487,483,cs),
(440,483,o),
(408,522,o),
(408,561,cs),
(408,575,o),
(414,597,o),
(431,614,c),
(410,619,o),
(370,623,o),
(322,623,cs),
(211,623,o),
(147,597,o),
(147,553,cs),
(147,515,o),
(190,502,o),
(223,502,cs),
(267,502,o),
(299,514,o),
(316,522,c),
(315,516,o),
(316,509,o),
(312,493,c),
(288,485,o),
(263,478,o),
(221,478,cs),
(162,478,o),
(109,504,o)
);
}
);
width = 631;
}
);
},
{
glyphname = "ddhu-sinhala";
lastChange = "2024-02-24 15:47:17 +0000";
layers = (
{
layerId = "C18F3EFD-FA9C-4751-AD2F-5B966120D1A5";
shapes = (
{
closed = 1;
nodes = (
(51,-139,cs),
(51,-88,o),
(95,-49,o),
(149,-49,cs),
(190,-49,o),
(226,-72,o),
(241,-107,c),
(212,-119,l),
(205,-99,o),
(181,-78,o),
(149,-78,cs),
(113,-78,o),
(83,-104,o),
(83,-139,cs),
(83,-167,o),
(106,-194,o),
(170,-194,cs),
(539,-194,l),
(539,125,l),
(571,214,l),
(571,-229,l),
(153,-229,ls),
(86,-229,o),
(51,-182,o)
);
},
{
ref = DDha;
}
);
width = 631;
}
);
},
{
glyphname = "ddhuu-sinhala";
lastChange = "2024-02-24 15:47:17 +0000";
layers = (
{
layerId = "C18F3EFD-FA9C-4751-AD2F-5B966120D1A5";
shapes = (
{
closed = 1;
nodes = (
(50,-135,cs),
(50,-78,o),
(97,-39,o),
(149,-39,cs),
(190,-39,o),
(222,-54,o),
(244,-89,c),
(215,-100,l),
(203,-81,o),
(182,-66,o),
(154,-66,cs),
(116,-66,o),
(85,-90,o),
(85,-126,cs),
(85,-162,o),
(115,-187,o),
(157,-187,cs),
(239,-187,o),
(323,-114,o),
(416,-114,cs),
(465,-114,o),
(514,-133,o),
(540,-164,c),
(540,148,l),
(572,207,l),
(572,-226,l),
(550,-226,l),
(530,-189,o),
(489,-142,o),
(420,-142,cs),
(331,-142,o),
(254,-231,o),
(158,-231,cs),
(104,-231,o),
(50,-201,o)
);
},
{
ref = DDha;
}
);
width = 631;
}
);
},
{
glyphname = "ddi-sinhala";
lastChange = "2024-02-24 15:47:17 +0000";
layers = (
{
layerId = "C18F3EFD-FA9C-4751-AD2F-5B966120D1A5";
shapes = (
{
closed = 1;
nodes = (
(77,549,cs),
(77,637,o),
(210,654,o),
(308,654,cs),
(441,654,o),
(553,624,o),
(553,541,cs),
(553,490,o),
(500,469,o),
(467,463,c),
(418,479,l),
(453,480,o),
(507,494,o),
(507,531,cs),
(507,586,o),
(413,597,o),
(308,597,cs),
(234,597,o),
(118,592,o),
(118,541,cs),
(118,496,o),
(186,496,o),
(286,492,cs),
(349,489,o),
(446,487,o),
(500,448,cs),
(548,413,o),
(584,336,o),
(584,249,c),
(549,262,l),
(549,320,o),
(534,375,o),
(507,404,cs),
(455,461,o),
(386,461,o),
(287,467,cs),
(200,472,o),
(77,465,o)
);
},
{
closed = 1;
nodes = (
(15,281,l),
(15,308,l),
(255,308,l),
(252,350,o),
(222,382,o),
(193,382,cs),
(175,382,o),
(161,377,o),
(147,354,cs),
(136,335,o),
(124,331,o),
(110,331,cs),
(90,331,o),
(74,344,o),
(74,365,cs),
(74,404,o),
(120,422,o),
(161,422,cs),
(243,422,o),
(287,365,o),
(288,281,c),
(215,281,ls),
(124,281,o),
(81,225,o),
(81,170,cs),
(81,119,o),
(120,69,o),
(193,69,cs),
(241,69,o),
(292,93,o),
(292,140,cs),
(292,174,l),
(318,174,l),
(318,140,ls),
(318,95,o),
(365,69,o),
(414,69,cs),
(508,69,o),
(549,163,o),
(549,267,c),
(564,264,o),
(577,256,o),
(584,252,c),
(584,123,o),
(534,0,o),
(418,0,cs),
(355,0,o),
(327,29,o),
(306,58,c),
(277,22,o),
(244,0,o),
(194,0,cs),
(95,0,o),
(45,79,o),
(45,158,cs),
(45,207,o),
(69,258,o),
(122,281,c)
);
}
);
width = 631;
}
);
},
{
glyphname = "ddii-sinhala";
lastChange = "2024-02-24 15:47:17 +0000";
layers = (
{
layerId = "C18F3EFD-FA9C-4751-AD2F-5B966120D1A5";
shapes = (
{
closed = 1;
nodes = (
(404,542,cs),
(404,513,o),
(432,489,o),
(464,489,cs),
(496,489,o),
(522,513,o),
(522,542,cs),
(522,571,o),
(496,595,o),
(464,595,cs),
(432,595,o),
(404,571,o)
);
},
{
closed = 1;
nodes = (
(78,549,cs),
(78,637,o),
(210,654,o),
(308,654,cs),
(441,654,o),
(554,628,o),
(554,545,cs),
(554,493,o),
(507,463,o),
(464,463,cs),
(421,463,o),
(374,493,o),
(374,545,cs),
(374,569,o),
(387,586,o),
(393,594,c),
(386,595,o),
(349,597,o),
(308,597,cs),
(234,597,o),
(119,592,o),
(119,541,cs),
(119,496,o),
(186,496,o),
(286,492,cs),
(349,489,o),
(447,487,o),
(501,448,cs),
(549,413,o),
(584,340,o),
(584,248,c),
(549,264,l),
(549,326,o),
(535,375,o),
(508,404,cs),
(456,461,o),
(386,461,o),
(287,467,cs),
(200,472,o),
(78,465,o)
);
},
{
closed = 1;
nodes = (
(15,281,l),
(15,308,l),
(255,308,l),
(252,350,o),
(222,382,o),
(193,382,cs),
(175,382,o),
(161,377,o),
(147,354,cs),
(136,335,o),
(124,331,o),
(110,331,cs),
(90,331,o),
(74,344,o),
(74,365,cs),
(74,404,o),
(120,422,o),
(161,422,cs),
(243,422,o),
(287,365,o),
(288,281,c),
(215,281,ls),
(124,281,o),
(81,225,o),
(81,170,cs),
(81,119,o),
(120,69,o),
(193,69,cs),
(241,69,o),
(292,93,o),
(292,140,cs),
(292,174,l),
(318,174,l),
(318,140,ls),
(318,95,o),
(365,69,o),
(414,69,cs),
(508,69,o),
(549,163,o),
(549,267,c),
(564,264,o),
(577,256,o),
(584,252,c),
(584,123,o),
(534,0,o),
(418,0,cs),
(355,0,o),
(327,29,o),
(306,58,c),
(277,22,o),
(244,0,o),
(194,0,cs),
(95,0,o),
(45,79,o),
(45,158,cs),
(45,207,o),
(69,258,o),
(122,281,c)
);
}
);
width = 631;
}
);
},
{
glyphname = "ddu-sinhala";
lastChange = "2024-02-24 15:47:17 +0000";
layers = (
{
layerId = "C18F3EFD-FA9C-4751-AD2F-5B966120D1A5";
shapes = (
{
closed = 1;
nodes = (
(51,-139,cs),
(51,-88,o),
(95,-49,o),
(149,-49,cs),
(190,-49,o),
(226,-72,o),
(241,-107,c),
(212,-119,l),
(205,-99,o),
(181,-78,o),
(149,-78,cs),
(113,-78,o),
(83,-104,o),
(83,-139,cs),
(83,-167,o),
(106,-194,o),
(170,-194,cs),
(539,-194,l),
(539,125,l),
(571,214,l),
(571,-229,l),
(153,-229,ls),
(86,-229,o),
(51,-182,o)
);
},
{
ref = "dda-sinhala";
}
);
width = 631;
}
);
},
{
glyphname = "dduu-sinhala";
lastChange = "2024-02-24 15:47:17 +0000";
layers = (
{
layerId = "C18F3EFD-FA9C-4751-AD2F-5B966120D1A5";
shapes = (
{
closed = 1;
nodes = (
(50,-135,cs),
(50,-78,o),
(97,-39,o),
(149,-39,cs),
(190,-39,o),
(222,-54,o),
(244,-89,c),
(215,-100,l),
(203,-81,o),
(182,-66,o),
(154,-66,cs),
(116,-66,o),
(85,-90,o),
(85,-126,cs),
(85,-162,o),
(115,-187,o),
(157,-187,cs),
(239,-187,o),
(323,-114,o),
(416,-114,cs),
(465,-114,o),
(514,-133,o),
(540,-164,c),
(540,148,l),
(572,207,l),
(572,-226,l),
(550,-226,l),
(530,-189,o),
(489,-142,o),
(420,-142,cs),
(331,-142,o),
(254,-231,o),
(158,-231,cs),
(104,-231,o),
(50,-201,o)
);
},
{
ref = "dda-sinhala";
}
);
width = 631;
}
);
},
{
glyphname = "dh-sinhala";
lastChange = "2024-02-24 15:47:17 +0000";
layers = (
{
layerId = "C18F3EFD-FA9C-4751-AD2F-5B966120D1A5";
shapes = (
{
closed = 1;
nodes = (
(136,530,cs),
(136,518,o),
(159,514,o),
(159,503,cs),
(159,501,o),
(158,498,o),
(156,496,c),
(188,502,o),
(227,507,o),
(272,507,cs),
(377,507,o),
(461,478,o),
(518,412,c),
(486,524,o),
(390,576,o),
(277,576,cs),
(207,576,o),
(136,553,o)
);
},
{
closed = 1;
nodes = (
(32,190,cs),
(32,281,o),
(84,356,o),
(148,378,cs),
(169,385,o),
(192,389,o),
(216,389,c),
(216,364,ls),
(213,364,o),
(209,364,o),
(206,364,cs),
(129,364,o),
(65,294,o),
(65,207,cs),
(65,133,o),
(113,69,o),
(184,69,cs),
(234,69,o),
(283,90,o),
(283,152,cs),
(283,191,l),
(311,191,l),
(311,152,ls),
(311,90,o),
(359,69,o),
(407,69,cs),
(505,69,o),
(541,184,o),
(541,260,cs),
(541,404,o),
(432,482,o),
(275,482,cs),
(201,482,o),
(120,469,o),
(41,432,c),
(41,462,l),
(72,474,o),
(123,487,o),
(123,496,cs),
(123,508,o),
(96,512,o),
(96,533,cs),
(96,569,o),
(159,614,o),
(271,614,cs),
(474,614,o),
(547,479,o),
(559,348,c),
(568,324,o),
(576,280,o),
(576,239,cs),
(576,131,o),
(535,0,o),
(412,0,cs),
(364,0,o),
(325,20,o),
(296,58,c),
(266,20,o),
(230,0,o),
(186,0,cs),
(86,0,o),
(32,93,o)
);
}
);
width = 623;
}
);
},
{
glyphname = "dha_reph-sinhala";
lastChange = "2024-02-24 15:49:05 +0000";
layers = (
{
anchors = (
{
name = _cursive;
pos = (45,0);
}
);
layerId = "C18F3EFD-FA9C-4751-AD2F-5B966120D1A5";
shapes = (
{
closed = 1;
nodes = (
(268,607,cs),
(268,586,o),
(286,571,o),
(307,571,cs),
(328,571,o),
(347,586,o),
(347,607,cs),
(347,628,o),
(328,644,o),
(307,644,cs),
(286,644,o),
(268,628,o)
);
},
{
closed = 1;
nodes = (
(168,626,cs),
(168,688,o),
(225,725,o),
(305,725,cs),
(380,725,o),
(441,682,o),
(441,613,cs),
(441,590,o),
(435,569,o),
(418,550,c),
(385,550,l),
(398,562,o),
(412,586,o),
(412,612,cs),
(412,668,o),
(363,698,o),
(303,698,cs),
(251,698,o),
(198,678,o),
(198,626,cs),
(198,588,o),
(239,569,o),
(261,567,c),
(253,573,o),
(240,587,o),
(240,608,cs),
(240,642,o),
(272,667,o),
(307,667,cs),
(347,667,o),
(373,640,o),
(373,606,cs),
(373,568,o),
(340,543,o),
(283,543,cs),
(225,543,o),
(168,571,o)
);
},
{
ref = "dha-sinhala";
}
);
width = 623;
}
);
},
{
glyphname = "dhi-sinhala";
lastChange = "2024-02-24 15:47:17 +0000";
layers = (
{
layerId = "C18F3EFD-FA9C-4751-AD2F-5B966120D1A5";
shapes = (
{
closed = 1;
nodes = (
(32,190,cs),
(32,281,o),
(84,356,o),
(148,378,cs),
(169,385,o),
(192,389,o),
(216,389,c),
(216,364,ls),
(213,364,o),
(209,364,o),
(206,364,cs),
(129,364,o),
(65,293,o),
(65,203,cs),
(65,129,o),
(113,69,o),
(184,69,cs),
(234,69,o),
(283,90,o),
(283,152,cs),
(283,191,l),
(311,191,l),
(311,152,ls),
(311,90,o),
(359,69,o),
(407,69,cs),
(487,69,o),
(540,155,o),
(540,257,cs),
(540,295,o),
(531,362,o),
(493,404,cs),
(441,461,o),
(377,461,o),
(278,467,cs),
(191,472,o),
(73,465,o),
(73,549,cs),
(73,637,o),
(201,654,o),
(299,654,cs),
(432,654,o),
(539,624,o),
(539,541,cs),
(539,493,o),
(492,471,o),
(459,464,c),
(469,459,o),
(477,454,o),
(486,448,cs),
(533,414,o),
(574,345,o),
(576,242,cs),
(576,133,o),
(534,0,o),
(412,0,cs),
(364,0,o),
(325,20,o),
(296,58,c),
(266,20,o),
(230,0,o),
(186,0,cs),
(86,0,o),
(32,93,o)
);
},
{
closed = 1;
nodes = (
(114,541,cs),
(114,496,o),
(177,496,o),
(277,492,cs),
(316,490,o),
(367,489,o),
(412,479,c),
(447,482,o),
(493,497,o),
(493,531,cs),
(493,586,o),
(404,597,o),
(299,597,cs),
(225,597,o),
(114,592,o)
);
}
);
width = 623;
}
);
},
{
glyphname = "dhii-sinhala";
lastChange = "2024-02-24 15:47:17 +0000";
layers = (
{
layerId = "C18F3EFD-FA9C-4751-AD2F-5B966120D1A5";
shapes = (
{
closed = 1;
nodes = (
(32,190,cs),
(32,281,o),
(84,356,o),
(148,378,cs),
(169,385,o),
(192,389,o),
(216,389,c),
(216,364,ls),
(213,364,o),
(209,364,o),
(206,364,cs),
(129,364,o),
(65,293,o),
(65,203,cs),
(65,129,o),
(113,69,o),
(184,69,cs),
(234,69,o),
(283,90,o),
(283,152,cs),
(283,191,l),
(311,191,l),
(311,152,ls),
(311,90,o),
(359,69,o),
(407,69,cs),
(487,69,o),
(540,155,o),
(540,257,cs),
(540,311,o),
(529,365,o),
(493,404,cs),
(441,461,o),
(377,461,o),
(278,467,cs),
(191,472,o),
(73,465,o),
(73,549,cs),
(73,637,o),
(201,654,o),
(299,654,cs),
(432,654,o),
(539,624,o),
(539,545,cs),
(539,497,o),
(500,469,o),
(460,464,c),
(470,460,o),
(478,454,o),
(486,448,cs),
(540,407,o),
(576,336,o),
(576,235,cs),
(576,128,o),
(532,0,o),
(412,0,cs),
(364,0,o),
(325,20,o),
(296,58,c),
(266,20,o),
(230,0,o),
(186,0,cs),
(86,0,o),
(32,93,o)
);
},
{
closed = 1;
nodes = (
(391,542,cs),
(391,513,o),
(417,489,o),
(449,489,cs),
(481,489,o),
(508,513,o),
(508,542,cs),
(508,571,o),
(481,595,o),
(449,595,cs),
(417,595,o),
(391,571,o)
);
},
{
closed = 1;
nodes = (
(390,483,c),
(372,497,o),
(359,519,o),
(359,545,cs),
(359,569,o),
(372,586,o),
(378,594,c),
(371,595,o),
(340,597,o),
(299,597,cs),
(225,597,o),
(114,592,o),
(114,541,cs),
(114,496,o),
(177,496,o),
(277,492,cs),
(310,491,o),
(351,490,o)
);
}
);
width = 623;
}
);
},
{
glyphname = "dhu-sinhala";
lastChange = "2024-02-24 15:47:17 +0000";
layers = (
{
layerId = "C18F3EFD-FA9C-4751-AD2F-5B966120D1A5";
shapes = (
{
closed = 1;
nodes = (
(51,-139,cs),
(51,-88,o),
(95,-49,o),
(149,-49,cs),
(190,-49,o),
(226,-72,o),
(241,-107,c),
(212,-119,l),
(205,-99,o),
(181,-78,o),
(149,-78,cs),
(113,-78,o),
(83,-104,o),
(83,-139,cs),
(83,-167,o),
(106,-194,o),
(170,-194,cs),
(529,-194,l),
(529,125,l),
(562,214,l),
(562,-229,l),
(153,-229,ls),
(86,-229,o),
(51,-182,o)
);
},
{
ref = "dha-sinhala";
}
);
width = 623;
}
);
},
{
glyphname = "dhuu-sinhala";
lastChange = "2024-02-24 15:47:17 +0000";
layers = (
{
layerId = "C18F3EFD-FA9C-4751-AD2F-5B966120D1A5";
shapes = (
{
closed = 1;
nodes = (
(50,-135,cs),
(50,-78,o),
(97,-39,o),
(149,-39,cs),
(190,-39,o),
(222,-54,o),
(244,-89,c),
(215,-100,l),
(203,-81,o),
(182,-66,o),
(154,-66,cs),
(116,-66,o),
(85,-90,o),
(85,-126,cs),
(85,-162,o),
(115,-187,o),
(157,-187,cs),
(239,-187,o),
(320,-114,o),
(413,-114,cs),
(455,-114,o),
(503,-133,o),
(529,-164,c),
(529,148,l),
(562,207,l),
(562,-226,l),
(539,-226,l),
(524,-191,o),
(482,-141,o),
(416,-141,cs),
(327,-141,o),
(254,-231,o),
(158,-231,cs),
(104,-231,o),
(50,-201,o)
);
},
{
ref = "dha-sinhala";
}
);
width = 623;
}
);
},
{
glyphname = "di-sinhala";
lastChange = "2024-02-24 15:47:17 +0000";
layers = (
{
layerId = "C18F3EFD-FA9C-4751-AD2F-5B966120D1A5";
shapes = (
{
closed = 1;
nodes = (
(34,506,cs),
(34,605,o),
(123,655,o),
(218,655,cs),
(313,655,o),
(401,603,o),
(401,506,cs),
(401,433,o),
(339,397,o),
(288,396,c),
(276,416,l),
(329,416,o),
(372,451,o),
(372,497,cs),
(372,558,o),
(288,584,o),
(218,584,cs),
(148,584,o),
(64,559,o),
(64,497,cs),
(64,450,o),
(106,415,o),
(189,415,c),
(147,396,l),
(83,406,o),
(34,441,o)
);
},
{
ref = "da-sinhala";
}
);
width = 445;
}
);
},
{
glyphname = "dii-sinhala";
lastChange = "2024-02-24 15:47:17 +0000";
layers = (
{
layerId = "C18F3EFD-FA9C-4751-AD2F-5B966120D1A5";
shapes = (
{
closed = 1;
nodes = (
(241,502,cs),
(241,472,o),
(271,447,o),
(306,447,cs),
(341,447,o),
(370,472,o),
(370,502,cs),
(370,532,o),
(341,557,o),
(306,557,cs),
(271,557,o),
(241,532,o)
);
},
{
closed = 1;
nodes = (
(34,506,cs),
(34,605,o),
(123,655,o),
(218,655,cs),
(313,655,o),
(401,601,o),
(401,511,cs),
(401,453,o),
(355,419,o),
(305,419,cs),
(246,419,o),
(210,459,o),
(210,503,cs),
(210,547,o),
(245,573,o),
(271,578,c),
(260,581,o),
(232,584,o),
(218,584,cs),
(148,584,o),
(64,559,o),
(64,497,cs),
(64,450,o),
(106,415,o),
(189,415,c),
(147,396,l),
(83,406,o),
(34,441,o)
);
},
{
ref = "da-sinhala";
}
);
width = 445;
}
);
},
{
glyphname = "du-sinhala";
lastChange = "2024-02-24 15:47:17 +0000";
layers = (
{
layerId = "C18F3EFD-FA9C-4751-AD2F-5B966120D1A5";
shapes = (
{
closed = 1;
nodes = (
(32,-139,cs),
(32,-88,o),
(77,-49,o),
(131,-49,cs),
(172,-49,o),
(208,-72,o),
(223,-107,c),
(193,-119,l),
(186,-99,o),
(163,-78,o),
(131,-78,cs),
(95,-78,o),
(64,-104,o),
(64,-139,cs),
(64,-167,o),
(87,-194,o),
(151,-194,cs),
(365,-194,l),
(365,67,l),
(397,77,l),
(397,-229,l),
(135,-229,ls),
(68,-229,o),
(32,-182,o)
);
},
{
closed = 1;
nodes = (
(30,165,cs),
(30,268,o),
(102,310,o),
(218,310,cs),
(335,310,l),
(325,355,o),
(297,387,o),
(254,387,cs),
(235,387,o),
(220,375,o),
(211,357,cs),
(201,336,o),
(186,328,o),
(171,328,cs),
(147,328,o),
(134,342,o),
(134,363,cs),
(134,398,o),
(173,423,o),
(227,423,cs),
(311,423,o),
(352,380,o),
(370,287,c),
(236,287,ls),
(150,287,o),
(105,251,o),
(105,169,cs),
(105,87,o),
(174,26,o),
(255,26,cs),
(300,26,o),
(343,49,o),
(375,90,c),
(397,77,l),
(358,33,o),
(321,-1,o),
(229,-1,cs),
(101,-1,o),
(30,67,o)
);
}
);
width = 445;
}
);
},
{
glyphname = "duu-sinhala";
lastChange = "2024-02-24 15:47:17 +0000";
layers = (
{
layerId = "C18F3EFD-FA9C-4751-AD2F-5B966120D1A5";
shapes = (
{
closed = 1;
nodes = (
(32,-136,cs),
(32,-79,o),
(80,-40,o),
(132,-40,cs),
(173,-40,o),
(205,-55,o),
(227,-90,c),
(197,-101,l),
(185,-82,o),
(165,-67,o),
(137,-67,cs),
(99,-67,o),
(67,-91,o),
(67,-127,cs),
(67,-163,o),
(95,-188,o),
(137,-188,cs),
(191,-188,o),
(217,-125,o),
(293,-125,cs),
(317,-125,o),
(346,-133,o),
(365,-156,c),
(365,70,l),
(397,77,l),
(397,-227,l),
(375,-227,l),
(361,-190,o),
(343,-150,o),
(299,-150,cs),
(224,-150,o),
(203,-232,o),
(129,-232,cs),
(82,-232,o),
(32,-202,o)
);
},
{
closed = 1;
nodes = (
(30,165,cs),
(30,268,o),
(102,310,o),
(218,310,cs),
(335,310,l),
(325,355,o),
(297,387,o),
(254,387,cs),
(235,387,o),
(220,375,o),
(211,357,cs),
(201,336,o),
(186,328,o),
(171,328,cs),
(147,328,o),
(134,342,o),
(134,363,cs),
(134,398,o),
(173,423,o),
(227,423,cs),
(311,423,o),
(352,380,o),
(370,287,c),
(236,287,ls),
(150,287,o),
(105,251,o),
(105,169,cs),
(105,87,o),
(174,26,o),
(255,26,cs),
(300,26,o),
(343,49,o),
(375,90,c),
(397,77,l),
(358,33,o),
(321,-1,o),
(229,-1,cs),
(101,-1,o),
(30,67,o)
);
}
);
width = 445;
}
);
},
{
glyphname = "f-sinhala";
lastChange = "2024-02-24 15:47:15 +0000";
layers = (
{
layerId = "C18F3EFD-FA9C-4751-AD2F-5B966120D1A5";
shapes = (
{
closed = 1;
nodes = (
(136,530,cs),
(136,518,o),
(159,514,o),
(159,503,cs),
(159,501,o),
(158,498,o),
(156,496,c),
(188,502,o),
(227,507,o),
(272,507,cs),
(377,507,o),
(468,474,o),
(515,412,c),
(483,524,o),
(390,576,o),
(277,576,cs),
(207,576,o),
(136,553,o)
);
},
{
closed = 1;
nodes = (
(41,432,c),
(41,462,l),
(72,474,o),
(123,487,o),
(123,496,cs),
(123,508,o),
(96,512,o),
(96,533,cs),
(96,569,o),
(159,614,o),
(271,614,cs),
(474,614,o),
(544,479,o),
(556,348,c),
(559,335,o),
(563,294,o),
(563,261,c),
(526,272,l),
(526,280,o),
(526,287,o),
(526,291,cs),
(526,403,o),
(436,482,o),
(265,482,cs),
(191,482,o),
(120,469,o)
);
},
{
closed = 1;
nodes = (
(62,161,cs),
(62,191,o),
(73,222,o),
(95,242,cs),
(111,256,o),
(129,266,o),
(154,271,c),
(187,283,o),
(228,295,o),
(264,295,cs),
(280,295,l),
(280,297,o),
(280,299,o),
(280,301,cs),
(280,354,o),
(248,386,o),
(210,386,cs),
(165,386,o),
(159,363,o),
(154,347,cs),
(148,328,o),
(138,315,o),
(117,315,cs),
(101,315,o),
(81,327,o),
(81,352,cs),
(81,396,o),
(130,422,o),
(184,422,cs),
(270,422,o),
(312,367,o),
(312,283,cs),
(312,280,o),
(312,274,o),
(312,271,c),
(244,271,ls),
(201,271,o),
(162,259,o),
(138,243,cs),
(112,226,o),
(99,201,o),
(99,176,cs),
(99,92,o),
(203,69,o),
(291,69,cs),
(440,69,o),
(526,152,o),
(526,297,c),
(563,268,l),
(563,112,o),
(467,0,o),
(288,0,cs),
(170,0,o),
(62,45,o)
);
},
{
closed = 1;
nodes = (
(14,264,c),
(14,295,l),
(278,295,l),
(308,271,l),
(145,271,ls),
(76,270,o),
(30,267,o)
);
}
);
width = 606;
}
);
},
{
glyphname = "fa_reph-sinhala";
lastChange = "2024-02-24 15:49:05 +0000";
layers = (
{
anchors = (
{
name = _cursive;
pos = (43,0);
}
);
layerId = "C18F3EFD-FA9C-4751-AD2F-5B966120D1A5";
shapes = (
{
closed = 1;
nodes = (
(253,499,cs),
(253,478,o),
(272,463,o),
(293,463,cs),
(314,463,o),
(333,478,o),
(333,499,cs),
(333,520,o),
(314,535,o),
(293,535,cs),
(272,535,o),
(253,520,o)
);
},
{
closed = 1;
nodes = (
(153,518,cs),
(153,580,o),
(210,616,o),
(290,616,cs),
(365,616,o),
(428,574,o),
(428,505,cs),
(428,482,o),
(420,460,o),
(403,441,c),
(370,441,l),
(383,453,o),
(398,478,o),
(398,504,cs),
(398,560,o),
(349,590,o),
(289,590,cs),
(237,590,o),
(184,570,o),
(184,518,cs),
(184,480,o),
(224,461,o),
(246,459,c),
(238,465,o),
(227,479,o),
(227,500,cs),
(227,534,o),
(257,559,o),
(292,559,cs),
(332,559,o),
(359,532,o),
(359,498,cs),
(359,460,o),
(326,435,o),
(269,435,cs),
(211,435,o),
(153,463,o)
);
},
{
ref = "fa-sinhala";
}
);
width = 592;
}
);
},
{
glyphname = "fi-sinhala";
lastChange = "2024-02-24 15:47:17 +0000";
layers = (
{
layerId = "C18F3EFD-FA9C-4751-AD2F-5B966120D1A5";
shapes = (
{
closed = 1;
nodes = (
(62,506,cs),
(62,611,o),
(173,655,o),
(289,655,cs),
(405,655,o),
(516,611,o),
(516,506,cs),
(516,433,o),
(451,399,o),
(376,396,c),
(376,416,l),
(429,419,o),
(482,443,o),
(482,497,cs),
(482,566,o),
(376,584,o),
(289,584,cs),
(202,584,o),
(96,566,o),
(96,497,cs),
(96,443,o),
(149,419,o),
(202,416,c),
(202,396,l),
(127,399,o),
(62,433,o)
);
},
{
ref = "fa-sinhala";
}
);
width = 592;
}
);
},
{
glyphname = "fii-sinhala";
lastChange = "2024-02-24 15:47:17 +0000";
layers = (
{
layerId = "C18F3EFD-FA9C-4751-AD2F-5B966120D1A5";
shapes = (
{
closed = 1;
nodes = (
(367,502,cs),
(367,472,o),
(397,447,o),
(432,447,cs),
(467,447,o),
(496,472,o),
(496,502,cs),
(496,532,o),
(467,557,o),
(432,557,cs),
(397,557,o),
(367,532,o)
);
},
{
closed = 1;
nodes = (
(47,505,cs),
(47,606,o),
(161,655,o),
(285,655,cs),
(399,655,o),
(530,613,o),
(530,512,cs),
(530,458,o),
(487,419,o),
(432,419,cs),
(375,419,o),
(336,459,o),
(336,503,cs),
(336,547,o),
(367,568,o),
(386,577,c),
(375,580,o),
(339,586,o),
(286,586,cs),
(194,586,o),
(83,560,o),
(83,487,cs),
(83,449,o),
(109,425,o),
(146,416,c),
(135,396,l),
(82,404,o),
(47,445,o)
);
},
{
ref = "fa-sinhala";
}
);
width = 592;
}
);
},
{
glyphname = "fu-sinhala";
lastChange = "2024-02-24 15:47:18 +0000";
layers = (
{
layerId = "C18F3EFD-FA9C-4751-AD2F-5B966120D1A5";
shapes = (
{
closed = 1;
nodes = (
(53,-139,cs),
(53,-88,o),
(97,-49,o),
(151,-49,cs),
(192,-49,o),
(228,-72,o),
(243,-107,c),
(214,-119,l),
(207,-99,o),
(183,-78,o),
(151,-78,cs),
(115,-78,o),
(85,-104,o),
(85,-139,cs),
(85,-167,o),
(108,-194,o),
(172,-194,cs),
(501,-194,l),
(501,108,l),
(533,177,l),
(533,-229,l),
(155,-229,ls),
(88,-229,o),
(53,-182,o)
);
},
{
ref = "fa-sinhala";
}
);
width = 592;
}
);
},
{
glyphname = "fuu-sinhala";
lastChange = "2024-02-24 15:47:18 +0000";
layers = (
{
layerId = "C18F3EFD-FA9C-4751-AD2F-5B966120D1A5";
shapes = (
{
closed = 1;
nodes = (
(52,-135,cs),
(52,-78,o),
(99,-39,o),
(151,-39,cs),
(192,-39,o),
(224,-54,o),
(246,-89,c),
(217,-100,l),
(205,-81,o),
(184,-66,o),
(156,-66,cs),
(118,-66,o),
(87,-90,o),
(87,-126,cs),
(87,-162,o),
(117,-187,o),
(159,-187,cs),
(241,-187,o),
(303,-114,o),
(396,-114,cs),
(443,-114,o),
(477,-129,o),
(501,-158,c),
(501,97,l),
(533,196,l),
(533,-226,l),
(511,-226,l),
(496,-191,o),
(463,-141,o),
(400,-141,cs),
(311,-141,o),
(256,-231,o),
(160,-231,cs),
(106,-231,o),
(52,-201,o)
);
},
{
ref = "fa-sinhala";
}
);
width = 592;
}
);
},
{
glyphname = "g-sinhala";
lastChange = "2024-02-24 15:47:15 +0000";
layers = (
{
layerId = "C18F3EFD-FA9C-4751-AD2F-5B966120D1A5";
shapes = (
{
closed = 1;
nodes = (
(293,348,l),
(293,738,l),
(349,692,o),
(437,687,o),
(437,611,cs),
(437,566,o),
(403,537,o),
(361,537,cs),
(347,537,o),
(333,538,o),
(318,543,c),
(318,391,l)
);
},
{
closed = 1;
nodes = (
(318,567,l),
(328,563,o),
(339,562,o),
(354,562,cs),
(386,562,o),
(400,585,o),
(400,607,cs),
(400,656,o),
(354,671,o),
(318,695,c)
);
},
{
ref = "ja-sinhala";
}
);
width = 583;
}
);
},
{
glyphname = "gh-sinhala";
lastChange = "2024-02-24 15:47:18 +0000";
layers = (
{
layerId = "C18F3EFD-FA9C-4751-AD2F-5B966120D1A5";
shapes = (
{
closed = 1;
nodes = (
(467,403,l),
(467,664,l),
(520,623,o),
(613,618,o),
(613,528,cs),
(613,485,o),
(579,456,o),
(537,456,cs),
(522,456,o),
(508,459,o),
(493,466,c),
(493,387,l)
);
},
{
closed = 1;
nodes = (
(493,490,l),
(502,485,o),
(512,483,o),
(525,483,cs),
(562,483,o),
(577,508,o),
(577,531,cs),
(577,572,o),
(539,592,o),
(493,622,c)
);
},
{
ref = "gha-sinhala";
}
);
width = 661;
}
);
},
{
glyphname = "gha_reph-sinhala";
lastChange = "2024-02-24 15:49:05 +0000";
layers = (
{
anchors = (
{
name = _cursive;
pos = (54,0);
}
);
layerId = "C18F3EFD-FA9C-4751-AD2F-5B966120D1A5";
shapes = (
{
closed = 1;
nodes = (
(289,479,cs),
(289,458,o),
(308,443,o),
(329,443,cs),
(350,443,o),
(369,458,o),
(369,479,cs),
(369,500,o),
(350,516,o),
(329,516,cs),
(308,516,o),
(289,500,o)
);
},
{
closed = 1;
nodes = (
(189,498,cs),
(189,560,o),
(246,597,o),
(326,597,cs),
(401,597,o),
(464,554,o),
(464,485,cs),
(464,462,o),
(456,441,o),
(439,422,c),
(406,422,l),
(419,434,o),
(435,458,o),
(435,484,cs),
(435,540,o),
(385,570,o),
(325,570,cs),
(273,570,o),
(220,550,o),
(220,498,cs),
(220,460,o),
(261,441,o),
(283,439,c),
(275,445,o),
(263,459,o),
(263,480,cs),
(263,514,o),
(293,539,o),
(328,539,cs),
(368,539,o),
(396,513,o),
(396,479,cs),
(396,441,o),
(362,415,o),
(305,415,cs),
(247,415,o),
(189,443,o)
);
},
{
ref = "gha-sinhala";
}
);
width = 661;
}
);
},
{
glyphname = "ghi-sinhala";
lastChange = "2024-02-24 15:47:18 +0000";
layers = (
{
layerId = "C18F3EFD-FA9C-4751-AD2F-5B966120D1A5";
shapes = (
{
closed = 1;
nodes = (
(100,505,cs),
(100,610,o),
(210,654,o),
(326,654,cs),
(442,654,o),
(553,610,o),
(553,505,cs),
(553,432,o),
(489,398,o),
(414,395,c),
(441,420,l),
(464,422,o),
(520,442,o),
(520,496,cs),
(520,565,o),
(413,583,o),
(326,583,cs),
(239,583,o),
(133,565,o),
(133,496,cs),
(133,442,o),
(186,424,o),
(211,419,c),
(240,395,l),
(165,398,o),
(100,432,o)
);
},
{
ref = "gha-sinhala";
}
);
width = 661;
}
);
},
{
glyphname = "ghii-sinhala";
lastChange = "2024-02-24 15:47:18 +0000";
layers = (
{
layerId = "C18F3EFD-FA9C-4751-AD2F-5B966120D1A5";
shapes = (
{
closed = 1;
nodes = (
(412,502,cs),
(412,472,o),
(442,447,o),
(477,447,cs),
(512,447,o),
(541,472,o),
(541,502,cs),
(541,532,o),
(512,557,o),
(477,557,cs),
(442,557,o),
(412,532,o)
);
},
{
closed = 1;
nodes = (
(84,505,cs),
(84,609,o),
(204,655,o),
(328,655,cs),
(442,655,o),
(576,613,o),
(576,512,cs),
(576,458,o),
(532,419,o),
(477,419,cs),
(420,419,o),
(381,459,o),
(381,503,cs),
(381,547,o),
(413,568,o),
(432,577,c),
(421,580,o),
(383,586,o),
(330,586,cs),
(238,586,o),
(119,564,o),
(119,487,cs),
(119,449,o),
(141,425,o),
(178,416,c),
(172,396,l),
(120,401,o),
(84,445,o)
);
},
{
ref = "gha-sinhala";
}
);
width = 661;
}
);
},
{
glyphname = "ghu-sinhala";
lastChange = "2024-02-24 15:47:18 +0000";
layers = (
{
layerId = "C18F3EFD-FA9C-4751-AD2F-5B966120D1A5";
shapes = (
{
closed = 1;
nodes = (
(64,-139,cs),
(64,-88,o),
(110,-49,o),
(164,-49,cs),
(205,-49,o),
(241,-72,o),
(256,-107,c),
(227,-119,l),
(220,-99,o),
(196,-78,o),
(164,-78,cs),
(128,-78,o),
(98,-104,o),
(98,-139,cs),
(98,-167,o),
(121,-194,o),
(185,-194,cs),
(569,-194,l),
(569,125,l),
(602,214,l),
(602,-229,l),
(168,-229,ls),
(101,-229,o),
(64,-182,o)
);
},
{
ref = "gha-sinhala";
}
);
width = 661;
}
);
},
{
glyphname = "ghuu-sinhala";
lastChange = "2024-02-24 15:47:18 +0000";
layers = (
{
layerId = "C18F3EFD-FA9C-4751-AD2F-5B966120D1A5";
shapes = (
{
closed = 1;
nodes = (
(66,-135,cs),
(66,-78,o),
(114,-39,o),
(166,-39,cs),
(207,-39,o),
(238,-54,o),
(260,-89,c),
(230,-100,l),
(218,-81,o),
(198,-66,o),
(170,-66,cs),
(132,-66,o),
(102,-90,o),
(102,-126,cs),
(102,-162,o),
(132,-187,o),
(174,-187,cs),
(256,-187,o),
(351,-114,o),
(444,-114,cs),
(486,-114,o),
(544,-133,o),
(570,-164,c),
(570,119,l),
(602,207,l),
(602,-226,l),
(580,-226,l),
(565,-191,o),
(513,-141,o),
(447,-141,cs),
(358,-141,o),
(270,-231,o),
(174,-231,cs),
(120,-231,o),
(66,-201,o)
);
},
{
ref = "gha-sinhala";
}
);
width = 661;
}
);
},
{
glyphname = "gi-sinhala";
lastChange = "2024-02-24 15:47:18 +0000";
layers = (
{
layerId = "C18F3EFD-FA9C-4751-AD2F-5B966120D1A5";
shapes = (
{
closed = 1;
nodes = (
(146,524,cs),
(146,613,o),
(243,651,o),
(343,651,cs),
(446,651,o),
(546,604,o),
(546,511,cs),
(546,450,o),
(508,405,o),
(429,399,c),
(411,421,l),
(414,421,o),
(416,421,o),
(419,421,cs),
(476,421,o),
(518,451,o),
(518,500,cs),
(518,563,o),
(421,584,o),
(343,584,cs),
(264,584,o),
(187,555,o),
(187,504,cs),
(187,445,o),
(317,421,o),
(401,421,cs),
(402,421,o),
(402,422,o),
(403,422,c),
(388,402,l),
(232,405,o),
(146,451,o)
);
},
{
closed = 1;
nodes = (
(33,202,cs),
(33,322,o),
(107,422,o),
(202,422,cs),
(206,422,o),
(203,421,o),
(207,421,c),
(207,398,l),
(204,398,o),
(206,398,o),
(203,398,cs),
(133,398,o),
(67,325,o),
(67,225,cs),
(67,144,o),
(114,69,o),
(201,69,cs),
(259,69,o),
(311,96,o),
(311,154,cs),
(311,191,o),
(291,212,o),
(261,212,cs),
(254,212,o),
(244,210,o),
(237,205,c),
(236,199,o),
(235,191,o),
(235,188,c),
(211,188,l),
(221,310,o),
(281,422,o),
(400,422,cs),
(509,422,o),
(572,324,o),
(572,212,cs),
(572,93,o),
(488,-1,o),
(360,-1,cs),
(350,-1,o),
(341,0,o),
(330,1,c),
(330,25,l),
(338,24,o),
(346,23,o),
(354,23,cs),
(458,23,o),
(530,97,o),
(530,195,cs),
(530,294,o),
(473,362,o),
(384,362,cs),
(309,362,o),
(257,305,o),
(241,230,c),
(249,234,o),
(257,235,o),
(264,235,cs),
(311,235,o),
(344,197,o),
(344,133,cs),
(344,55,o),
(288,-2,o),
(203,-2,cs),
(95,-2,o),
(33,94,o)
);
}
);
width = 621;
}
);
},
{
glyphname = "gii-sinhala";
lastChange = "2024-02-24 15:47:18 +0000";
layers = (
{
layerId = "C18F3EFD-FA9C-4751-AD2F-5B966120D1A5";
shapes = (
{
closed = 1;
nodes = (
(33,202,cs),
(33,322,o),
(107,422,o),
(202,422,cs),
(206,422,o),
(203,421,o),
(207,421,c),
(207,398,ls),
(204,398,o),
(206,398,o),
(203,398,cs),
(133,398,o),
(67,325,o),
(67,225,cs),
(67,144,o),
(114,69,o),
(201,69,cs),
(259,69,o),
(311,96,o),
(311,154,cs),
(311,191,o),
(291,212,o),
(261,212,cs),
(254,212,o),
(244,210,o),
(237,205,c),
(236,199,o),
(235,191,o),
(235,188,cs),
(211,188,l),
(219,283,o),
(257,371,o),
(329,406,c),
(210,419,o),
(146,461,o),
(146,524,cs),
(146,613,o),
(243,651,o),
(343,651,cs),
(446,651,o),
(546,604,o),
(546,513,cs),
(546,446,o),
(489,421,o),
(447,421,cs),
(404,421,o),
(353,453,o),
(353,507,cs),
(353,552,o),
(385,577,o),
(401,580,c),
(380,583,o),
(366,584,o),
(343,584,cs),
(264,584,o),
(187,555,o),
(187,504,cs),
(187,444,o),
(318,421,o),
(403,421,c),
(510,419,o),
(572,323,o),
(572,212,cs),
(572,93,o),
(488,-1,o),
(360,-1,cs),
(350,-1,o),
(341,0,o),
(330,1,c),
(330,25,l),
(338,24,o),
(346,23,o),
(354,23,cs),
(458,23,o),
(530,97,o),
(530,195,cs),
(530,294,o),
(473,362,o),
(384,362,cs),
(309,362,o),
(257,305,o),
(241,230,c),
(249,234,o),
(257,235,o),
(264,235,cs),
(311,235,o),
(344,197,o),
(344,133,cs),
(344,55,o),
(288,-2,o),
(203,-2,cs),
(95,-2,o),
(33,94,o)
);
},
{
closed = 1;
nodes = (
(380,508,cs),
(380,474,o),
(411,446,o),
(449,446,cs),
(487,446,o),
(519,474,o),
(519,508,cs),
(519,542,o),
(487,569,o),
(449,569,cs),
(411,569,o),
(380,542,o)
);
}
);
width = 621;
}
);
},
{
glyphname = "gu-sinhala";
lastChange = "2024-02-24 15:47:18 +0000";
layers = (
{
layerId = "C18F3EFD-FA9C-4751-AD2F-5B966120D1A5";
shapes = (
{
closed = 1;
nodes = (
(299,-78,cs),
(299,-29,o),
(328,9,o),
(370,21,c),
(376,-6,l),
(355,-14,o),
(336,-34,o),
(336,-62,cs),
(336,-107,o),
(386,-129,o),
(436,-129,cs),
(496,-129,o),
(541,-92,o),
(541,-44,cs),
(541,-41,o),
(540,-38,o),
(540,-35,c),
(569,-35,l),
(571,-44,o),
(571,-59,o),
(571,-68,cs),
(571,-120,o),
(530,-188,o),
(431,-188,cs),
(369,-188,o),
(299,-145,o)
);
},
{
closed = 1;
nodes = (
(33,202,cs),
(33,322,o),
(107,422,o),
(215,422,cs),
(219,422,o),
(224,421,o),
(228,421,c),
(228,398,l),
(225,398,o),
(220,398,o),
(217,398,cs),
(133,398,o),
(67,325,o),
(67,225,cs),
(67,144,o),
(114,69,o),
(201,69,cs),
(259,69,o),
(311,96,o),
(311,154,cs),
(311,191,o),
(291,212,o),
(261,212,cs),
(254,212,o),
(244,210,o),
(237,205,c),
(236,199,o),
(235,191,o),
(235,188,c),
(211,188,l),
(221,310,o),
(281,422,o),
(400,422,cs),
(509,422,o),
(572,324,o),
(572,212,cs),
(572,93,o),
(494,0,o),
(416,0,cs),
(406,0,o),
(385,-2,o),
(371,-8,c),
(361,18,l),
(380,26,o),
(397,26,o),
(405,26,cs),
(467,26,o),
(530,97,o),
(530,195,cs),
(530,294,o),
(473,362,o),
(384,362,cs),
(309,362,o),
(257,305,o),
(241,230,c),
(249,234,o),
(257,235,o),
(264,235,cs),
(311,235,o),
(344,197,o),
(344,133,cs),
(344,55,o),
(288,-2,o),
(203,-2,cs),
(95,-2,o),
(33,94,o)
);
}
);
width = 621;
}
);
},
{
glyphname = "guu-sinhala";
lastChange = "2024-02-24 15:47:18 +0000";
layers = (
{
layerId = "C18F3EFD-FA9C-4751-AD2F-5B966120D1A5";
shapes = (
{
closed = 1;
nodes = (
(328,-126,cs),
(328,-91,o),
(360,-70,o),
(391,-65,c),
(337,-38,l),
(422,-14,l),
(330,1,l),
(378,13,l),
(494,-7,l),
(393,-43,l),
(450,-74,l),
(423,-81,o),
(367,-83,o),
(367,-112,cs),
(367,-142,o),
(408,-151,o),
(449,-151,cs),
(502,-151,o),
(547,-128,o),
(547,-80,cs),
(547,-75,o),
(546,-68,o),
(541,-58,c),
(573,-58,l),
(577,-70,o),
(577,-81,o),
(577,-92,cs),
(577,-157,o),
(527,-200,o),
(447,-200,cs),
(390,-200,o),
(328,-183,o)
);
},
{
ref = "ga-sinhala";
}
);
width = 621;
}
);
},
{
glyphname = "h-sinhala";
lastChange = "2024-02-24 15:47:15 +0000";
layers = (
{
layerId = "C18F3EFD-FA9C-4751-AD2F-5B966120D1A5";
shapes = (
{
closed = 1;
nodes = (
(538,339,l),
(538,664,l),
(591,623,o),
(685,618,o),
(685,528,cs),
(685,485,o),
(650,456,o),
(608,456,cs),
(593,456,o),
(579,459,o),
(564,466,c),
(564,322,l)
);
},
{
closed = 1;
nodes = (
(564,490,l),
(573,485,o),
(584,483,o),
(597,483,cs),
(634,483,o),
(648,508,o),
(648,531,cs),
(648,572,o),
(610,592,o),
(564,622,c)
);
},
{
ref = "ka-sinhala";
}
);
width = 728;
}
);
},
{
glyphname = "ha_reph-sinhala";
lastChange = "2024-02-24 15:49:05 +0000";
layers = (
{
anchors = (
{
name = _cursive;
pos = (42,0);
}
);
layerId = "C18F3EFD-FA9C-4751-AD2F-5B966120D1A5";
shapes = (
{
closed = 1;
nodes = (
(264,499,cs),
(264,478,o),
(283,463,o),
(304,463,cs),
(325,463,o),
(344,478,o),
(344,499,cs),
(344,520,o),
(325,535,o),
(304,535,cs),
(283,535,o),
(264,520,o)
);
},
{
closed = 1;
nodes = (
(164,518,cs),
(164,580,o),
(221,616,o),
(301,616,cs),
(376,616,o),
(438,574,o),
(438,505,cs),
(438,482,o),
(431,460,o),
(414,441,c),
(381,441,l),
(394,453,o),
(409,478,o),
(409,504,cs),
(409,560,o),
(360,590,o),
(300,590,cs),
(248,590,o),
(195,570,o),
(195,518,cs),
(195,480,o),
(236,461,o),
(258,459,c),
(250,465,o),
(237,479,o),
(237,500,cs),
(237,534,o),
(268,559,o),
(303,559,cs),
(343,559,o),
(370,532,o),
(370,498,cs),
(370,460,o),
(336,435,o),
(279,435,cs),
(221,435,o),
(164,463,o)
);
},
{
ref = "ha-sinhala";
}
);
width = 637;
}
);
},
{
glyphname = "hi-sinhala";
lastChange = "2024-02-24 15:47:18 +0000";
layers = (
{
layerId = "C18F3EFD-FA9C-4751-AD2F-5B966120D1A5";
shapes = (
{
closed = 1;
nodes = (
(146,524,cs),
(146,613,o),
(243,651,o),
(343,651,cs),
(446,651,o),
(546,604,o),
(546,511,cs),
(546,450,o),
(508,405,o),
(429,399,c),
(411,421,l),
(414,421,o),
(416,421,o),
(419,421,cs),
(476,421,o),
(518,451,o),
(518,500,cs),
(518,563,o),
(421,584,o),
(343,584,cs),
(264,584,o),
(187,555,o),
(187,504,cs),
(187,445,o),
(317,421,o),
(401,421,cs),
(402,421,o),
(402,422,o),
(403,422,c),
(388,402,l),
(232,405,o),
(146,451,o)
);
},
{
ref = "ha-sinhala";
}
);
width = 637;
}
);
},
{
glyphname = "hii-sinhala";
lastChange = "2024-02-24 15:47:18 +0000";
layers = (
{
layerId = "C18F3EFD-FA9C-4751-AD2F-5B966120D1A5";
shapes = (
{
closed = 1;
nodes = (
(380,508,cs),
(380,474,o),
(411,446,o),
(449,446,cs),
(487,446,o),
(519,474,o),
(519,508,cs),
(519,542,o),
(487,569,o),
(449,569,cs),
(411,569,o),
(380,542,o)
);
},
{
closed = 1;
nodes = (
(146,524,cs),
(146,613,o),
(243,651,o),
(343,651,cs),
(446,651,o),
(546,604,o),
(546,513,cs),
(546,446,o),
(489,421,o),
(447,421,cs),
(404,421,o),
(353,453,o),
(353,507,cs),
(353,552,o),
(385,577,o),
(401,580,c),
(380,583,o),
(366,584,o),
(343,584,cs),
(264,584,o),
(187,555,o),
(187,504,cs),
(187,445,o),
(317,421,o),
(401,421,cs),
(402,421,o),
(402,422,o),
(403,422,c),
(388,402,l),
(232,405,o),
(146,451,o)
);
},
{
ref = "ha-sinhala";
}
);
width = 637;
}
);
},
{
glyphname = "hu-sinhala";
lastChange = "2024-02-24 15:47:18 +0000";
layers = (
{
layerId = "C18F3EFD-FA9C-4751-AD2F-5B966120D1A5";
shapes = (
{
closed = 1;
nodes = (
(44,-139,cs),
(44,-88,o),
(90,-49,o),
(144,-49,cs),
(185,-49,o),
(220,-72,o),
(235,-107,c),
(206,-119,l),
(199,-99,o),
(176,-78,o),
(144,-78,cs),
(108,-78,o),
(77,-104,o),
(77,-139,cs),
(77,-167,o),
(100,-194,o),
(164,-194,cs),
(552,-194,l),
(552,125,l),
(584,193,l),
(584,-229,l),
(147,-229,ls),
(80,-229,o),
(44,-182,o)
);
},
{
ref = "ha-sinhala";
}
);
width = 637;
}
);
},
{
glyphname = "huu-sinhala";
lastChange = "2024-02-24 15:47:18 +0000";
layers = (
{
layerId = "C18F3EFD-FA9C-4751-AD2F-5B966120D1A5";
shapes = (
{
closed = 1;
nodes = (
(44,-135,cs),
(44,-78,o),
(92,-39,o),
(144,-39,cs),
(185,-39,o),
(216,-54,o),
(238,-89,c),
(209,-100,l),
(197,-81,o),
(176,-66,o),
(148,-66,cs),
(110,-66,o),
(79,-90,o),
(79,-126,cs),
(79,-162,o),
(116,-187,o),
(158,-187,cs),
(262,-187,o),
(343,-114,o),
(436,-114,cs),
(478,-114,o),
(526,-133,o),
(552,-164,c),
(552,148,l),
(584,207,l),
(584,-226,l),
(562,-226,l),
(547,-191,o),
(504,-141,o),
(438,-141,cs),
(349,-141,o),
(273,-231,o),
(158,-231,cs),
(104,-231,o),
(44,-201,o)
);
},
{
ref = "ha-sinhala";
}
);
width = 637;
}
);
},
{
glyphname = "j-sinhala";
lastChange = "2024-02-24 15:47:15 +0000";
layers = (
{
layerId = "C18F3EFD-FA9C-4751-AD2F-5B966120D1A5";
shapes = (
{
closed = 1;
nodes = (
(461,403,l),
(461,664,l),
(514,623,o),
(607,618,o),
(607,528,cs),
(607,485,o),
(573,456,o),
(531,456,cs),
(516,456,o),
(502,459,o),
(487,466,c),
(487,400,l)
);
},
{
closed = 1;
nodes = (
(487,490,l),
(496,485,o),
(507,483,o),
(520,483,cs),
(557,483,o),
(571,508,o),
(571,531,cs),
(571,572,o),
(533,592,o),
(487,622,c)
);
},
{
ref = "la-sinhala";
}
);
width = 654;
}
);
},
{
glyphname = "ja_reph-sinhala";
lastChange = "2024-02-24 15:49:05 +0000";
layers = (
{
anchors = (
{
name = _cursive;
pos = (46,0);
}
);
layerId = "C18F3EFD-FA9C-4751-AD2F-5B966120D1A5";
shapes = (
{
closed = 1;
nodes = (
(227,479,cs),
(227,458,o),
(246,443,o),
(267,443,cs),
(288,443,o),
(307,458,o),
(307,479,cs),
(307,500,o),
(288,516,o),
(267,516,cs),
(246,516,o),
(227,500,o)
);
},
{
closed = 1;
nodes = (
(128,498,cs),
(128,560,o),
(184,597,o),
(264,597,cs),
(339,597,o),
(402,554,o),
(402,485,cs),
(402,462,o),
(395,441,o),
(378,422,c),
(364,422,l),
(377,434,o),
(377,458,o),
(377,484,cs),
(377,540,o),
(323,570,o),
(263,570,cs),
(211,570,o),
(159,550,o),
(159,498,cs),
(159,460,o),
(199,441,o),
(221,439,c),
(213,445,o),
(201,459,o),
(201,480,cs),
(201,514,o),
(231,539,o),
(266,539,cs),
(306,539,o),
(334,513,o),
(334,479,cs),
(334,441,o),
(300,415,o),
(243,415,cs),
(185,415,o),
(128,443,o)
);
},
{
ref = "ja-sinhala";
}
);
width = 583;
}
);
},
{
glyphname = "jh-sinhala";
lastChange = "2024-02-24 15:47:18 +0000";
layers = (
{
layerId = "C18F3EFD-FA9C-4751-AD2F-5B966120D1A5";
shapes = (
{
closed = 1;
nodes = (
(68,93,c),
(74,96,o),
(80,98,o),
(87,98,cs),
(115,98,o),
(138,69,o),
(194,69,cs),
(244,69,o),
(274,99,o),
(274,158,cs),
(274,160,o),
(274,157,o),
(274,159,c),
(300,159,l),
(300,158,o),
(300,159,o),
(300,158,cs),
(300,95,o),
(326,69,o),
(383,69,cs),
(444,69,o),
(463,120,o),
(463,155,cs),
(463,236,o),
(392,284,o),
(291,284,cs),
(235,284,o),
(199,276,o),
(178,267,c),
(161,252,o),
(142,229,o),
(126,207,cs),
(98,167,o),
(79,129,o)
);
},
{
closed = 1;
nodes = (
(21,21,l),
(29,88,o),
(72,180,o),
(106,227,cs),
(131,262,o),
(146,275,o),
(164,294,c),
(176,307,o),
(188,323,o),
(188,344,cs),
(188,365,o),
(178,383,o),
(154,383,cs),
(140,383,o),
(119,375,o),
(113,354,cs),
(106,332,o),
(111,332,o),
(104,315,cs),
(97,297,o),
(82,290,o),
(67,290,cs),
(34,290,o),
(28,320,o),
(28,332,cs),
(28,385,o),
(77,423,o),
(133,423,cs),
(182,423,o),
(215,393,o),
(215,348,cs),
(215,343,o),
(215,338,o),
(214,333,c),
(274,388,o),
(362,424,o),
(464,424,cs),
(562,424,o),
(627,405,o),
(655,389,c),
(600,381,l),
(557,393,o),
(506,396,o),
(463,396,cs),
(334,396,o),
(261,342,o),
(214,301,c),
(237,307,o),
(269,309,o),
(295,309,cs),
(412,309,o),
(503,245,o),
(503,123,cs),
(503,66,o),
(471,-1,o),
(388,-1,cs),
(343,-1,o),
(310,20,o),
(289,62,c),
(272,22,o),
(240,-1,o),
(199,-1,cs),
(114,-1,o),
(117,71,o),
(85,71,cs),
(64,71,o),
(49,50,o),
(46,11,c)
);
},
{
closed = 1;
nodes = (
(575,530,cs),
(575,518,o),
(599,514,o),
(599,503,cs),
(599,501,o),
(598,498,o),
(596,496,c),
(628,502,o),
(667,507,o),
(712,507,cs),
(817,507,o),
(900,478,o),
(957,412,c),
(925,524,o),
(830,576,o),
(717,576,cs),
(647,576,o),
(575,553,o)
);
},
{
closed = 1;
nodes = (
(472,190,cs),
(472,281,o),
(524,356,o),
(588,378,cs),
(609,385,o),
(631,389,o),
(655,389,c),
(655,364,ls),
(652,364,o),
(649,364,o),
(646,364,cs),
(569,364,o),
(505,294,o),
(505,207,cs),
(505,133,o),
(552,69,o),
(623,69,cs),
(673,69,o),
(723,90,o),
(723,152,cs),
(723,191,l),
(750,191,l),
(750,152,ls),
(750,90,o),
(799,69,o),
(847,69,cs),
(945,69,o),
(980,184,o),
(980,260,cs),
(980,404,o),
(872,482,o),
(715,482,cs),
(641,482,o),
(572,467,o),
(497,445,c),
(497,474,l),
(524,478,o),
(562,487,o),
(562,496,cs),
(562,508,o),
(535,512,o),
(535,533,cs),
(535,569,o),
(599,614,o),
(711,614,cs),
(914,614,o),
(986,479,o),
(998,348,c),
(1007,324,o),
(1016,280,o),
(1016,239,cs),
(1016,131,o),
(975,0,o),
(852,0,cs),
(804,0,o),
(764,20,o),
(735,58,c),
(705,20,o),
(669,0,o),
(625,0,cs),
(525,0,o),
(472,93,o)
);
}
);
width = 1061;
}
);
},
{
glyphname = "jha_reph-sinhala";
lastChange = "2024-02-24 15:49:05 +0000";
layers = (
{
anchors = (
{
name = _cursive;
pos = (69,0);
}
);
layerId = "C18F3EFD-FA9C-4751-AD2F-5B966120D1A5";
shapes = (
{
closed = 1;
nodes = (
(707,607,cs),
(707,586,o),
(725,571,o),
(746,571,cs),
(767,571,o),
(786,586,o),
(786,607,cs),
(786,628,o),
(767,645,o),
(746,645,cs),
(725,645,o),
(707,628,o)
);
},
{
closed = 1;
nodes = (
(607,626,cs),
(607,688,o),
(664,725,o),
(744,725,cs),
(819,725,o),
(881,682,o),
(881,613,cs),
(881,590,o),
(874,569,o),
(857,550,c),
(824,550,l),
(837,562,o),
(852,586,o),
(852,612,cs),
(852,668,o),
(802,698,o),
(742,698,cs),
(690,698,o),
(638,678,o),
(638,626,cs),
(638,588,o),
(678,570,o),
(700,568,c),
(692,574,o),
(680,587,o),
(680,608,cs),
(680,642,o),
(711,667,o),
(746,667,cs),
(786,667,o),
(812,640,o),
(812,606,cs),
(812,568,o),
(780,543,o),
(723,543,cs),
(665,543,o),
(607,571,o)
);
},
{
ref = "jha-sinhala";
}
);
width = 1061;
}
);
},
{
glyphname = "jhi-sinhala";
lastChange = "2024-02-24 15:47:18 +0000";
layers = (
{
layerId = "C18F3EFD-FA9C-4751-AD2F-5B966120D1A5";
shapes = (
{
closed = 1;
nodes = (
(68,93,c),
(74,96,o),
(80,98,o),
(87,98,cs),
(115,98,o),
(138,69,o),
(194,69,cs),
(244,69,o),
(274,99,o),
(274,158,cs),
(274,160,o),
(274,157,o),
(274,159,c),
(300,159,l),
(300,158,o),
(300,159,o),
(300,158,cs),
(300,95,o),
(326,69,o),
(383,69,cs),
(444,69,o),
(463,120,o),
(463,155,cs),
(463,236,o),
(392,284,o),
(291,284,cs),
(235,284,o),
(199,276,o),
(178,267,c),
(161,252,o),
(142,229,o),
(126,207,cs),
(98,167,o),
(79,129,o)
);
},
{
closed = 1;
nodes = (
(21,21,l),
(29,88,o),
(72,180,o),
(106,227,cs),
(131,262,o),
(146,275,o),
(164,294,c),
(176,307,o),
(188,323,o),
(188,344,cs),
(188,365,o),
(178,383,o),
(154,383,cs),
(140,383,o),
(119,375,o),
(113,354,cs),
(106,332,o),
(111,332,o),
(104,315,cs),
(97,297,o),
(82,290,o),
(67,290,cs),
(34,290,o),
(28,320,o),
(28,332,cs),
(28,385,o),
(77,423,o),
(133,423,cs),
(182,423,o),
(215,393,o),
(215,348,cs),
(215,343,o),
(215,338,o),
(214,333,c),
(274,388,o),
(362,424,o),
(464,424,cs),
(562,424,o),
(627,405,o),
(655,389,c),
(600,381,l),
(557,393,o),
(506,396,o),
(463,396,cs),
(334,396,o),
(261,342,o),
(214,301,c),
(237,307,o),
(269,309,o),
(295,309,cs),
(412,309,o),
(503,245,o),
(503,123,cs),
(503,66,o),
(471,-1,o),
(388,-1,cs),
(343,-1,o),
(310,20,o),
(289,62,c),
(272,22,o),
(240,-1,o),
(199,-1,cs),
(114,-1,o),
(117,71,o),
(85,71,cs),
(64,71,o),
(49,50,o),
(46,11,c)
);
},
{
pos = (439,0);
ref = "dhi-sinhala";
}
);
width = 1061;
}
);
},
{
glyphname = "jhii-sinhala";
lastChange = "2024-02-24 15:47:18 +0000";
layers = (
{
layerId = "C18F3EFD-FA9C-4751-AD2F-5B966120D1A5";
shapes = (
{
closed = 1;
nodes = (
(68,93,c),
(74,96,o),
(80,98,o),
(87,98,cs),
(115,98,o),
(138,69,o),
(194,69,cs),
(244,69,o),
(274,99,o),
(274,158,cs),
(274,160,o),
(274,157,o),
(274,159,c),
(300,159,l),
(300,158,o),
(300,159,o),
(300,158,cs),
(300,95,o),
(326,69,o),
(383,69,cs),
(444,69,o),
(463,120,o),
(463,155,cs),
(463,236,o),
(392,284,o),
(291,284,cs),
(235,284,o),
(199,276,o),
(178,267,c),
(161,252,o),
(142,229,o),
(126,207,cs),
(98,167,o),
(79,129,o)
);
},
{
closed = 1;
nodes = (
(21,21,l),
(29,88,o),
(72,180,o),
(106,227,cs),
(131,262,o),
(146,275,o),
(164,294,c),
(176,307,o),
(188,323,o),
(188,344,cs),
(188,365,o),
(178,383,o),
(154,383,cs),
(140,383,o),
(119,375,o),
(113,354,cs),
(106,332,o),
(111,332,o),
(104,315,cs),
(97,297,o),
(82,290,o),
(67,290,cs),
(34,290,o),
(28,320,o),
(28,332,cs),
(28,385,o),
(77,423,o),
(133,423,cs),
(182,423,o),
(215,393,o),
(215,348,cs),
(215,343,o),
(215,338,o),
(214,333,c),
(274,388,o),
(362,424,o),
(464,424,cs),
(562,424,o),
(627,405,o),
(655,389,c),
(600,381,l),
(557,393,o),
(506,396,o),
(463,396,cs),
(334,396,o),
(261,342,o),
(214,301,c),
(237,307,o),
(269,309,o),
(295,309,cs),
(412,309,o),
(503,245,o),
(503,123,cs),
(503,66,o),
(471,-1,o),
(388,-1,cs),
(343,-1,o),
(310,20,o),
(289,62,c),
(272,22,o),
(240,-1,o),
(199,-1,cs),
(114,-1,o),
(117,71,o),
(85,71,cs),
(64,71,o),
(49,50,o),
(46,11,c)
);
},
{
pos = (439,0);
ref = "dhii-sinhala";
}
);
width = 1061;
}
);
},
{
glyphname = "jhu-sinhala";
lastChange = "2024-02-24 15:47:18 +0000";
layers = (
{
layerId = "C18F3EFD-FA9C-4751-AD2F-5B966120D1A5";
shapes = (
{
closed = 1;
nodes = (
(490,-139,cs),
(490,-88,o),
(535,-49,o),
(589,-49,cs),
(630,-49,o),
(666,-72,o),
(681,-107,c),
(651,-119,l),
(644,-99,o),
(621,-78,o),
(589,-78,cs),
(553,-78,o),
(522,-104,o),
(522,-139,cs),
(522,-167,o),
(545,-194,o),
(609,-194,cs),
(969,-194,l),
(969,125,l),
(1001,214,l),
(1001,-229,l),
(593,-229,ls),
(526,-229,o),
(490,-182,o)
);
},
{
ref = "jha-sinhala";
}
);
width = 1061;
}
);
},
{
glyphname = "jhuu-sinhala";
lastChange = "2024-02-24 15:47:18 +0000";
layers = (
{
layerId = "C18F3EFD-FA9C-4751-AD2F-5B966120D1A5";
shapes = (
{
closed = 1;
nodes = (
(489,-135,cs),
(489,-78,o),
(537,-39,o),
(589,-39,cs),
(630,-39,o),
(662,-54,o),
(684,-89,c),
(654,-100,l),
(642,-81,o),
(622,-66,o),
(594,-66,cs),
(556,-66,o),
(524,-90,o),
(524,-126,cs),
(524,-162,o),
(555,-187,o),
(597,-187,cs),
(679,-187,o),
(760,-114,o),
(853,-114,cs),
(895,-114,o),
(943,-133,o),
(969,-164,c),
(969,148,l),
(1001,207,l),
(1001,-226,l),
(979,-226,l),
(964,-191,o),
(921,-141,o),
(855,-141,cs),
(766,-141,o),
(694,-231,o),
(598,-231,cs),
(544,-231,o),
(489,-201,o)
);
},
{
ref = "jha-sinhala";
}
);
width = 1061;
}
);
},
{
glyphname = "ji-sinhala";
lastChange = "2024-02-24 15:47:18 +0000";
layers = (
{
layerId = "C18F3EFD-FA9C-4751-AD2F-5B966120D1A5";
shapes = (
{
closed = 1;
nodes = (
(228,479,cs),
(228,564,o),
(296,642,o),
(373,642,cs),
(419,642,o),
(450,611,o),
(450,569,cs),
(450,565,o),
(449,563,o),
(449,559,c),
(420,531,l),
(424,537,o),
(426,551,o),
(426,562,cs),
(426,590,o),
(414,607,o),
(384,607,cs),
(328,607,o),
(270,537,o),
(270,475,cs),
(270,444,o),
(284,419,o),
(324,419,cs),
(338,419,o),
(348,421,o),
(365,426,c),
(361,415,l),
(348,407,o),
(321,398,o),
(319,397,c),
(318,397,o),
(316,397,o),
(315,397,cs),
(253,397,o),
(228,430,o)
);
},
{
ref = "ja-sinhala";
}
);
width = 583;
}
);
},
{
glyphname = "jii-sinhala";
lastChange = "2024-02-24 15:47:18 +0000";
layers = (
{
layerId = "C18F3EFD-FA9C-4751-AD2F-5B966120D1A5";
shapes = (
{
closed = 1;
nodes = (
(330,565,cs),
(330,539,o),
(351,518,o),
(377,518,cs),
(403,518,o),
(425,539,o),
(425,565,cs),
(425,591,o),
(403,613,o),
(377,613,cs),
(351,613,o),
(330,591,o)
);
},
{
closed = 1;
nodes = (
(228,479,cs),
(228,564,o),
(297,641,o),
(378,641,cs),
(422,641,o),
(453,604,o),
(453,565,cs),
(453,528,o),
(424,490,o),
(378,490,cs),
(331,490,o),
(305,528,o),
(305,561,cs),
(305,561,o),
(305,562,o),
(305,563,c),
(286,539,o),
(270,508,o),
(270,475,cs),
(270,444,o),
(284,419,o),
(324,419,cs),
(338,419,o),
(348,421,o),
(365,426,c),
(361,415,l),
(348,407,o),
(321,398,o),
(319,397,c),
(318,397,o),
(316,397,o),
(315,397,cs),
(253,397,o),
(228,430,o)
);
},
{
ref = "ja-sinhala";
}
);
width = 583;
}
);
},
{
glyphname = "jny-sinhala";
lastChange = "2024-02-24 15:47:18 +0000";
layers = (
{
layerId = "C18F3EFD-FA9C-4751-AD2F-5B966120D1A5";
shapes = (
{
closed = 1;
nodes = (
(639,403,l),
(639,664,l),
(692,623,o),
(785,618,o),
(785,528,cs),
(785,485,o),
(751,456,o),
(709,456,cs),
(694,456,o),
(681,459,o),
(666,466,c),
(666,387,l)
);
},
{
closed = 1;
nodes = (
(666,490,l),
(675,485,o),
(684,483,o),
(697,483,cs),
(734,483,o),
(750,508,o),
(750,531,cs),
(750,572,o),
(712,592,o),
(666,622,c)
);
},
{
ref = "jnya-sinhala";
}
);
width = 822;
}
);
},
{
glyphname = "jnya_reph-sinhala";
lastChange = "2024-02-24 15:49:05 +0000";
layers = (
{
layerId = "C18F3EFD-FA9C-4751-AD2F-5B966120D1A5";
shapes = (
{
closed = 1;
nodes = (
(575,499,cs),
(575,478,o),
(594,463,o),
(615,463,cs),
(636,463,o),
(654,478,o),
(654,499,cs),
(654,520,o),
(636,535,o),
(615,535,cs),
(594,535,o),
(575,520,o)
);
},
{
closed = 1;
nodes = (
(475,518,cs),
(475,580,o),
(531,616,o),
(611,616,cs),
(686,616,o),
(750,574,o),
(750,505,cs),
(750,482,o),
(742,460,o),
(725,441,c),
(693,441,l),
(706,453,o),
(720,478,o),
(720,504,cs),
(720,560,o),
(671,590,o),
(611,590,cs),
(559,590,o),
(506,570,o),
(506,518,cs),
(506,480,o),
(547,461,o),
(569,459,c),
(561,465,o),
(549,479,o),
(549,500,cs),
(549,534,o),
(578,559,o),
(613,559,cs),
(653,559,o),
(682,532,o),
(682,498,cs),
(682,460,o),
(647,435,o),
(590,435,cs),
(532,435,o),
(475,463,o)
);
},
{
closed = 1;
nodes = (
(411,165,cs),
(411,268,o),
(483,310,o),
(599,310,cs),
(716,310,l),
(706,355,o),
(678,387,o),
(635,387,cs),
(616,387,o),
(601,375,o),
(592,357,cs),
(582,336,o),
(567,328,o),
(552,328,cs),
(528,328,o),
(515,342,o),
(515,363,cs),
(515,398,o),
(553,423,o),
(607,423,cs),
(691,423,o),
(733,380,o),
(751,287,c),
(617,287,ls),
(531,287,o),
(486,251,o),
(486,169,cs),
(486,87,o),
(555,26,o),
(636,26,cs),
(681,26,o),
(717,45,o),
(756,90,c),
(778,73,l),
(748,38,o),
(680,-28,o),
(680,-102,cs),
(680,-166,o),
(718,-190,o),
(780,-205,c),
(780,-232,l),
(766,-235,o),
(749,-236,o),
(728,-236,cs),
(659,-234,o),
(624,-195,o),
(624,-139,cs),
(624,-101,o),
(646,-52,o),
(692,10,c),
(658,0,o),
(635,-1,o),
(609,-1,cs),
(481,-1,o),
(411,67,o)
);
},
{
closed = 1;
nodes = (
(131,202,cs),
(131,322,o),
(204,422,o),
(312,422,cs),
(316,422,o),
(321,421,o),
(325,421,c),
(325,398,l),
(322,398,o),
(317,398,o),
(314,398,cs),
(230,398,o),
(165,325,o),
(165,225,cs),
(165,144,o),
(212,69,o),
(299,69,cs),
(357,69,o),
(408,96,o),
(408,154,cs),
(408,191,o),
(388,212,o),
(358,212,cs),
(351,212,o),
(341,209,o),
(336,205,c),
(335,199,o),
(334,191,o),
(334,188,c),
(308,188,l),
(322,344,o),
(397,428,o),
(547,428,cs),
(577,428,o),
(626,426,o),
(658,416,c),
(540,399,l),
(534,399,o),
(531,400,o),
(525,400,cs),
(421,400,o),
(360,332,o),
(339,230,c),
(347,234,o),
(354,235,o),
(361,235,cs),
(408,235,o),
(441,197,o),
(441,133,cs),
(441,55,o),
(386,-2,o),
(301,-2,cs),
(193,-2,o),
(131,94,o)
);
},
{
closed = 1;
nodes = (
(26,216,cs),
(26,345,o),
(97,423,o),
(233,423,cs),
(242,423,o),
(294,424,o),
(316,422,c),
(312,422,o),
(226,396,o),
(226,396,c),
(95,396,o),
(55,305,o),
(55,213,cs),
(55,134,o),
(81,73,o),
(132,29,c),
(132,0,l),
(68,32,o),
(26,117,o)
);
}
);
width = 822;
}
);
},
{
glyphname = "jnyi-sinhala";
lastChange = "2024-02-24 15:47:18 +0000";
layers = (
{
layerId = "C18F3EFD-FA9C-4751-AD2F-5B966120D1A5";
shapes = (
{
closed = 1;
nodes = (
(415,506,cs),
(415,605,o),
(504,654,o),
(599,654,cs),
(694,654,o),
(782,603,o),
(782,506,cs),
(782,433,o),
(720,396,o),
(669,395,c),
(622,419,l),
(657,416,l),
(705,416,o),
(752,448,o),
(752,496,cs),
(752,557,o),
(669,584,o),
(599,584,cs),
(529,584,o),
(445,558,o),
(445,496,cs),
(445,449,o),
(501,428,o),
(541,428,c),
(523,404,l),
(470,410,o),
(415,444,o)
);
},
{
ref = "jnya-sinhala";
}
);
width = 822;
}
);
},
{
glyphname = "jnyii-sinhala";
lastChange = "2024-02-24 15:47:18 +0000";
layers = (
{
layerId = "C18F3EFD-FA9C-4751-AD2F-5B966120D1A5";
shapes = (
{
closed = 1;
nodes = (
(622,502,cs),
(622,472,o),
(652,447,o),
(687,447,cs),
(722,447,o),
(751,472,o),
(751,502,cs),
(751,532,o),
(722,557,o),
(687,557,cs),
(652,557,o),
(622,532,o)
);
},
{
closed = 1;
nodes = (
(415,512,cs),
(415,600,o),
(504,654,o),
(599,654,cs),
(694,654,o),
(782,600,o),
(782,510,cs),
(782,452,o),
(736,418,o),
(686,418,cs),
(627,418,o),
(591,458,o),
(591,502,cs),
(591,546,o),
(626,573,o),
(652,578,c),
(641,581,o),
(613,584,o),
(599,584,cs),
(529,584,o),
(449,557,o),
(449,501,cs),
(449,454,o),
(504,428,o),
(562,428,c),
(490,422,l),
(454,428,o),
(415,462,o)
);
},
{
ref = "jnya-sinhala";
}
);
width = 822;
}
);
},
{
glyphname = "jnyu-sinhala";
lastChange = "2024-02-24 15:47:18 +0000";
layers = (
{
layerId = "C18F3EFD-FA9C-4751-AD2F-5B966120D1A5";
shapes = (
{
closed = 1;
nodes = (
(413,-139,cs),
(413,-88,o),
(458,-49,o),
(512,-49,cs),
(553,-49,o),
(589,-72,o),
(604,-107,c),
(574,-119,l),
(567,-99,o),
(544,-78,o),
(512,-78,cs),
(476,-78,o),
(445,-104,o),
(445,-139,cs),
(445,-167,o),
(468,-194,o),
(532,-194,cs),
(746,-194,l),
(746,67,l),
(778,77,l),
(778,-229,l),
(516,-229,ls),
(449,-229,o),
(413,-182,o)
);
},
{
closed = 1;
nodes = (
(411,165,cs),
(411,268,o),
(483,310,o),
(599,310,cs),
(716,310,l),
(706,355,o),
(678,387,o),
(635,387,cs),
(616,387,o),
(601,375,o),
(592,357,cs),
(582,336,o),
(567,328,o),
(552,328,cs),
(528,328,o),
(515,342,o),
(515,363,cs),
(515,398,o),
(553,423,o),
(607,423,cs),
(691,423,o),
(733,380,o),
(751,287,c),
(617,287,ls),
(531,287,o),
(486,251,o),
(486,169,cs),
(486,87,o),
(555,26,o),
(636,26,cs),
(681,26,o),
(724,49,o),
(756,90,c),
(778,77,l),
(739,33,o),
(701,-1,o),
(609,-1,cs),
(481,-1,o),
(411,67,o)
);
},
{
closed = 1;
nodes = (
(26,216,cs),
(26,345,o),
(97,423,o),
(233,423,cs),
(242,423,o),
(294,424,o),
(316,422,c),
(312,422,o),
(226,396,o),
(226,396,c),
(95,396,o),
(55,305,o),
(55,213,cs),
(55,134,o),
(81,73,o),
(132,29,c),
(132,0,l),
(68,32,o),
(26,117,o)
);
},
{
closed = 1;
nodes = (
(131,202,cs),
(131,322,o),
(204,422,o),
(312,422,cs),
(316,422,o),
(321,421,o),
(325,421,c),
(325,398,l),
(322,398,o),
(317,398,o),
(314,398,cs),
(230,398,o),
(165,325,o),
(165,225,cs),
(165,144,o),
(212,69,o),
(299,69,cs),
(357,69,o),
(408,96,o),
(408,154,cs),
(408,191,o),
(388,212,o),
(358,212,cs),
(351,212,o),
(341,209,o),
(336,205,c),
(335,199,o),
(334,191,o),
(334,188,c),
(308,188,l),
(322,344,o),
(397,428,o),
(547,428,cs),
(577,428,o),
(626,426,o),
(658,416,c),
(540,399,l),
(534,399,o),
(531,400,o),
(525,400,cs),
(421,400,o),
(360,332,o),
(339,230,c),
(347,234,o),
(354,235,o),
(361,235,cs),
(408,235,o),
(441,197,o),
(441,133,cs),
(441,55,o),
(386,-2,o),
(301,-2,cs),
(193,-2,o),
(131,94,o)
);
}
);
width = 822;
}
);
},
{
glyphname = "jnyuu-sinhala";
lastChange = "2024-02-24 15:47:18 +0000";
layers = (
{
layerId = "C18F3EFD-FA9C-4751-AD2F-5B966120D1A5";
shapes = (
{
closed = 1;
nodes = (
(413,-136,cs),
(413,-79,o),
(461,-40,o),
(513,-40,cs),
(554,-40,o),
(585,-55,o),
(607,-90,c),
(578,-101,l),
(566,-82,o),
(546,-67,o),
(518,-67,cs),
(480,-67,o),
(448,-91,o),
(448,-127,cs),
(448,-163,o),
(476,-188,o),
(518,-188,cs),
(572,-188,o),
(598,-125,o),
(674,-125,cs),
(698,-125,o),
(727,-133,o),
(746,-156,c),
(746,70,l),
(778,77,l),
(778,-227,l),
(756,-227,l),
(742,-190,o),
(724,-150,o),
(680,-150,cs),
(605,-150,o),
(584,-232,o),
(510,-232,cs),
(463,-232,o),
(413,-202,o)
);
},
{
closed = 1;
nodes = (
(411,165,cs),
(411,268,o),
(483,310,o),
(599,310,cs),
(716,310,l),
(706,355,o),
(678,387,o),
(635,387,cs),
(616,387,o),
(601,375,o),
(592,357,cs),
(582,336,o),
(567,328,o),
(552,328,cs),
(528,328,o),
(515,342,o),
(515,363,cs),
(515,398,o),
(553,423,o),
(607,423,cs),
(691,423,o),
(733,380,o),
(751,287,c),
(617,287,ls),
(531,287,o),
(486,251,o),
(486,169,cs),
(486,87,o),
(555,26,o),
(636,26,cs),
(681,26,o),
(724,49,o),
(756,90,c),
(778,77,l),
(739,33,o),
(701,-1,o),
(609,-1,cs),
(481,-1,o),
(411,67,o)
);
},
{
closed = 1;
nodes = (
(26,216,cs),
(26,345,o),
(97,423,o),
(233,423,cs),
(242,423,o),
(294,424,o),
(316,422,c),
(312,422,o),
(226,396,o),
(226,396,c),
(95,396,o),
(55,305,o),
(55,213,cs),
(55,134,o),
(81,73,o),
(132,29,c),
(132,0,l),
(68,32,o),
(26,117,o)
);
},
{
closed = 1;
nodes = (
(131,202,cs),
(131,322,o),
(204,422,o),
(312,422,cs),
(316,422,o),
(321,421,o),
(325,421,c),
(325,398,l),
(322,398,o),
(317,398,o),
(314,398,cs),
(230,398,o),
(165,325,o),
(165,225,cs),
(165,144,o),
(212,69,o),
(299,69,cs),
(357,69,o),
(408,96,o),
(408,154,cs),
(408,191,o),
(388,212,o),
(358,212,cs),
(351,212,o),
(341,209,o),
(336,205,c),
(335,199,o),
(334,191,o),
(334,188,c),
(308,188,l),
(322,344,o),
(397,428,o),
(547,428,cs),
(577,428,o),
(626,426,o),
(658,416,c),
(540,399,l),
(534,399,o),
(531,400,o),
(525,400,cs),
(421,400,o),
(360,332,o),
(339,230,c),
(347,234,o),
(354,235,o),
(361,235,cs),
(408,235,o),
(441,197,o),
(441,133,cs),
(441,55,o),
(386,-2,o),
(301,-2,cs),
(193,-2,o),
(131,94,o)
);
}
);
width = 822;
}
);
},
{
glyphname = "ju-sinhala";
lastChange = "2024-02-24 15:47:18 +0000";
layers = (
{
layerId = "C18F3EFD-FA9C-4751-AD2F-5B966120D1A5";
shapes = (
{
closed = 1;
nodes = (
(38,-139,cs),
(38,-88,o),
(83,-49,o),
(137,-49,cs),
(178,-49,o),
(214,-72,o),
(229,-107,c),
(199,-119,l),
(192,-99,o),
(169,-78,o),
(137,-78,cs),
(101,-78,o),
(70,-104,o),
(70,-139,cs),
(70,-167,o),
(93,-194,o),
(157,-194,cs),
(496,-194,l),
(496,125,l),
(527,193,l),
(527,-229,l),
(141,-229,ls),
(74,-229,o),
(38,-182,o)
);
},
{
ref = "ja-sinhala";
}
);
width = 583;
}
);
},
{
glyphname = "juu-sinhala";
lastChange = "2024-02-24 15:47:18 +0000";
layers = (
{
layerId = "C18F3EFD-FA9C-4751-AD2F-5B966120D1A5";
shapes = (
{
closed = 1;
nodes = (
(38,-135,cs),
(38,-78,o),
(86,-39,o),
(138,-39,cs),
(179,-39,o),
(210,-54,o),
(232,-89,c),
(203,-100,l),
(191,-81,o),
(171,-66,o),
(143,-66,cs),
(105,-66,o),
(73,-90,o),
(73,-126,cs),
(73,-162,o),
(104,-187,o),
(146,-187,cs),
(228,-187,o),
(293,-114,o),
(386,-114,cs),
(433,-114,o),
(472,-135,o),
(496,-164,c),
(496,138,l),
(528,196,l),
(528,-226,l),
(506,-226,l),
(491,-191,o),
(452,-141,o),
(389,-141,cs),
(300,-141,o),
(242,-231,o),
(146,-231,cs),
(92,-231,o),
(38,-201,o)
);
},
{
ref = "ja-sinhala";
}
);
width = 583;
}
);
},
{
glyphname = "k-sinhala";
lastChange = "2024-02-24 15:47:15 +0000";
layers = (
{
layerId = "C18F3EFD-FA9C-4751-AD2F-5B966120D1A5";
shapes = (
{
closed = 1;
nodes = (
(139,530,cs),
(139,518,o),
(162,514,o),
(162,503,cs),
(162,501,o),
(161,498,o),
(159,496,c),
(191,502,o),
(230,507,o),
(275,507,cs),
(380,507,o),
(461,478,o),
(518,412,c),
(486,524,o),
(393,576,o),
(280,576,cs),
(210,576,o),
(139,553,o)
);
},
{
closed = 1;
nodes = (
(44,432,c),
(44,462,l),
(75,474,o),
(126,487,o),
(126,496,cs),
(126,508,o),
(99,512,o),
(99,533,cs),
(99,569,o),
(162,614,o),
(274,614,cs),
(477,614,o),
(547,479,o),
(559,348,c),
(565,330,o),
(571,299,o),
(571,261,c),
(533,268,l),
(533,271,o),
(534,265,o),
(534,276,cs),
(534,399,o),
(437,482,o),
(272,482,cs),
(198,482,o),
(123,469,o)
);
},
{
closed = 1;
nodes = (
(258,344,cs),
(258,318,o),
(280,296,o),
(306,296,cs),
(332,296,o),
(354,318,o),
(354,344,cs),
(354,370,o),
(332,392,o),
(306,392,cs),
(280,392,o),
(258,370,o)
);
},
{
closed = 1;
nodes = (
(32,244,cs),
(32,331,o),
(77,422,o),
(152,422,cs),
(200,422,o),
(204,388,o),
(204,364,cs),
(204,338,o),
(199,330,o),
(199,295,cs),
(199,241,o),
(239,213,o),
(293,213,cs),
(352,213,o),
(392,249,o),
(392,307,cs),
(392,334,o),
(383,350,o),
(378,357,c),
(380,347,o),
(380,343,o),
(380,335,cs),
(380,299,o),
(353,265,o),
(306,265,cs),
(256,265,o),
(228,308,o),
(228,343,cs),
(228,388,o),
(264,422,o),
(311,422,cs),
(378,422,o),
(421,373,o),
(421,299,cs),
(421,232,o),
(366,182,o),
(295,182,cs),
(236,182,o),
(169,211,o),
(169,288,cs),
(169,326,o),
(176,340,o),
(176,370,cs),
(176,382,o),
(171,396,o),
(150,396,cs),
(103,396,o),
(66,338,o),
(66,261,cs),
(66,131,o),
(169,69,o),
(301,69,cs),
(440,69,o),
(533,167,o),
(533,271,c),
(543,268,o),
(559,268,o),
(571,266,c),
(571,110,o),
(464,0,o),
(303,0,cs),
(140,0,o),
(32,92,o)
);
}
);
width = 620;
}
);
},
{
glyphname = "k_ssa_reph-sinhala";
lastChange = "2024-02-24 15:53:04 +0000";
layers = (
{
layerId = "C18F3EFD-FA9C-4751-AD2F-5B966120D1A5";
shapes = (
{
closed = 1;
nodes = (
(697,499,cs),
(697,478,o),
(716,463,o),
(737,463,cs),
(758,463,o),
(777,478,o),
(777,499,cs),
(777,520,o),
(758,535,o),
(737,535,cs),
(716,535,o),
(697,520,o)
);
},
{
closed = 1;
nodes = (
(597,518,cs),
(597,580,o),
(654,616,o),
(734,616,cs),
(809,616,o),
(872,574,o),
(872,505,cs),
(872,482,o),
(864,460,o),
(847,441,c),
(814,441,l),
(827,453,o),
(842,478,o),
(842,504,cs),
(842,560,o),
(793,590,o),
(733,590,cs),
(681,590,o),
(627,570,o),
(627,518,cs),
(627,480,o),
(668,461,o),
(690,459,c),
(682,465,o),
(670,479,o),
(670,500,cs),
(670,534,o),
(701,559,o),
(736,559,cs),
(776,559,o),
(803,532,o),
(803,498,cs),
(803,460,o),
(769,435,o),
(712,435,cs),
(654,435,o),
(597,463,o)
);
},
{
closed = 1;
nodes = (
(68,93,c),
(74,96,o),
(80,98,o),
(87,98,cs),
(115,98,o),
(138,69,o),
(194,69,cs),
(244,69,o),
(274,99,o),
(274,158,cs),
(274,160,o),
(274,157,o),
(274,159,c),
(300,159,l),
(300,158,o),
(300,159,o),
(300,158,cs),
(300,95,o),
(326,69,o),
(383,69,cs),
(444,69,o),
(463,120,o),
(463,155,cs),
(463,236,o),
(392,284,o),
(291,284,cs),
(235,284,o),
(199,276,o),
(178,267,c),
(161,252,o),
(142,229,o),
(126,207,cs),
(98,167,o),
(79,129,o)
);
},
{
closed = 1;
nodes = (
(21,21,l),
(29,88,o),
(72,180,o),
(106,227,cs),
(131,262,o),
(146,275,o),
(164,294,c),
(176,307,o),
(188,323,o),
(188,344,cs),
(188,365,o),
(178,383,o),
(154,383,cs),
(140,383,o),
(119,375,o),
(113,354,cs),
(106,332,o),
(111,332,o),
(104,315,cs),
(97,297,o),
(82,290,o),
(67,290,cs),
(34,290,o),
(28,320,o),
(28,332,cs),
(28,385,o),
(77,423,o),
(133,423,cs),
(182,423,o),
(215,393,o),
(215,348,cs),
(215,343,o),
(215,338,o),
(214,333,c),
(293,392,o),
(409,426,o),
(542,426,cs),
(576,426,o),
(609,423,o),
(609,423,c),
(528,396,l),
(528,396,o),
(517,396,o),
(512,396,cs),
(369,396,o),
(267,342,o),
(214,301,c),
(237,307,o),
(269,309,o),
(295,309,cs),
(412,309,o),
(503,245,o),
(503,123,cs),
(503,66,o),
(471,-1,o),
(388,-1,cs),
(343,-1,o),
(310,20,o),
(289,62,c),
(272,22,o),
(240,-1,o),
(199,-1,cs),
(114,-1,o),
(117,71,o),
(85,71,cs),
(64,71,o),
(49,50,o),
(46,11,c)
);
},
{
pos = (436,0);
ref = "ssa-sinhala";
}
);
width = 1043;
}
);
},
{
glyphname = "k_v-sinhala";
lastChange = "2024-02-24 15:53:20 +0000";
layers = (
{
layerId = "C18F3EFD-FA9C-4751-AD2F-5B966120D1A5";
shapes = (
{
closed = 1;
nodes = (
(21,21,l),
(29,88,o),
(72,180,o),
(106,227,cs),
(131,262,o),
(146,275,o),
(164,294,c),
(176,307,o),
(188,323,o),
(188,344,cs),
(188,365,o),
(178,383,o),
(154,383,cs),
(140,383,o),
(119,375,o),
(113,354,cs),
(106,332,o),
(111,332,o),
(104,315,cs),
(97,297,o),
(82,290,o),
(67,290,cs),
(34,290,o),
(28,320,o),
(28,332,cs),
(28,385,o),
(77,423,o),
(133,423,cs),
(182,423,o),
(215,393,o),
(215,348,cs),
(215,343,o),
(215,338,o),
(214,333,c),
(241,352,o),
(278,375,o),
(347,396,cs),
(416,419,o),
(472,426,o),
(551,426,cs),
(573,426,o),
(630,423,o),
(666,411,c),
(586,398,l),
(575,399,o),
(555,399,o),
(545,399,cs),
(497,399,o),
(460,396,o),
(429,390,cs),
(348,376,o),
(287,353,o),
(214,301,c),
(237,307,o),
(269,309,o),
(295,309,cs),
(412,309,o),
(503,245,o),
(503,123,cs),
(503,66,o),
(471,-1,o),
(388,-1,cs),
(343,-1,o),
(310,20,o),
(289,62,c),
(272,22,o),
(240,-1,o),
(199,-1,cs),
(114,-1,o),
(117,71,o),
(85,71,cs),
(64,71,o),
(49,50,o),
(46,11,c)
);
},
{
closed = 1;
nodes = (
(68,93,c),
(74,96,o),
(80,98,o),
(87,98,cs),
(115,98,o),
(138,69,o),
(194,69,cs),
(244,69,o),
(274,99,o),
(274,158,cs),
(274,160,o),
(274,157,o),
(274,159,c),
(300,159,l),
(300,158,o),
(300,159,o),
(300,158,cs),
(300,95,o),
(326,69,o),
(383,69,cs),
(444,69,o),
(463,120,o),
(463,155,cs),
(463,236,o),
(392,284,o),
(291,284,cs),
(235,284,o),
(199,276,o),
(178,267,c),
(161,252,o),
(142,229,o),
(126,207,cs),
(98,167,o),
(79,129,o)
);
},
{
closed = 1;
nodes = (
(485,161,cs),
(485,244,o),
(548,297,o),
(647,297,cs),
(707,297,ls),
(707,299,o),
(707,299,o),
(707,301,cs),
(707,354,o),
(674,386,o),
(638,386,cs),
(594,386,o),
(586,363,o),
(580,347,cs),
(573,328,o),
(564,315,o),
(543,315,cs),
(527,315,o),
(508,326,o),
(508,351,cs),
(508,395,o),
(556,422,o),
(610,422,cs),
(696,422,o),
(738,367,o),
(738,283,cs),
(738,280,o),
(738,276,o),
(738,273,cs),
(650,273,ls),
(578,273,o),
(520,239,o),
(520,176,cs),
(520,92,o),
(629,69,o),
(717,69,cs),
(861,69,o),
(955,150,o),
(955,285,cs),
(955,410,o),
(851,482,o),
(711,482,cs),
(637,482,o),
(569,465,o),
(491,441,c),
(491,473,l),
(522,480,o),
(572,487,o),
(572,496,cs),
(572,508,o),
(545,512,o),
(545,533,cs),
(545,569,o),
(607,614,o),
(719,614,cs),
(909,614,o),
(968,479,o),
(980,348,cs),
(985,325,o),
(988,298,o),
(988,268,c),
(988,111,o),
(892,0,o),
(714,0,cs),
(596,0,o),
(485,45,o)
);
},
{
closed = 1;
nodes = (
(584,530,cs),
(584,518,o),
(607,514,o),
(607,503,cs),
(607,501,o),
(607,498,o),
(605,496,c),
(637,502,o),
(674,507,o),
(719,507,cs),
(806,507,o),
(892,475,o),
(939,412,c),
(907,524,o),
(829,576,o),
(725,576,cs),
(655,576,o),
(584,553,o)
);
}
);
width = 1036;
}
);
},
{
glyphname = "k_va-sinhala";
lastChange = "2024-02-24 15:53:23 +0000";
layers = (
{
layerId = "C18F3EFD-FA9C-4751-AD2F-5B966120D1A5";
shapes = (
{
closed = 1;
nodes = (
(21,21,l),
(29,88,o),
(72,180,o),
(106,227,cs),
(131,262,o),
(146,275,o),
(164,294,c),
(176,307,o),
(188,323,o),
(188,344,cs),
(188,365,o),
(178,383,o),
(154,383,cs),
(140,383,o),
(119,375,o),
(113,354,cs),
(106,332,o),
(111,332,o),
(104,315,cs),
(97,297,o),
(82,290,o),
(67,290,cs),
(34,290,o),
(28,320,o),
(28,332,cs),
(28,385,o),
(77,423,o),
(133,423,cs),
(182,423,o),
(215,393,o),
(215,348,cs),
(215,343,o),
(215,338,o),
(214,333,c),
(241,352,o),
(278,375,o),
(347,396,cs),
(416,419,o),
(472,426,o),
(551,426,cs),
(573,426,o),
(630,423,o),
(666,411,c),
(586,398,l),
(575,399,o),
(555,399,o),
(545,399,cs),
(497,399,o),
(460,396,o),
(429,390,cs),
(348,376,o),
(287,353,o),
(214,301,c),
(237,307,o),
(269,309,o),
(295,309,cs),
(412,309,o),
(503,245,o),
(503,123,cs),
(503,66,o),
(471,-1,o),
(388,-1,cs),
(343,-1,o),
(310,20,o),
(289,62,c),
(272,22,o),
(240,-1,o),
(199,-1,cs),
(114,-1,o),
(117,71,o),
(85,71,cs),
(64,71,o),
(49,50,o),
(46,11,c)
);
},
{
closed = 1;
nodes = (
(486,161,cs),
(486,244,o),
(549,297,o),
(648,297,cs),
(708,297,l),
(708,299,o),
(708,299,o),
(708,301,cs),
(708,354,o),
(675,386,o),
(639,386,cs),
(595,386,o),
(587,363,o),
(581,347,cs),
(574,328,o),
(566,315,o),
(545,315,cs),
(529,315,o),
(508,326,o),
(508,352,cs),
(508,394,o),
(557,422,o),
(611,422,cs),
(697,422,o),
(739,367,o),
(739,283,cs),
(739,280,o),
(739,276,o),
(739,273,c),
(651,273,ls),
(579,273,o),
(521,239,o),
(521,176,cs),
(521,92,o),
(630,69,o),
(718,69,cs),
(867,69,o),
(956,154,o),
(956,293,cs),
(956,432,o),
(855,540,o),
(724,540,cs),
(647,540,o),
(585,513,o),
(541,459,c),
(510,459,l),
(558,527,o),
(628,563,o),
(724,563,cs),
(880,563,o),
(989,433,o),
(989,268,cs),
(989,112,o),
(894,0,o),
(715,0,cs),
(597,0,o),
(486,45,o)
);
},
{
closed = 1;
nodes = (
(68,93,c),
(74,96,o),
(80,98,o),
(87,98,cs),
(115,98,o),
(138,69,o),
(194,69,cs),
(244,69,o),
(274,99,o),
(274,158,cs),
(274,160,o),
(274,157,o),
(274,159,c),
(300,159,l),
(300,158,o),
(300,159,o),
(300,158,cs),
(300,95,o),
(326,69,o),
(383,69,cs),
(444,69,o),
(463,120,o),
(463,155,cs),
(463,236,o),
(392,284,o),
(291,284,cs),
(235,284,o),
(199,276,o),
(178,267,c),
(161,252,o),
(142,229,o),
(126,207,cs),
(98,167,o),
(79,129,o)
);
}
);
width = 1036;
}
);
},
{
glyphname = "k_va_reph-sinhala";
lastChange = "2024-02-24 15:53:31 +0000";
layers = (
{
layerId = "C18F3EFD-FA9C-4751-AD2F-5B966120D1A5";
shapes = (
{
closed = 1;
nodes = (
(21,21,l),
(29,88,o),
(72,180,o),
(106,227,cs),
(131,262,o),
(146,275,o),
(164,294,c),
(176,307,o),
(188,323,o),
(188,344,cs),
(188,365,o),
(178,383,o),
(154,383,cs),
(140,383,o),
(119,375,o),
(113,354,cs),
(106,332,o),
(111,332,o),
(104,315,cs),
(97,297,o),
(82,290,o),
(67,290,cs),
(34,290,o),
(28,320,o),
(28,332,cs),
(28,385,o),
(77,423,o),
(133,423,cs),
(182,423,o),
(215,393,o),
(215,348,cs),
(215,343,o),
(215,338,o),
(214,333,c),
(241,352,o),
(278,375,o),
(347,396,cs),
(416,419,o),
(472,426,o),
(551,426,cs),
(573,426,o),
(630,423,o),
(666,411,c),
(586,398,l),
(575,399,o),
(555,399,o),
(545,399,cs),
(497,399,o),
(460,396,o),
(429,390,cs),
(348,376,o),
(287,353,o),
(214,301,c),
(237,307,o),
(269,309,o),
(295,309,cs),
(412,309,o),
(503,245,o),
(503,123,cs),
(503,66,o),
(471,-1,o),
(388,-1,cs),
(343,-1,o),
(310,20,o),
(289,62,c),
(272,22,o),
(240,-1,o),
(199,-1,cs),
(114,-1,o),
(117,71,o),
(85,71,cs),
(64,71,o),
(49,50,o),
(46,11,c)
);
},
{
closed = 1;
nodes = (
(98,167,o),
(79,129,o),
(68,93,c),
(74,96,o),
(80,98,o),
(87,98,cs),
(115,98,o),
(138,69,o),
(194,69,cs),
(244,69,o),
(274,99,o),
(274,158,cs),
(274,160,o),
(274,157,o),
(274,159,c),
(300,159,l),
(300,158,o),
(300,159,o),
(300,158,cs),
(300,95,o),
(326,69,o),
(383,69,cs),
(444,69,o),
(463,120,o),
(463,155,cs),
(463,236,o),
(392,284,o),
(291,284,cs),
(235,284,o),
(199,276,o),
(178,267,c),
(161,252,o),
(142,229,o),
(126,207,cs)
);
},
{
pos = (454,0);
ref = "va-sinhala";
},
{
pos = (1080,67);
ref = "reph-sinhala";
}
);
width = 1036;
}
);
},
{
glyphname = "k_vi-sinhala";
lastChange = "2024-02-24 15:53:29 +0000";
layers = (
{
layerId = "C18F3EFD-FA9C-4751-AD2F-5B966120D1A5";
shapes = (
{
closed = 1;
nodes = (
(21,21,l),
(29,88,o),
(72,180,o),
(106,227,cs),
(131,262,o),
(146,275,o),
(164,294,c),
(176,307,o),
(188,323,o),
(188,344,cs),
(188,365,o),
(178,383,o),
(154,383,cs),
(140,383,o),
(119,375,o),
(113,354,cs),
(106,332,o),
(111,332,o),
(104,315,cs),
(97,297,o),
(82,290,o),
(67,290,cs),
(34,290,o),
(28,320,o),
(28,332,cs),
(28,385,o),
(77,423,o),
(133,423,cs),
(182,423,o),
(215,393,o),
(215,348,cs),
(215,343,o),
(215,338,o),
(214,333,c),
(241,352,o),
(278,375,o),
(347,396,cs),
(416,419,o),
(472,426,o),
(551,426,cs),
(573,426,o),
(630,423,o),
(666,411,c),
(586,398,l),
(575,399,o),
(555,399,o),
(545,399,cs),
(497,399,o),
(460,396,o),
(429,390,cs),
(348,376,o),
(287,353,o),
(214,301,c),
(237,307,o),
(269,309,o),
(295,309,cs),
(412,309,o),
(503,245,o),
(503,123,cs),
(503,66,o),
(471,-1,o),
(388,-1,cs),
(343,-1,o),
(310,20,o),
(289,62,c),
(272,22,o),
(240,-1,o),
(199,-1,cs),
(114,-1,o),
(117,71,o),
(85,71,cs),
(64,71,o),
(49,50,o),
(46,11,c)
);
},
{
closed = 1;
nodes = (
(68,93,c),
(74,96,o),
(80,98,o),
(87,98,cs),
(115,98,o),
(138,69,o),
(194,69,cs),
(244,69,o),
(274,99,o),
(274,158,cs),
(274,160,o),
(274,157,o),
(274,159,c),
(300,159,l),
(300,158,o),
(300,159,o),
(300,158,cs),
(300,95,o),
(326,69,o),
(383,69,cs),
(444,69,o),
(463,120,o),
(463,155,cs),
(463,236,o),
(392,284,o),
(291,284,cs),
(235,284,o),
(199,276,o),
(178,267,c),
(161,252,o),
(142,229,o),
(126,207,cs),
(98,167,o),
(79,129,o)
);
},
{
pos = (454,0);
ref = "vi-sinhala";
}
);
width = 1036;
}
);
},
{
glyphname = "k_ss-sinhala";
lastChange = "2024-02-24 15:52:57 +0000";
layers = (
{
layerId = "C18F3EFD-FA9C-4751-AD2F-5B966120D1A5";
shapes = (
{
closed = 1;
nodes = (
(850,403,l),
(850,664,l),
(903,623,o),
(996,618,o),
(996,528,cs),
(996,485,o),
(962,456,o),
(920,456,cs),
(905,456,o),
(891,459,o),
(876,466,c),
(876,400,l)
);
},
{
closed = 1;
nodes = (
(876,490,l),
(885,485,o),
(895,483,o),
(908,483,cs),
(945,483,o),
(960,508,o),
(960,531,cs),
(960,572,o),
(922,592,o),
(876,622,c)
);
},
{
ref = "k_ssa-sinhala";
}
);
width = 1043;
}
);
},
{
glyphname = "k_ssa-sinhala";
lastChange = "2024-02-24 15:53:00 +0000";
layers = (
{
layerId = "C18F3EFD-FA9C-4751-AD2F-5B966120D1A5";
shapes = (
{
closed = 1;
nodes = (
(68,93,c),
(74,96,o),
(80,98,o),
(87,98,cs),
(115,98,o),
(138,69,o),
(194,69,cs),
(244,69,o),
(274,99,o),
(274,158,cs),
(274,160,o),
(274,157,o),
(274,159,c),
(300,159,l),
(300,158,o),
(300,159,o),
(300,158,cs),
(300,95,o),
(326,69,o),
(383,69,cs),
(444,69,o),
(463,120,o),
(463,155,cs),
(463,236,o),
(392,284,o),
(291,284,cs),
(235,284,o),
(199,276,o),
(178,267,c),
(161,252,o),
(142,229,o),
(126,207,cs),
(98,167,o),
(79,129,o)
);
},
{
closed = 1;
nodes = (
(21,21,l),
(29,88,o),
(72,180,o),
(106,227,cs),
(131,262,o),
(146,275,o),
(164,294,c),
(176,307,o),
(188,323,o),
(188,344,cs),
(188,365,o),
(178,383,o),
(154,383,cs),
(140,383,o),
(119,375,o),
(113,354,cs),
(106,332,o),
(111,332,o),
(104,315,cs),
(97,297,o),
(82,290,o),
(67,290,cs),
(34,290,o),
(28,320,o),
(28,332,cs),
(28,385,o),
(77,423,o),
(133,423,cs),
(182,423,o),
(215,393,o),
(215,348,cs),
(215,343,o),
(215,338,o),
(214,333,c),
(293,392,o),
(409,426,o),
(542,426,cs),
(576,426,o),
(609,423,o),
(609,423,c),
(528,396,l),
(528,396,o),
(517,396,o),
(512,396,cs),
(369,396,o),
(267,342,o),
(214,301,c),
(237,307,o),
(269,309,o),
(295,309,cs),
(412,309,o),
(503,245,o),
(503,123,cs),
(503,66,o),
(471,-1,o),
(388,-1,cs),
(343,-1,o),
(310,20,o),
(289,62,c),
(272,22,o),
(240,-1,o),
(199,-1,cs),
(114,-1,o),
(117,71,o),
(85,71,cs),
(64,71,o),
(49,50,o),
(46,11,c)
);
},
{
closed = 1;
nodes = (
(468,180,cs),
(468,269,o),
(534,319,o),
(639,319,cs),
(652,319,o),
(662,318,o),
(675,317,c),
(675,321,o),
(676,324,o),
(676,328,cs),
(676,366,o),
(650,386,o),
(620,386,cs),
(589,386,o),
(577,371,o),
(572,352,cs),
(568,338,o),
(555,320,o),
(528,320,cs),
(509,320,o),
(491,332,o),
(491,356,cs),
(491,399,o),
(537,424,o),
(591,424,cs),
(661,424,o),
(705,391,o),
(705,326,cs),
(705,315,o),
(704,304,o),
(701,291,c),
(683,293,o),
(649,295,o),
(648,295,cs),
(573,295,o),
(504,269,o),
(504,196,cs),
(504,104,o),
(625,69,o),
(736,69,cs),
(840,69,o),
(964,107,o),
(964,200,cs),
(964,271,o),
(897,297,o),
(821,297,cs),
(799,297,o),
(775,294,o),
(753,290,c),
(751,301,o),
(750,310,o),
(750,320,cs),
(750,387,o),
(794,423,o),
(865,423,cs),
(929,423,o),
(965,384,o),
(965,346,cs),
(965,285,o),
(875,244,o),
(826,234,c),
(845,225,o),
(858,211,o),
(858,192,cs),
(858,148,o),
(803,132,o),
(726,132,cs),
(671,132,o),
(604,145,o),
(604,193,cs),
(604,220,o),
(624,248,o),
(718,248,cs),
(740,248,o),
(786,249,o),
(816,255,cs),
(865,264,o),
(931,299,o),
(931,343,cs),
(931,371,o),
(904,396,o),
(858,396,cs),
(816,396,o),
(781,372,o),
(781,328,cs),
(781,324,o),
(781,321,o),
(782,317,c),
(799,319,o),
(814,320,o),
(830,320,cs),
(919,320,o),
(997,286,o),
(997,182,cs),
(997,54,o),
(874,0,o),
(736,0,cs),
(591,0,o),
(468,45,o)
);
},
{
closed = 1;
nodes = (
(634,193,cs),
(634,171,o),
(666,157,o),
(729,157,cs),
(795,157,o),
(829,171,o),
(829,192,cs),
(829,216,o),
(796,227,o),
(728,227,cs),
(665,227,o),
(634,214,o)
);
}
);
width = 1043;
}
);
},
{
glyphname = "k_ssi-sinhala";
lastChange = "2024-02-24 15:53:07 +0000";
layers = (
{
layerId = "C18F3EFD-FA9C-4751-AD2F-5B966120D1A5";
shapes = (
{
closed = 1;
nodes = (
(503,506,cs),
(503,611,o),
(613,655,o),
(729,655,cs),
(845,655,o),
(956,611,o),
(956,506,cs),
(956,433,o),
(891,399,o),
(816,396,c),
(816,416,l),
(869,419,o),
(923,443,o),
(923,497,cs),
(923,566,o),
(816,584,o),
(729,584,cs),
(642,584,o),
(536,566,o),
(536,497,cs),
(536,443,o),
(590,419,o),
(643,416,c),
(643,396,l),
(568,399,o),
(503,433,o)
);
},
{
ref = "k_ssa-sinhala";
}
);
width = 1043;
}
);
},
{
glyphname = "k_ssii-sinhala";
lastChange = "2024-02-24 15:53:10 +0000";
layers = (
{
layerId = "C18F3EFD-FA9C-4751-AD2F-5B966120D1A5";
shapes = (
{
closed = 1;
nodes = (
(813,502,cs),
(813,472,o),
(843,447,o),
(878,447,cs),
(913,447,o),
(942,472,o),
(942,502,cs),
(942,532,o),
(913,557,o),
(878,557,cs),
(843,557,o),
(813,532,o)
);
},
{
closed = 1;
nodes = (
(484,505,cs),
(484,609,o),
(605,655,o),
(729,655,cs),
(843,655,o),
(977,613,o),
(977,512,cs),
(977,458,o),
(933,419,o),
(878,419,cs),
(821,419,o),
(782,459,o),
(782,503,cs),
(782,547,o),
(813,568,o),
(832,577,c),
(821,580,o),
(783,586,o),
(730,586,cs),
(638,586,o),
(521,564,o),
(521,487,cs),
(521,449,o),
(542,425,o),
(579,416,c),
(572,396,l),
(520,401,o),
(484,445,o)
);
},
{
ref = "k_ssa-sinhala";
}
);
width = 1043;
}
);
},
{
glyphname = "k_ssu-sinhala";
lastChange = "2024-02-24 15:53:12 +0000";
layers = (
{
layerId = "C18F3EFD-FA9C-4751-AD2F-5B966120D1A5";
shapes = (
{
closed = 1;
nodes = (
(480,-139,cs),
(480,-88,o),
(526,-49,o),
(580,-49,cs),
(621,-49,o),
(657,-72,o),
(672,-107,c),
(643,-119,l),
(636,-99,o),
(612,-78,o),
(580,-78,cs),
(544,-78,o),
(514,-104,o),
(514,-139,cs),
(514,-167,o),
(537,-194,o),
(601,-194,cs),
(959,-194,l),
(959,125,l),
(991,193,l),
(991,-229,l),
(584,-229,ls),
(517,-229,o),
(480,-182,o)
);
},
{
ref = "k_ssa-sinhala";
}
);
width = 1043;
}
);
},
{
glyphname = "k_ssuu-sinhala";
lastChange = "2024-02-24 15:53:17 +0000";
layers = (
{
layerId = "C18F3EFD-FA9C-4751-AD2F-5B966120D1A5";
shapes = (
{
closed = 1;
nodes = (
(479,-135,cs),
(479,-78,o),
(527,-39,o),
(579,-39,cs),
(620,-39,o),
(652,-54,o),
(674,-89,c),
(645,-100,l),
(633,-81,o),
(612,-66,o),
(584,-66,cs),
(546,-66,o),
(515,-90,o),
(515,-126,cs),
(515,-162,o),
(545,-187,o),
(587,-187,cs),
(669,-187,o),
(743,-114,o),
(836,-114,cs),
(885,-114,o),
(933,-133,o),
(959,-164,c),
(959,148,l),
(991,207,l),
(991,-226,l),
(969,-226,l),
(949,-189,o),
(907,-142,o),
(838,-142,cs),
(749,-142,o),
(684,-231,o),
(588,-231,cs),
(534,-231,o),
(479,-201,o)
);
},
{
ref = "k_ssa-sinhala";
}
);
width = 1043;
}
);
},
{
glyphname = "kh-sinhala";
lastChange = "2024-02-24 15:47:18 +0000";
layers = (
{
layerId = "C18F3EFD-FA9C-4751-AD2F-5B966120D1A5";
shapes = (
{
closed = 1;
nodes = (
(136,530,cs),
(136,518,o),
(159,514,o),
(159,503,cs),
(159,501,o),
(158,498,o),
(156,496,c),
(188,502,o),
(227,507,o),
(272,507,cs),
(377,507,o),
(458,478,o),
(515,412,c),
(483,524,o),
(390,576,o),
(277,576,cs),
(207,576,o),
(136,553,o)
);
},
{
closed = 1;
nodes = (
(41,432,c),
(41,462,l),
(72,474,o),
(123,487,o),
(123,496,cs),
(123,508,o),
(96,512,o),
(96,533,cs),
(96,569,o),
(159,614,o),
(271,614,cs),
(474,614,o),
(544,479,o),
(556,348,c),
(562,330,o),
(568,294,o),
(568,261,c),
(530,269,l),
(530,394,o),
(443,482,o),
(270,482,cs),
(196,482,o),
(120,469,o)
);
},
{
closed = 1;
nodes = (
(91,70,cs),
(91,47,o),
(110,28,o),
(133,28,cs),
(156,28,o),
(175,47,o),
(175,70,cs),
(175,93,o),
(156,112,o),
(133,112,cs),
(110,112,o),
(91,93,o)
);
},
{
closed = 1;
nodes = (
(31,179,cs),
(31,315,o),
(121,387,o),
(234,387,cs),
(325,387,o),
(403,335,o),
(403,252,cs),
(403,196,o),
(376,149,o),
(338,112,c),
(341,113,o),
(344,113,o),
(347,113,cs),
(375,113,o),
(378,69,o),
(421,69,cs),
(472,69,o),
(530,182,o),
(530,273,c),
(568,266,l),
(568,136,o),
(504,0,o),
(406,0,cs),
(344,0,o),
(339,53,o),
(313,53,cs),
(300,53,o),
(275,33,o),
(234,-21,c),
(199,-18,l),
(212,-5,o),
(240,33,o),
(281,82,cs),
(332,143,o),
(358,190,o),
(358,227,cs),
(358,280,o),
(320,312,o),
(230,312,cs),
(152,312,o),
(62,265,o),
(62,152,cs),
(62,140,o),
(64,116,o),
(70,99,c),
(78,126,o),
(106,142,o),
(132,142,cs),
(177,142,o),
(205,113,o),
(205,70,cs),
(205,36,o),
(176,-1,o),
(138,-1,cs),
(55,-1,o),
(31,106,o)
);
}
);
width = 615;
}
);
},
{
glyphname = "khi-sinhala";
lastChange = "2024-02-24 15:47:18 +0000";
layers = (
{
layerId = "C18F3EFD-FA9C-4751-AD2F-5B966120D1A5";
shapes = (
{
closed = 1;
nodes = (
(73,549,cs),
(73,637,o),
(201,654,o),
(299,654,cs),
(432,654,o),
(539,624,o),
(539,541,cs),
(539,490,o),
(486,469,o),
(453,463,c),
(404,479,l),
(439,480,o),
(493,494,o),
(493,531,cs),
(493,586,o),
(404,597,o),
(299,597,cs),
(225,597,o),
(114,592,o),
(114,541,cs),
(114,496,o),
(177,496,o),
(277,492,cs),
(340,489,o),
(432,487,o),
(486,448,cs),
(534,413,o),
(569,348,o),
(569,268,c),
(531,279,l),
(531,326,o),
(520,375,o),
(493,404,cs),
(441,461,o),
(377,461,o),
(278,467,cs),
(191,472,o),
(73,465,o)
);
},
{
closed = 1;
nodes = (
(91,70,cs),
(91,47,o),
(110,28,o),
(133,28,cs),
(156,28,o),
(175,47,o),
(175,70,cs),
(175,93,o),
(156,112,o),
(133,112,cs),
(110,112,o),
(91,93,o)
);
},
{
closed = 1;
nodes = (
(31,179,cs),
(31,315,o),
(121,387,o),
(234,387,cs),
(325,387,o),
(403,335,o),
(403,252,cs),
(403,196,o),
(376,149,o),
(338,112,c),
(341,113,o),
(344,113,o),
(347,113,cs),
(375,113,o),
(381,69,o),
(424,69,cs),
(482,69,o),
(531,183,o),
(531,284,c),
(569,270,l),
(569,140,o),
(511,0,o),
(406,0,cs),
(344,0,o),
(339,53,o),
(313,53,cs),
(300,53,o),
(275,33,o),
(234,-21,c),
(199,-18,l),
(212,-5,o),
(240,33,o),
(281,82,cs),
(332,143,o),
(358,190,o),
(358,227,cs),
(358,280,o),
(320,312,o),
(230,312,cs),
(152,312,o),
(62,265,o),
(62,152,cs),
(62,140,o),
(64,116,o),
(70,99,c),
(78,126,o),
(106,142,o),
(132,142,cs),
(177,142,o),
(205,113,o),
(205,70,cs),
(205,36,o),
(176,-1,o),
(138,-1,cs),
(55,-1,o),
(31,106,o)
);
}
);
width = 615;
}
);
},
{
glyphname = "khii-sinhala";
lastChange = "2024-02-24 15:47:18 +0000";
layers = (
{
layerId = "C18F3EFD-FA9C-4751-AD2F-5B966120D1A5";
shapes = (
{
closed = 1;
nodes = (
(391,542,cs),
(391,513,o),
(417,489,o),
(449,489,cs),
(481,489,o),
(508,513,o),
(508,542,cs),
(508,571,o),
(481,595,o),
(449,595,cs),
(417,595,o),
(391,571,o)
);
},
{
closed = 1;
nodes = (
(73,549,cs),
(73,637,o),
(201,654,o),
(299,654,cs),
(432,654,o),
(539,624,o),
(539,545,cs),
(539,493,o),
(492,463,o),
(449,463,cs),
(406,463,o),
(359,493,o),
(359,545,cs),
(359,569,o),
(372,586,o),
(378,594,c),
(371,595,o),
(340,597,o),
(299,597,cs),
(225,597,o),
(114,592,o),
(114,541,cs),
(114,496,o),
(177,496,o),
(277,492,cs),
(340,489,o),
(432,487,o),
(486,448,cs),
(534,413,o),
(569,348,o),
(569,268,c),
(531,279,l),
(531,326,o),
(520,375,o),
(493,404,cs),
(441,461,o),
(377,461,o),
(278,467,cs),
(191,472,o),
(73,465,o)
);
},
{
closed = 1;
nodes = (
(91,70,cs),
(91,47,o),
(110,28,o),
(133,28,cs),
(156,28,o),
(175,47,o),
(175,70,cs),
(175,93,o),
(156,112,o),
(133,112,cs),
(110,112,o),
(91,93,o)
);
},
{
closed = 1;
nodes = (
(31,179,cs),
(31,315,o),
(121,387,o),
(234,387,cs),
(325,387,o),
(403,335,o),
(403,252,cs),
(403,196,o),
(376,149,o),
(338,112,c),
(341,113,o),
(344,113,o),
(347,113,cs),
(375,113,o),
(381,69,o),
(424,69,cs),
(482,69,o),
(531,183,o),
(531,284,c),
(569,270,l),
(569,140,o),
(511,0,o),
(406,0,cs),
(344,0,o),
(339,53,o),
(313,53,cs),
(300,53,o),
(275,33,o),
(234,-21,c),
(199,-18,l),
(212,-5,o),
(240,33,o),
(281,82,cs),
(332,143,o),
(358,190,o),
(358,227,cs),
(358,280,o),
(320,312,o),
(230,312,cs),
(152,312,o),
(62,265,o),
(62,152,cs),
(62,140,o),
(64,116,o),
(70,99,c),
(78,126,o),
(106,142,o),
(132,142,cs),
(177,142,o),
(205,113,o),
(205,70,cs),
(205,36,o),
(176,-1,o),
(138,-1,cs),
(55,-1,o),
(31,106,o)
);
}
);
width = 615;
}
);
},
{
glyphname = "khu-sinhala";
lastChange = "2024-02-24 15:47:18 +0000";
layers = (
{
layerId = "C18F3EFD-FA9C-4751-AD2F-5B966120D1A5";
shapes = (
{
closed = 1;
nodes = (
(51,-139,cs),
(51,-88,o),
(95,-49,o),
(149,-49,cs),
(190,-49,o),
(226,-72,o),
(241,-107,c),
(212,-119,l),
(205,-99,o),
(181,-78,o),
(149,-78,cs),
(113,-78,o),
(83,-104,o),
(83,-139,cs),
(83,-167,o),
(106,-194,o),
(170,-194,cs),
(529,-194,l),
(529,125,l),
(562,214,l),
(562,-229,l),
(153,-229,ls),
(86,-229,o),
(51,-182,o)
);
},
{
ref = "kha-sinhala";
}
);
width = 615;
}
);
},
{
glyphname = "khuu-sinhala";
lastChange = "2024-02-24 15:47:18 +0000";
layers = (
{
layerId = "C18F3EFD-FA9C-4751-AD2F-5B966120D1A5";
shapes = (
{
closed = 1;
nodes = (
(50,-135,cs),
(50,-78,o),
(97,-39,o),
(149,-39,cs),
(190,-39,o),
(222,-54,o),
(244,-89,c),
(215,-100,l),
(203,-81,o),
(182,-66,o),
(154,-66,cs),
(116,-66,o),
(85,-90,o),
(85,-126,cs),
(85,-162,o),
(115,-187,o),
(157,-187,cs),
(239,-187,o),
(320,-114,o),
(413,-114,cs),
(455,-114,o),
(503,-133,o),
(529,-164,c),
(529,148,l),
(562,207,l),
(562,-226,l),
(539,-226,l),
(524,-191,o),
(482,-141,o),
(416,-141,cs),
(327,-141,o),
(254,-231,o),
(158,-231,cs),
(104,-231,o),
(50,-201,o)
);
},
{
ref = "kha-sinhala";
}
);
width = 615;
}
);
},
{
glyphname = "ki-sinhala";
lastChange = "2024-02-24 15:47:18 +0000";
layers = (
{
layerId = "C18F3EFD-FA9C-4751-AD2F-5B966120D1A5";
shapes = (
{
closed = 1;
nodes = (
(213,411,cs),
(213,576,o),
(322,655,o),
(462,655,cs),
(589,655,o),
(672,596,o),
(672,493,cs),
(672,433,o),
(643,393,o),
(596,374,c),
(564,394,l),
(603,396,o),
(641,430,o),
(641,475,cs),
(641,561,o),
(542,584,o),
(462,584,cs),
(328,584,o),
(238,516,o),
(238,395,cs),
(238,380,o),
(240,367,o),
(243,356,c),
(220,335,l),
(216,353,o),
(213,381,o)
);
},
{
ref = "ka-sinhala";
}
);
width = 728;
}
);
},
{
glyphname = "kii-sinhala";
lastChange = "2024-02-24 15:47:18 +0000";
layers = (
{
layerId = "C18F3EFD-FA9C-4751-AD2F-5B966120D1A5";
shapes = (
{
closed = 1;
nodes = (
(519,465,cs),
(519,434,o),
(545,407,o),
(577,407,cs),
(609,407,o),
(636,434,o),
(636,465,cs),
(636,496,o),
(609,522,o),
(577,522,cs),
(545,522,o),
(519,496,o)
);
},
{
closed = 1;
nodes = (
(213,411,cs),
(213,576,o),
(322,655,o),
(462,655,cs),
(589,655,o),
(673,586,o),
(673,483,cs),
(673,433,o),
(636,379,o),
(579,379,cs),
(522,379,o),
(488,423,o),
(488,466,cs),
(488,527,o),
(543,565,o),
(605,549,c),
(567,576,o),
(508,584,o),
(462,584,cs),
(328,584,o),
(238,516,o),
(238,395,cs),
(238,380,o),
(240,367,o),
(243,356,c),
(220,335,l),
(216,353,o),
(213,381,o)
);
},
{
ref = "ka-sinhala";
}
);
width = 728;
}
);
},
{
glyphname = "ku-sinhala";
lastChange = "2024-02-24 15:47:18 +0000";
layers = (
{
layerId = "C18F3EFD-FA9C-4751-AD2F-5B966120D1A5";
shapes = (
{
closed = 1;
nodes = (
(433,-78,cs),
(433,-29,o),
(461,8,o),
(504,21,c),
(510,-6,l),
(489,-14,o),
(470,-33,o),
(470,-62,cs),
(470,-105,o),
(515,-129,o),
(570,-129,cs),
(621,-129,o),
(675,-97,o),
(675,-44,cs),
(675,-41,o),
(674,-38,o),
(674,-35,c),
(703,-35,l),
(705,-44,o),
(705,-59,o),
(705,-68,cs),
(705,-120,o),
(661,-188,o),
(568,-188,cs),
(500,-188,o),
(433,-145,o)
);
},
{
closed = 1;
nodes = (
(21,21,l),
(29,88,o),
(72,180,o),
(106,227,cs),
(131,262,o),
(146,275,o),
(164,294,c),
(176,307,o),
(188,323,o),
(188,344,cs),
(188,365,o),
(178,383,o),
(154,383,cs),
(140,383,o),
(119,375,o),
(113,354,cs),
(106,332,o),
(111,332,o),
(104,315,cs),
(97,297,o),
(82,290,o),
(67,290,cs),
(34,290,o),
(28,320,o),
(28,332,cs),
(28,385,o),
(77,423,o),
(133,423,cs),
(182,423,o),
(215,393,o),
(215,348,cs),
(215,343,o),
(215,338,o),
(214,333,c),
(275,392,o),
(357,424,o),
(442,424,cs),
(588,424,o),
(685,321,o),
(685,188,cs),
(685,110,o),
(641,0,o),
(552,0,cs),
(534,0,o),
(518,-3,o),
(508,-7,c),
(500,19,l),
(509,24,o),
(532,26,o),
(543,26,cs),
(593,26,o),
(634,72,o),
(634,149,cs),
(634,278,o),
(522,359,o),
(391,359,cs),
(320,359,o),
(260,340,o),
(214,301,c),
(237,307,o),
(269,309,o),
(295,309,cs),
(412,309,o),
(503,245,o),
(503,123,cs),
(503,66,o),
(471,-1,o),
(388,-1,cs),
(343,-1,o),
(310,20,o),
(289,62,c),
(272,22,o),
(240,-1,o),
(199,-1,cs),
(114,-1,o),
(117,71,o),
(85,71,cs),
(64,71,o),
(49,50,o),
(46,11,c)
);
},
{
closed = 1;
nodes = (
(68,93,c),
(74,96,o),
(80,98,o),
(87,98,cs),
(115,98,o),
(138,69,o),
(194,69,cs),
(244,69,o),
(274,99,o),
(274,158,cs),
(274,160,o),
(274,157,o),
(274,159,c),
(300,159,l),
(300,158,o),
(300,159,o),
(300,158,cs),
(300,95,o),
(326,69,o),
(383,69,cs),
(444,69,o),
(463,120,o),
(463,155,cs),
(463,236,o),
(392,284,o),
(291,284,cs),
(235,284,o),
(199,276,o),
(178,267,c),
(161,252,o),
(142,229,o),
(126,207,cs),
(98,167,o),
(79,129,o)
);
}
);
width = 728;
}
);
},
{
glyphname = "kuu-sinhala";
lastChange = "2024-02-24 15:47:18 +0000";
layers = (
{
layerId = "C18F3EFD-FA9C-4751-AD2F-5B966120D1A5";
shapes = (
{
closed = 1;
nodes = (
(436,-126,cs),
(436,-91,o),
(466,-69,o),
(498,-65,c),
(444,-38,l),
(529,-14,l),
(494,0,l),
(494,21,l),
(586,-14,l),
(502,-42,l),
(561,-74,l),
(534,-81,o),
(475,-83,o),
(475,-112,cs),
(475,-142,o),
(516,-151,o),
(557,-151,cs),
(610,-151,o),
(654,-128,o),
(654,-80,cs),
(654,-75,o),
(653,-68,o),
(648,-58,c),
(681,-58,l),
(685,-70,o),
(685,-81,o),
(685,-92,cs),
(685,-157,o),
(635,-200,o),
(555,-200,cs),
(498,-200,o),
(436,-183,o)
);
},
{
ref = "ka-sinhala";
}
);
width = 728;
}
);
},
{
glyphname = "l-sinhala";
lastChange = "2024-02-24 15:47:15 +0000";
layers = (
{
layerId = "C18F3EFD-FA9C-4751-AD2F-5B966120D1A5";
shapes = (
{
closed = 1;
nodes = (
(593,339,l),
(593,664,l),
(646,623,o),
(739,618,o),
(739,528,cs),
(739,485,o),
(705,456,o),
(663,456,cs),
(648,456,o),
(634,459,o),
(619,466,c),
(619,322,l)
);
},
{
closed = 1;
nodes = (
(619,490,l),
(628,485,o),
(638,483,o),
(651,483,cs),
(688,483,o),
(703,508,o),
(703,531,cs),
(703,572,o),
(665,592,o),
(619,622,c)
);
},
{
ref = "na-sinhala";
}
);
width = 787;
}
);
},
{
glyphname = "la_reph-sinhala";
lastChange = "2024-02-24 15:49:05 +0000";
layers = (
{
layerId = "C18F3EFD-FA9C-4751-AD2F-5B966120D1A5";
shapes = (
{
closed = 1;
nodes = (
(304,508,o),
(285,492,o),
(285,471,cs),
(285,450,o),
(304,435,o),
(325,435,cs),
(346,435,o),
(365,450,o),
(365,471,cs),
(365,492,o),
(346,508,o),
(325,508,cs)
);
},
{
closed = 1;
nodes = (
(243,407,o),
(185,435,o),
(185,490,cs),
(185,552,o),
(242,589,o),
(322,589,cs),
(397,589,o),
(460,546,o),
(460,477,cs),
(460,451,o),
(452,430,o),
(439,411,c),
(409,414,l),
(418,426,o),
(431,447,o),
(431,479,cs),
(431,532,o),
(381,562,o),
(321,562,cs),
(269,562,o),
(216,542,o),
(216,490,cs),
(216,452,o),
(257,433,o),
(279,431,c),
(271,437,o),
(259,451,o),
(259,472,cs),
(259,506,o),
(289,531,o),
(324,531,cs),
(364,531,o),
(392,505,o),
(392,471,cs),
(392,433,o),
(358,407,o),
(301,407,cs)
);
},
{
ref = "la-sinhala";
}
);
width = 654;
}
);
},
{
glyphname = "li-sinhala";
lastChange = "2024-02-24 15:47:18 +0000";
layers = (
{
layerId = "C18F3EFD-FA9C-4751-AD2F-5B966120D1A5";
shapes = (
{
closed = 1;
nodes = (
(118,506,cs),
(118,611,o),
(229,655,o),
(345,655,cs),
(461,655,o),
(571,611,o),
(571,506,cs),
(571,433,o),
(507,399,o),
(432,396,c),
(428,416,l),
(481,419,o),
(538,443,o),
(538,497,cs),
(538,566,o),
(432,584,o),
(345,584,cs),
(258,584,o),
(151,566,o),
(151,497,cs),
(151,446,o),
(203,416,o),
(282,416,c),
(294,416,l),
(258,396,l),
(183,399,o),
(118,433,o)
);
},
{
ref = "la-sinhala";
}
);
width = 654;
}
);
},
{
glyphname = "lii-sinhala";
lastChange = "2024-02-24 15:47:18 +0000";
layers = (
{
layerId = "C18F3EFD-FA9C-4751-AD2F-5B966120D1A5";
shapes = (
{
closed = 1;
nodes = (
(415,502,cs),
(415,472,o),
(444,447,o),
(479,447,cs),
(514,447,o),
(544,472,o),
(544,502,cs),
(544,532,o),
(514,557,o),
(479,557,cs),
(444,557,o),
(415,532,o)
);
},
{
closed = 1;
nodes = (
(97,505,cs),
(97,611,o),
(210,655,o),
(334,655,cs),
(448,655,o),
(578,613,o),
(578,512,cs),
(578,458,o),
(534,419,o),
(479,419,cs),
(422,419,o),
(384,459,o),
(384,503,cs),
(384,547,o),
(415,568,o),
(434,577,c),
(423,580,o),
(389,586,o),
(336,586,cs),
(244,586,o),
(137,565,o),
(137,488,cs),
(137,434,o),
(205,415,o),
(268,415,cs),
(277,415,o),
(303,417,o),
(312,418,c),
(229,395,l),
(166,395,o),
(97,436,o)
);
},
{
ref = "la-sinhala";
}
);
width = 654;
}
);
},
{
glyphname = "ll-sinhala";
lastChange = "2024-02-24 15:47:18 +0000";
layers = (
{
layerId = "C18F3EFD-FA9C-4751-AD2F-5B966120D1A5";
shapes = (
{
closed = 1;
nodes = (
(428,403,l),
(428,664,l),
(481,623,o),
(574,618,o),
(574,528,cs),
(574,485,o),
(540,456,o),
(498,456,cs),
(483,456,o),
(468,459,o),
(453,466,c),
(453,400,l)
);
},
{
closed = 1;
nodes = (
(453,490,l),
(462,485,o),
(473,483,o),
(486,483,cs),
(523,483,o),
(537,508,o),
(537,531,cs),
(537,572,o),
(499,592,o),
(453,622,c)
);
},
{
ref = "lla-sinhala";
}
);
width = 621;
}
);
},
{
glyphname = "lla_reph-sinhala";
lastChange = "2024-02-24 15:49:05 +0000";
layers = (
{
layerId = "C18F3EFD-FA9C-4751-AD2F-5B966120D1A5";
shapes = (
{
closed = 1;
nodes = (
(304,508,o),
(285,492,o),
(285,471,cs),
(285,450,o),
(304,435,o),
(325,435,cs),
(346,435,o),
(365,450,o),
(365,471,cs),
(365,492,o),
(346,508,o),
(325,508,cs)
);
},
{
closed = 1;
nodes = (
(243,407,o),
(185,435,o),
(185,490,cs),
(185,552,o),
(242,589,o),
(322,589,cs),
(397,589,o),
(460,546,o),
(460,477,cs),
(460,451,o),
(452,430,o),
(439,411,c),
(409,414,l),
(418,426,o),
(431,447,o),
(431,479,cs),
(431,532,o),
(381,562,o),
(321,562,cs),
(269,562,o),
(216,542,o),
(216,490,cs),
(216,452,o),
(257,433,o),
(279,431,c),
(271,437,o),
(259,451,o),
(259,472,cs),
(259,506,o),
(289,531,o),
(324,531,cs),
(364,531,o),
(392,505,o),
(392,471,cs),
(392,433,o),
(358,407,o),
(301,407,cs)
);
},
{
ref = "lla-sinhala";
}
);
width = 621;
}
);
},
{
glyphname = "lli-sinhala";
lastChange = "2024-02-24 15:47:19 +0000";
layers = (
{
layerId = "C18F3EFD-FA9C-4751-AD2F-5B966120D1A5";
shapes = (
{
closed = 1;
nodes = (
(100,506,cs),
(100,611,o),
(210,655,o),
(326,655,cs),
(442,655,o),
(553,611,o),
(553,506,cs),
(553,433,o),
(489,399,o),
(414,396,c),
(414,416,l),
(467,419,o),
(520,443,o),
(520,497,cs),
(520,566,o),
(413,584,o),
(326,584,cs),
(239,584,o),
(133,566,o),
(133,497,cs),
(133,446,o),
(182,415,o),
(261,415,c),
(273,416,l),
(240,396,l),
(165,399,o),
(100,433,o)
);
},
{
ref = "lla-sinhala";
}
);
width = 621;
}
);
},
{
glyphname = "llii-sinhala";
lastChange = "2024-02-24 15:47:19 +0000";
layers = (
{
layerId = "C18F3EFD-FA9C-4751-AD2F-5B966120D1A5";
shapes = (
{
closed = 1;
nodes = (
(403,502,cs),
(403,472,o),
(433,447,o),
(468,447,cs),
(503,447,o),
(532,472,o),
(532,502,cs),
(532,532,o),
(503,557,o),
(468,557,cs),
(433,557,o),
(403,532,o)
);
},
{
closed = 1;
nodes = (
(85,505,cs),
(85,611,o),
(198,655,o),
(322,655,cs),
(436,655,o),
(566,613,o),
(566,512,cs),
(566,458,o),
(523,419,o),
(468,419,cs),
(411,419,o),
(372,459,o),
(372,503,cs),
(372,547,o),
(403,568,o),
(422,577,c),
(411,580,o),
(377,586,o),
(324,586,cs),
(232,586,o),
(125,565,o),
(125,488,cs),
(125,434,o),
(193,415,o),
(256,415,c),
(276,418,l),
(218,395,l),
(155,395,o),
(85,436,o)
);
},
{
ref = "lla-sinhala";
}
);
width = 621;
}
);
},
{
glyphname = "llu-sinhala";
lastChange = "2024-02-24 15:47:19 +0000";
layers = (
{
layerId = "C18F3EFD-FA9C-4751-AD2F-5B966120D1A5";
shapes = (
{
closed = 1;
nodes = (
(111,161,cs),
(111,263,o),
(193,302,o),
(303,302,cs),
(322,302,l),
(322,304,o),
(323,306,o),
(323,308,cs),
(323,350,o),
(294,386,o),
(258,386,cs),
(220,386,o),
(209,363,o),
(203,347,cs),
(196,328,o),
(187,315,o),
(166,315,cs),
(150,315,o),
(131,326,o),
(131,351,cs),
(131,397,o),
(178,422,o),
(232,422,cs),
(318,422,o),
(354,355,o),
(354,290,cs),
(354,287,o),
(354,280,o),
(354,277,c),
(295,277,ls),
(204,277,o),
(148,240,o),
(148,176,cs),
(148,92,o),
(252,69,o),
(340,69,cs),
(489,69,o),
(568,145,o),
(568,261,cs),
(568,317,o),
(551,367,o),
(527,402,c),
(512,370,o),
(483,351,o),
(441,351,cs),
(379,351,o),
(344,405,o),
(344,469,cs),
(344,518,o),
(359,553,o),
(385,583,c),
(445,551,o),
(514,481,o),
(549,420,cs),
(587,355,o),
(600,307,o),
(600,239,cs),
(600,114,o),
(517,0,o),
(338,0,cs),
(220,0,o),
(111,45,o)
);
},
{
closed = 1;
nodes = (
(373,473,cs),
(373,425,o),
(393,386,o),
(449,386,cs),
(472,386,o),
(500,397,o),
(510,430,c),
(481,475,o),
(432,520,o),
(395,547,c),
(383,529,o),
(373,507,o)
);
},
{
closed = 1;
nodes = (
(26,242,cs),
(26,371,o),
(122,422,o),
(224,422,cs),
(232,422,o),
(251,421,o),
(270,416,c),
(220,396,l),
(203,395,o),
(188,395,o),
(168,390,cs),
(100,371,o),
(55,330,o),
(55,240,cs),
(55,161,o),
(102,91,o),
(174,72,c),
(174,43,l),
(84,66,o),
(26,143,o)
);
}
);
width = 646;
}
);
},
{
glyphname = "lluu-sinhala";
lastChange = "2024-02-24 15:47:19 +0000";
layers = (
{
layerId = "C18F3EFD-FA9C-4751-AD2F-5B966120D1A5";
shapes = (
{
closed = 1;
nodes = (
(579,308,l),
(579,331,l),
(824,331,l),
(824,310,l),
(700,218,l),
(847,218,l),
(847,196,l),
(802,164,o),
(736,94,o),
(736,13,cs),
(736,-72,o),
(793,-104,o),
(880,-104,c),
(880,-128,l),
(856,-139,o),
(829,-145,o),
(805,-145,cs),
(716,-145,o),
(669,-89,o),
(669,-12,cs),
(669,76,o),
(748,151,o),
(811,194,c),
(651,194,l),
(651,213,l),
(781,308,l)
);
},
{
ref = "llu-sinhala";
}
);
width = 907;
}
);
},
{
glyphname = "lu-sinhala";
lastChange = "2024-02-24 15:47:18 +0000";
layers = (
{
layerId = "C18F3EFD-FA9C-4751-AD2F-5B966120D1A5";
shapes = (
{
closed = 1;
nodes = (
(30,182,cs),
(30,334,o),
(165,422,o),
(355,422,cs),
(476,422,o),
(597,383,o),
(597,273,cs),
(597,205,o),
(540,167,o),
(474,167,cs),
(408,167,o),
(359,207,o),
(359,275,c),
(259,275,l),
(259,301,l),
(506,301,l),
(506,275,l),
(387,275,l),
(387,274,o),
(387,272,o),
(387,271,cs),
(387,236,o),
(428,211,o),
(475,211,cs),
(529,211,o),
(562,239,o),
(562,287,cs),
(562,364,o),
(477,395,o),
(361,395,cs),
(215,395,o),
(106,311,o),
(106,189,cs),
(106,68,o),
(217,-23,o),
(357,-23,cs),
(495,-23,o),
(561,72,o),
(562,123,c),
(589,139,l),
(589,26,o),
(483,-57,o),
(337,-57,cs),
(178,-57,o),
(30,36,o)
);
},
{
closed = 1;
nodes = (
(35,-139,cs),
(35,-88,o),
(80,-49,o),
(134,-49,cs),
(175,-49,o),
(211,-72,o),
(226,-107,c),
(196,-119,l),
(189,-99,o),
(166,-78,o),
(134,-78,cs),
(98,-78,o),
(67,-104,o),
(67,-139,cs),
(67,-167,o),
(90,-194,o),
(154,-194,cs),
(557,-194,l),
(557,46,l),
(589,135,l),
(589,-229,l),
(138,-229,ls),
(71,-229,o),
(35,-182,o)
);
}
);
width = 654;
}
);
},
{
glyphname = "luu-sinhala";
lastChange = "2024-02-24 15:47:18 +0000";
layers = (
{
layerId = "C18F3EFD-FA9C-4751-AD2F-5B966120D1A5";
shapes = (
{
closed = 1;
nodes = (
(41,-135,cs),
(41,-78,o),
(89,-39,o),
(141,-39,cs),
(182,-39,o),
(212,-54,o),
(234,-89,c),
(205,-100,l),
(193,-81,o),
(173,-66,o),
(145,-66,cs),
(107,-66,o),
(76,-90,o),
(76,-126,cs),
(76,-164,o),
(109,-187,o),
(155,-187,cs),
(243,-187,o),
(322,-114,o),
(432,-114,cs),
(486,-114,o),
(531,-134,o),
(557,-163,c),
(557,82,l),
(589,138,l),
(589,-226,l),
(566,-226,l),
(551,-191,o),
(508,-141,o),
(436,-141,cs),
(333,-141,o),
(251,-231,o),
(156,-231,cs),
(102,-231,o),
(41,-201,o)
);
},
{
closed = 1;
nodes = (
(30,182,cs),
(30,334,o),
(165,422,o),
(355,422,cs),
(476,422,o),
(597,383,o),
(597,273,cs),
(597,205,o),
(540,167,o),
(474,167,cs),
(408,167,o),
(359,207,o),
(359,275,c),
(259,275,l),
(259,301,l),
(506,301,l),
(506,275,l),
(387,275,l),
(387,274,o),
(387,272,o),
(387,271,cs),
(387,236,o),
(428,211,o),
(475,211,cs),
(529,211,o),
(562,239,o),
(562,287,cs),
(562,364,o),
(477,395,o),
(361,395,cs),
(215,395,o),
(106,311,o),
(106,189,cs),
(106,68,o),
(217,-23,o),
(357,-23,cs),
(495,-23,o),
(561,72,o),
(562,123,c),
(589,139,l),
(589,26,o),
(483,-57,o),
(337,-57,cs),
(178,-57,o),
(30,36,o)
);
}
);
width = 654;
}
);
},
{
glyphname = "m-sinhala";
lastChange = "2024-02-24 15:47:15 +0000";
layers = (
{
layerId = "C18F3EFD-FA9C-4751-AD2F-5B966120D1A5";
shapes = (
{
closed = 1;
nodes = (
(258,403,l),
(258,664,l),
(311,623,o),
(404,618,o),
(404,528,cs),
(404,485,o),
(370,456,o),
(328,456,cs),
(313,456,o),
(300,459,o),
(285,466,c),
(285,387,l)
);
},
{
closed = 1;
nodes = (
(285,490,l),
(294,485,o),
(303,483,o),
(316,483,cs),
(353,483,o),
(369,508,o),
(369,531,cs),
(369,572,o),
(331,592,o),
(285,622,c)
);
},
{
ref = "da-sinhala";
}
);
width = 445;
}
);
},
